M48
; DRILL file {KiCad 5.1.5} date Sun 17 May 2020 02:21:09 AM CDT
; FORMAT={-:-/ absolute / inch / decimal}
; #@! TF.CreationDate,2020-05-17T02:21:09-05:00
; #@! TF.GenerationSoftware,Kicad,Pcbnew,5.1.5
FMAT,2
INCH
T1C0.0157
T2C0.0394
T3C0.0402
T4C0.0433
T5C0.0472
T6C0.0512
T7C0.0858
T8C0.0984
T9C0.1772
T10C0.1260
%
G90
G05
T1
X2.9045Y-2.7953
X2.9331Y-2.7362
X3.0113Y-4.1934
X3.0512Y-4.1929
X3.1693Y-4.311
X3.1978Y-4.3701
X3.248Y-4.1732
X3.2579Y-4.2421
X3.2677Y-3.8189
X3.3071Y-3.6024
X3.3268Y-4.1732
X3.3434Y-3.9536
X3.3509Y-3.6068
X3.3863Y-3.6521
X3.3893Y-4.3666
X3.4018Y-3.8953
X3.4053Y-3.7596
X3.4252Y-2.3425
X3.5236Y-3.8189
X3.5433Y-3.5827
X3.5807Y-4.8248
X3.5827Y-4.7441
X3.5901Y-4.0674
X3.5906Y-3.8088
X3.6122Y-3.5925
X3.627Y-3.6968
X3.6417Y-4.311
X3.6614Y-4.0354
X3.6811Y-4.8327
X3.6811Y-4.9705
X3.69Y-3.6132
X3.6949Y-3.6526
X3.7205Y-2.3819
X3.7205Y-4.311
X3.7205Y-4.8327
X3.7205Y-4.9705
X3.7402Y-3.6122
X3.7598Y-3.4843
X3.7598Y-4.3898
X3.7598Y-4.7047
X3.78Y-3.6717
X3.7992Y-3.4843
X3.8036Y-4.0497
X3.8189Y-4.124
X3.8386Y-3.4843
X3.8386Y-3.7293
X3.8583Y-3.622
X3.878Y-3.8189
X3.8795Y-3.7319
X3.9173Y-4.0945
X3.9417Y-3.7547
X3.9534Y-4.4193
X3.9586Y-3.6043
X3.9668Y-3.6428
X3.982Y-4.0705
X3.9862Y-4.9606
X4.0059Y-3.6909
X4.0413Y-3.6545
X4.065Y-3.5433
X4.1131Y-3.6949
X4.1142Y-4.0354
X4.1339Y-3.9567
X4.1437Y-3.7598
X4.1634Y-3.5925
X4.1732Y-4.2224
X4.1732Y-4.3701
X4.1732Y-4.4882
X4.1831Y-3.6811
X4.2028Y-4.1437
X4.2035Y-4.2808
X4.2126Y-3.7992
X4.2323Y-4.4882
X4.2574Y-3.7928
X4.3017Y-3.4946
X4.3701Y-4.0157
X4.3996Y-3.6614
X4.4094Y-3.3366
X4.4094Y-3.4843
X4.4291Y-4.0049
X4.4587Y-3.9272
X4.4685Y-3.8878
X4.4685Y-4.0354
X4.4685Y-4.1929
X4.5079Y-3.9764
X4.5207Y-3.6156
X4.5384Y-3.3474
X4.5768Y-4.311
X4.5861Y-4.0261
X4.626Y-3.7598
X4.6358Y-3.3465
X4.6501Y-2.7308
X4.6654Y-3.7106
X4.6757Y-2.7859
X4.685Y-4.1732
X4.6949Y-3.2283
X4.6949Y-3.8583
X4.7052Y-4.0645
X4.7146Y-4.0157
X4.7244Y-3.937
X4.7343Y-2.8346
X4.7343Y-4.2717
X4.7441Y-3.0807
X4.7638Y-3.2096
X4.7638Y-4.1043
X4.7638Y-4.3209
X4.7698Y-3.5996
X4.7736Y-2.8346
X4.7933Y-3.9272
X4.7938Y-4.2416
X4.7979Y-3.6527
X4.8027Y-4.409
X4.8031Y-4.3504
X4.813Y-2.8346
X4.8135Y-4.1727
X4.8179Y-3.2074
X4.8327Y-3.5433
X4.8425Y-3.2623
X4.8524Y-4.0157
X4.8622Y-3.0118
X4.8652Y-3.8484
X4.9213Y-4.4685
X4.9213Y-5.3346
X4.9404Y-3.4257
X4.9409Y-2.7461
X4.9606Y-2.6772
X4.9611Y-2.8155
X4.9803Y-3.0315
X4.9803Y-3.0807
X5.0Y-2.7854
X5.0Y-2.9331
X5.0192Y-3.2879
X5.0305Y-3.4646
X5.0394Y-2.8543
X5.0591Y-3.0413
X5.0689Y-2.9528
X5.0886Y-3.1102
X5.0891Y-3.5133
X5.1181Y-3.2756
X5.1181Y-4.439
X5.1181Y-4.6654
X5.1467Y-4.6063
X5.1575Y-3.5138
X5.1673Y-4.4882
X5.1873Y-4.3176
X5.188Y-3.8386
X5.1969Y-2.9409
X5.1969Y-3.9961
X5.2126Y-2.0315
X5.2165Y-3.5433
X5.2165Y-4.0551
X5.226Y-3.365
X5.2362Y-1.998
X5.2451Y-4.4291
X5.2559Y-3.622
X5.2559Y-4.1142
X5.2756Y-2.0472
X5.2756Y-2.8937
X5.2756Y-3.0108
X5.2756Y-3.1791
X5.2756Y-4.3307
X5.2835Y-3.4272
X5.2854Y-3.8878
X5.2953Y-3.7795
X5.314Y-5.188
X5.315Y-3.4941
X5.3238Y-3.622
X5.3238Y-3.6614
X5.3346Y-3.0709
X5.3346Y-3.7106
X5.3445Y-2.8445
X5.3445Y-4.9675
X5.374Y-2.0276
X5.3937Y-4.4291
X5.4134Y-2.2933
X5.4134Y-3.9564
X5.4331Y-4.3209
X5.4429Y-2.9134
X5.4429Y-3.9075
X5.4429Y-4.2815
X5.4528Y-4.2421
X5.4626Y-2.5295
X5.4626Y-4.2028
X5.4724Y-2.8445
X5.4823Y-3.8091
X5.4823Y-4.5177
X5.4823Y-4.5571
X5.4852Y-5.0148
X5.502Y-2.9134
X5.502Y-2.9724
X5.502Y-3.9469
X5.5039Y-3.0276
X5.5055Y-3.7508
X5.5059Y-3.2677
X5.5252Y-3.4087
X5.5512Y-3.8583
X5.5643Y-3.4133
X5.5896Y-2.9823
X5.626Y-3.3622
X5.6299Y-4.0748
X5.6398Y-3.1496
X5.6693Y-2.4311
X5.6772Y-3.4724
X5.7283Y-3.8189
X5.7677Y-3.8484
X5.7776Y-5.0394
X5.7795Y-2.4449
X5.7972Y-2.9921
X5.8169Y-4.6654
X5.8268Y-2.5197
X5.8268Y-3.0276
X5.8504Y-3.3583
X5.9311Y-4.8031
X5.935Y-3.8386
X5.9606Y-3.3583
X5.9843Y-2.4409
X6.0236Y-3.3012
X6.0433Y-4.9016
X6.0531Y-3.8681
X6.1024Y-3.8681
X6.1122Y-4.1142
X6.1654Y-2.2795
X6.1909Y-3.4154
X6.2008Y-3.9764
X6.2008Y-4.7933
X6.2303Y-3.4154
X6.2402Y-3.8681
X6.2402Y-4.7933
X6.2894Y-3.2776
X6.2992Y-2.9331
X6.2992Y-2.9724
X6.2992Y-3.0118
X6.3091Y-2.6772
X6.3091Y-2.7165
X6.3091Y-2.7559
X6.3287Y-3.3661
X6.3386Y-2.9331
X6.3386Y-2.9724
X6.3386Y-3.0118
X6.3386Y-3.6319
X6.3484Y-2.6772
X6.3484Y-2.7165
X6.3484Y-2.7559
X6.3691Y-3.5541
X6.437Y-2.0374
X6.4567Y-4.3799
X6.4665Y-3.6319
X6.4665Y-4.1535
X6.4764Y-3.2382
X6.4764Y-4.8524
X6.4961Y-1.9882
X6.4961Y-4.6457
X6.5059Y-3.7598
X6.5059Y-3.7992
X6.5059Y-3.8386
X6.5059Y-3.878
X6.5059Y-3.9173
X6.5157Y-4.8524
X6.5354Y-1.9488
X6.5516Y-4.7441
X6.5932Y-3.5518
X6.6339Y-4.8327
X6.6607Y-3.565
X6.6634Y-1.7126
X6.6634Y-1.752
X6.6634Y-1.7913
X6.6634Y-1.8307
X6.6634Y-1.8701
X6.6732Y-3.1102
X6.6831Y-2.5
X6.6831Y-2.8445
X6.688Y-3.4301
X6.6929Y-4.4685
X6.7028Y-1.8701
X6.7028Y-2.8937
X6.7028Y-4.124
X6.7126Y-4.5276
X6.7323Y-4.9705
X6.7717Y-1.9793
X6.7993Y-3.3661
X6.8307Y-5.2362
X6.8425Y-3.374
X6.8701Y-2.2835
X6.9094Y-5.0295
X6.9291Y-4.6358
X6.9488Y-2.2835
X6.9646Y-3.3898
X6.9685Y-3.937
X6.9783Y-2.6181
X6.9882Y-2.1752
X6.9882Y-4.2618
X6.9882Y-5.0886
X7.0039Y-3.2835
X7.0079Y-3.3661
X7.0276Y-3.6309
X7.0472Y-4.0846
X7.0512Y-3.378
X7.0571Y-2.4902
X7.0571Y-3.0118
X7.0571Y-4.6654
X7.1161Y-1.9291
X7.1457Y-5.0394
X7.1555Y-1.9291
X7.1752Y-3.0118
X7.1768Y-4.7819
X7.1949Y-1.9291
X7.1949Y-2.1752
X7.2343Y-1.9291
X7.2835Y-3.3071
X7.3228Y-1.8504
X7.3327Y-3.6319
X7.3425Y-3.563
X7.3622Y-1.8504
X7.3622Y-1.9685
X7.3622Y-3.1496
X7.372Y-4.813
X7.372Y-4.8524
X7.372Y-4.8917
X7.4114Y-2.2736
X7.4213Y-3.1496
X7.4409Y-3.937
X7.4508Y-2.7264
X7.4803Y-3.189
X7.5448Y-3.1245
X7.5591Y-3.1791
X7.5689Y-4.5079
X7.5787Y-4.2717
X7.628Y-2.4311
X7.628Y-2.9724
X7.6575Y-2.0079
X7.6575Y-3.8681
X7.6673Y-4.9409
X7.6772Y-3.1667
X7.6772Y-3.248
X7.6772Y-3.2874
X7.7165Y-3.248
X7.7165Y-3.2874
X7.7559Y-3.248
X7.7559Y-3.2874
X7.7657Y-2.9921
X7.7756Y-2.8543
X7.8012Y-2.4016
X7.8074Y-2.8854
X7.815Y-3.1496
X7.8248Y-2.1457
X7.8248Y-3.0217
X7.8543Y-2.687
X7.8642Y-1.9291
X7.8937Y-2.687
X7.9331Y-2.687
X7.9724Y-2.9921
X7.9724Y-3.8189
X7.9724Y-4.0551
X7.9724Y-4.5276
X7.9724Y-4.8228
X7.9921Y-2.0276
T2
X7.8937Y-2.7953
X7.8937Y-2.8953
X7.8937Y-2.9953
X7.8937Y-3.0953
X7.8937Y-3.1953
X7.8937Y-3.2953
X3.9173Y-2.6929
X4.1142Y-2.6929
X7.8937Y-4.5866
X7.8937Y-4.6866
X7.8937Y-4.7866
X7.8937Y-4.8866
X7.8937Y-4.9866
X7.8937Y-5.0866
X7.8937Y-2.0866
X7.8937Y-2.1866
X7.8937Y-2.2866
X7.8937Y-2.3866
X7.8937Y-2.4866
X7.8937Y-2.5866
X4.3898Y-2.6929
X4.5866Y-2.6929
X3.4449Y-2.6929
X3.6417Y-2.6929
X3.0496Y-2.1417
X3.0496Y-2.2417
X3.0496Y-2.3417
X3.0496Y-2.4417
X3.0496Y-2.5417
X3.0496Y-2.6417
X3.0496Y-2.7417
X3.0496Y-2.8417
X3.0496Y-2.9417
X3.0496Y-3.0417
X3.0496Y-3.1417
X3.0496Y-3.2417
X3.0496Y-3.3417
X3.0496Y-3.4417
X3.0496Y-3.5417
X3.0496Y-3.6417
X3.0496Y-3.7417
X3.0496Y-3.8417
X3.0496Y-3.9417
X3.0496Y-4.0417
X3.1496Y-2.1417
X3.1496Y-2.2417
X3.1496Y-2.3417
X3.1496Y-2.4417
X3.1496Y-2.5417
X3.1496Y-2.6417
X3.1496Y-2.7417
X3.1496Y-2.8417
X3.1496Y-2.9417
X3.1496Y-3.0417
X3.1496Y-3.1417
X3.1496Y-3.2417
X3.1496Y-3.3417
X3.1496Y-3.4417
X3.1496Y-3.5417
X3.1496Y-3.6417
X3.1496Y-3.7417
X3.1496Y-3.8417
X3.1496Y-3.9417
X3.1496Y-4.0417
X7.8937Y-3.878
X7.8937Y-3.978
X7.8937Y-4.078
X7.8937Y-4.178
X7.8937Y-4.278
X7.8937Y-4.378
X4.0354Y-3.126
X4.2323Y-3.126
T3
X6.6457Y-3.7508
X6.6457Y-5.1508
X6.7457Y-3.7508
X6.7457Y-5.1508
X6.8457Y-3.7508
X6.8457Y-5.1508
X6.9457Y-3.7508
X6.9457Y-5.1508
X7.0457Y-3.7508
X7.0457Y-5.1508
X7.1457Y-3.7508
X7.1457Y-5.1508
X7.2457Y-3.7508
X7.2457Y-5.1508
X7.3457Y-3.7508
X7.3457Y-5.1508
X7.4457Y-5.1508
X7.5457Y-5.1508
X6.6457Y-2.0972
X6.6457Y-3.4972
X6.7457Y-2.0972
X6.7457Y-3.4972
X6.8457Y-2.0972
X6.8457Y-3.4972
X6.9457Y-2.0972
X6.9457Y-3.4972
X7.0457Y-2.0972
X7.0457Y-3.4972
X7.1457Y-2.0972
X7.1457Y-3.4972
X7.2457Y-2.0972
X7.2457Y-3.4972
X7.3457Y-2.0972
X7.3457Y-3.4972
X7.4457Y-3.4972
X7.5457Y-3.4972
X3.6394Y-1.8146
X3.6394Y-1.9146
X3.6394Y-2.0146
X3.6394Y-2.1146
X3.9394Y-1.6146
X4.0394Y-1.6146
X4.1394Y-1.6146
X4.2394Y-1.6146
X4.8394Y-1.8146
X4.8394Y-1.9146
X4.8394Y-2.0146
X4.8394Y-2.1146
X5.4252Y-2.1169
X5.4252Y-3.5169
X5.5252Y-2.1169
X5.5252Y-3.5169
X5.6252Y-2.1169
X5.6252Y-3.5169
X5.7252Y-2.1169
X5.7252Y-3.5169
X5.8252Y-2.1169
X5.8252Y-3.5169
X5.9252Y-2.1169
X5.9252Y-3.5169
X6.0252Y-2.1169
X6.0252Y-3.5169
X6.1252Y-2.1169
X6.1252Y-3.5169
X6.2252Y-3.5169
X6.3252Y-3.5169
X4.2654Y-4.4055
X4.3654Y-4.4055
X4.4654Y-4.4055
X4.5654Y-4.4055
X4.6654Y-4.4055
X5.4055Y-3.7508
X5.4055Y-5.1508
X5.5055Y-3.7508
X5.5055Y-5.1508
X5.6055Y-3.7508
X5.6055Y-5.1508
X5.7055Y-3.7508
X5.7055Y-5.1508
X5.8055Y-3.7508
X5.8055Y-5.1508
X5.9055Y-3.7508
X5.9055Y-5.1508
X6.0055Y-3.7508
X6.0055Y-5.1508
X6.1055Y-3.7508
X6.1055Y-5.1508
X6.2055Y-5.1508
X6.3055Y-5.1508
T4
X6.7657Y-1.7579
X6.8657Y-1.7579
X3.4598Y-3.8776
X3.4598Y-3.9776
X3.4598Y-4.0776
X3.4598Y-4.1776
X3.4598Y-4.2776
X3.4598Y-4.3776
X3.4598Y-4.4776
X3.4598Y-4.5776
X3.4598Y-4.6776
X3.4598Y-4.7776
X3.4598Y-4.8776
X3.4598Y-4.9776
X3.4598Y-5.0776
X3.4598Y-5.1776
X3.5598Y-3.8776
X3.5598Y-5.0776
X3.6598Y-3.8776
X3.7598Y-3.8776
X3.8598Y-3.8776
X3.9598Y-3.8776
X4.0598Y-3.8776
X4.0598Y-3.9776
X4.0598Y-4.0776
X4.0598Y-4.1776
X4.0598Y-4.2776
X4.0598Y-4.3776
X4.0598Y-4.4776
X4.0598Y-4.5776
X4.0598Y-4.6776
X4.0598Y-4.7776
X4.0598Y-4.8776
X4.0598Y-4.9776
X4.0598Y-5.0776
X4.0598Y-5.1776
X7.0437Y-1.7579
X7.1437Y-1.7579
X7.3169Y-1.7579
X7.4169Y-1.7579
X4.2685Y-4.5622
X4.2685Y-5.1622
X4.3685Y-4.5622
X4.3685Y-5.1622
X4.4685Y-4.5622
X4.4685Y-5.1622
X4.5685Y-4.5622
X4.5685Y-5.1622
X4.6685Y-4.5622
X4.6685Y-5.1622
T5
X4.252Y-3.9764
T6
X8.2874Y-2.8394
X8.2874Y-3.0394
X8.2874Y-4.6386
X8.2874Y-4.8386
X8.2874Y-2.1346
X8.2874Y-2.3346
X8.2874Y-3.9272
X8.2874Y-4.1272
T7
X5.4252Y-3.3669
X6.3252Y-2.1669
X5.4055Y-5.0008
X6.3055Y-3.8008
X6.6457Y-5.0008
X7.5457Y-3.8008
X6.6457Y-3.3472
X7.5457Y-2.1472
T8
X3.5394Y-1.6646
X3.5394Y-2.2646
X4.9394Y-1.6646
X4.9394Y-2.2646
X4.6154Y-5.0555
T9
X6.1339Y-1.748
X6.4173Y-1.748
T10
X8.3465Y-1.6339
X2.9528Y-1.6339
X2.9528Y-5.2559
X8.3465Y-5.2559
T0
M30
