G04 #@! TF.GenerationSoftware,KiCad,Pcbnew,5.1.5*
G04 #@! TF.CreationDate,2019-12-18T01:23:40-06:00*
G04 #@! TF.ProjectId,TurtlebotController,54757274-6c65-4626-9f74-436f6e74726f,rev?*
G04 #@! TF.SameCoordinates,Original*
G04 #@! TF.FileFunction,Legend,Top*
G04 #@! TF.FilePolarity,Positive*
%FSLAX46Y46*%
G04 Gerber Fmt 4.6, Leading zero omitted, Abs format (unit mm)*
G04 Created by KiCad (PCBNEW 5.1.5) date 2019-12-18 01:23:40*
%MOMM*%
%LPD*%
G04 APERTURE LIST*
%ADD10C,0.150000*%
%ADD11C,0.050000*%
%ADD12C,0.120000*%
%ADD13C,0.100000*%
G04 APERTURE END LIST*
D10*
X133380952Y-62452380D02*
X133380952Y-63166666D01*
X133333333Y-63309523D01*
X133238095Y-63404761D01*
X133095238Y-63452380D01*
X133000000Y-63452380D01*
X134333333Y-63452380D02*
X133857142Y-63452380D01*
X133857142Y-62452380D01*
X135238095Y-63357142D02*
X135190476Y-63404761D01*
X135047619Y-63452380D01*
X134952380Y-63452380D01*
X134809523Y-63404761D01*
X134714285Y-63309523D01*
X134666666Y-63214285D01*
X134619047Y-63023809D01*
X134619047Y-62880952D01*
X134666666Y-62690476D01*
X134714285Y-62595238D01*
X134809523Y-62500000D01*
X134952380Y-62452380D01*
X135047619Y-62452380D01*
X135190476Y-62500000D01*
X135238095Y-62547619D01*
X135952380Y-62452380D02*
X135952380Y-63166666D01*
X135904761Y-63309523D01*
X135809523Y-63404761D01*
X135666666Y-63452380D01*
X135571428Y-63452380D01*
X136904761Y-63452380D02*
X136428571Y-63452380D01*
X136428571Y-62452380D01*
X137809523Y-63357142D02*
X137761904Y-63404761D01*
X137619047Y-63452380D01*
X137523809Y-63452380D01*
X137380952Y-63404761D01*
X137285714Y-63309523D01*
X137238095Y-63214285D01*
X137190476Y-63023809D01*
X137190476Y-62880952D01*
X137238095Y-62690476D01*
X137285714Y-62595238D01*
X137380952Y-62500000D01*
X137523809Y-62452380D01*
X137619047Y-62452380D01*
X137761904Y-62500000D01*
X137809523Y-62547619D01*
X138523809Y-62452380D02*
X138523809Y-63166666D01*
X138476190Y-63309523D01*
X138380952Y-63404761D01*
X138238095Y-63452380D01*
X138142857Y-63452380D01*
X139476190Y-63452380D02*
X139000000Y-63452380D01*
X139000000Y-62452380D01*
X140380952Y-63357142D02*
X140333333Y-63404761D01*
X140190476Y-63452380D01*
X140095238Y-63452380D01*
X139952380Y-63404761D01*
X139857142Y-63309523D01*
X139809523Y-63214285D01*
X139761904Y-63023809D01*
X139761904Y-62880952D01*
X139809523Y-62690476D01*
X139857142Y-62595238D01*
X139952380Y-62500000D01*
X140095238Y-62452380D01*
X140190476Y-62452380D01*
X140333333Y-62500000D01*
X140380952Y-62547619D01*
X141095238Y-62452380D02*
X141095238Y-63166666D01*
X141047619Y-63309523D01*
X140952380Y-63404761D01*
X140809523Y-63452380D01*
X140714285Y-63452380D01*
X142047619Y-63452380D02*
X141571428Y-63452380D01*
X141571428Y-62452380D01*
X142952380Y-63357142D02*
X142904761Y-63404761D01*
X142761904Y-63452380D01*
X142666666Y-63452380D01*
X142523809Y-63404761D01*
X142428571Y-63309523D01*
X142380952Y-63214285D01*
X142333333Y-63023809D01*
X142333333Y-62880952D01*
X142380952Y-62690476D01*
X142428571Y-62595238D01*
X142523809Y-62500000D01*
X142666666Y-62452380D01*
X142761904Y-62452380D01*
X142904761Y-62500000D01*
X142952380Y-62547619D01*
X165238095Y-109928571D02*
X166000000Y-109928571D01*
X168000000Y-109928571D02*
X168761904Y-109928571D01*
X168380952Y-109547619D02*
X168380952Y-110309523D01*
X158238095Y-109928571D02*
X159000000Y-109928571D01*
X161000000Y-109928571D02*
X161761904Y-109928571D01*
X161380952Y-109547619D02*
X161380952Y-110309523D01*
X151238095Y-109928571D02*
X152000000Y-109928571D01*
X154000000Y-109928571D02*
X154761904Y-109928571D01*
X154380952Y-109547619D02*
X154380952Y-110309523D01*
D11*
X174500000Y-118400000D02*
X78500000Y-118400000D01*
X181500000Y-45400000D02*
X181500000Y-111400000D01*
X78500000Y-38400000D02*
X174500000Y-38400000D01*
X71500000Y-111400000D02*
X71500000Y-45400000D01*
X181500000Y-111400000D02*
G75*
G02X174500000Y-118400000I-7000000J0D01*
G01*
X174500000Y-38400000D02*
G75*
G02X181500000Y-45400000I0J-7000000D01*
G01*
X78500000Y-118400000D02*
G75*
G02X71500000Y-111400000I0J7000000D01*
G01*
X71500000Y-45400000D02*
G75*
G02X78500000Y-38400000I7000000J0D01*
G01*
D12*
X167250000Y-40250000D02*
X154400000Y-40250000D01*
X151550000Y-42800000D02*
X151550000Y-45950000D01*
X154400000Y-48550000D02*
X167250000Y-48550000D01*
X167250000Y-48550000D02*
X167250000Y-40250000D01*
X154400000Y-40250000D02*
X151550000Y-42800000D01*
X151550000Y-45950000D02*
X154400000Y-48550000D01*
X110646267Y-92840000D02*
X110303733Y-92840000D01*
X110646267Y-93860000D02*
X110303733Y-93860000D01*
X110671267Y-95660000D02*
X110328733Y-95660000D01*
X110671267Y-94640000D02*
X110328733Y-94640000D01*
X134828733Y-48690000D02*
X135171267Y-48690000D01*
X134828733Y-49710000D02*
X135171267Y-49710000D01*
X95120000Y-68400000D02*
G75*
G03X95120000Y-68400000I-5120000J0D01*
G01*
X90000000Y-73480000D02*
X90000000Y-63320000D01*
X89960000Y-73480000D02*
X89960000Y-63320000D01*
X89920000Y-73480000D02*
X89920000Y-63320000D01*
X89880000Y-73479000D02*
X89880000Y-63321000D01*
X89840000Y-73478000D02*
X89840000Y-63322000D01*
X89800000Y-73477000D02*
X89800000Y-63323000D01*
X89760000Y-73475000D02*
X89760000Y-63325000D01*
X89720000Y-73473000D02*
X89720000Y-63327000D01*
X89680000Y-73470000D02*
X89680000Y-63330000D01*
X89640000Y-73468000D02*
X89640000Y-63332000D01*
X89600000Y-73465000D02*
X89600000Y-63335000D01*
X89560000Y-73462000D02*
X89560000Y-63338000D01*
X89520000Y-73458000D02*
X89520000Y-63342000D01*
X89480000Y-73454000D02*
X89480000Y-63346000D01*
X89440000Y-73450000D02*
X89440000Y-63350000D01*
X89400000Y-73445000D02*
X89400000Y-63355000D01*
X89360000Y-73440000D02*
X89360000Y-63360000D01*
X89320000Y-73435000D02*
X89320000Y-63365000D01*
X89279000Y-73430000D02*
X89279000Y-63370000D01*
X89239000Y-73424000D02*
X89239000Y-63376000D01*
X89199000Y-73418000D02*
X89199000Y-63382000D01*
X89159000Y-73411000D02*
X89159000Y-63389000D01*
X89119000Y-73404000D02*
X89119000Y-63396000D01*
X89079000Y-73397000D02*
X89079000Y-63403000D01*
X89039000Y-73390000D02*
X89039000Y-63410000D01*
X88999000Y-73382000D02*
X88999000Y-63418000D01*
X88959000Y-73374000D02*
X88959000Y-63426000D01*
X88919000Y-73365000D02*
X88919000Y-63435000D01*
X88879000Y-73356000D02*
X88879000Y-63444000D01*
X88839000Y-73347000D02*
X88839000Y-63453000D01*
X88799000Y-73338000D02*
X88799000Y-63462000D01*
X88759000Y-73328000D02*
X88759000Y-63472000D01*
X88719000Y-73318000D02*
X88719000Y-69641000D01*
X88719000Y-67159000D02*
X88719000Y-63482000D01*
X88679000Y-73307000D02*
X88679000Y-69641000D01*
X88679000Y-67159000D02*
X88679000Y-63493000D01*
X88639000Y-73297000D02*
X88639000Y-69641000D01*
X88639000Y-67159000D02*
X88639000Y-63503000D01*
X88599000Y-73285000D02*
X88599000Y-69641000D01*
X88599000Y-67159000D02*
X88599000Y-63515000D01*
X88559000Y-73274000D02*
X88559000Y-69641000D01*
X88559000Y-67159000D02*
X88559000Y-63526000D01*
X88519000Y-73262000D02*
X88519000Y-69641000D01*
X88519000Y-67159000D02*
X88519000Y-63538000D01*
X88479000Y-73250000D02*
X88479000Y-69641000D01*
X88479000Y-67159000D02*
X88479000Y-63550000D01*
X88439000Y-73237000D02*
X88439000Y-69641000D01*
X88439000Y-67159000D02*
X88439000Y-63563000D01*
X88399000Y-73224000D02*
X88399000Y-69641000D01*
X88399000Y-67159000D02*
X88399000Y-63576000D01*
X88359000Y-73211000D02*
X88359000Y-69641000D01*
X88359000Y-67159000D02*
X88359000Y-63589000D01*
X88319000Y-73197000D02*
X88319000Y-69641000D01*
X88319000Y-67159000D02*
X88319000Y-63603000D01*
X88279000Y-73183000D02*
X88279000Y-69641000D01*
X88279000Y-67159000D02*
X88279000Y-63617000D01*
X88239000Y-73168000D02*
X88239000Y-69641000D01*
X88239000Y-67159000D02*
X88239000Y-63632000D01*
X88199000Y-73154000D02*
X88199000Y-69641000D01*
X88199000Y-67159000D02*
X88199000Y-63646000D01*
X88159000Y-73138000D02*
X88159000Y-69641000D01*
X88159000Y-67159000D02*
X88159000Y-63662000D01*
X88119000Y-73123000D02*
X88119000Y-69641000D01*
X88119000Y-67159000D02*
X88119000Y-63677000D01*
X88079000Y-73107000D02*
X88079000Y-69641000D01*
X88079000Y-67159000D02*
X88079000Y-63693000D01*
X88039000Y-73090000D02*
X88039000Y-69641000D01*
X88039000Y-67159000D02*
X88039000Y-63710000D01*
X87999000Y-73074000D02*
X87999000Y-69641000D01*
X87999000Y-67159000D02*
X87999000Y-63726000D01*
X87959000Y-73057000D02*
X87959000Y-69641000D01*
X87959000Y-67159000D02*
X87959000Y-63743000D01*
X87919000Y-73039000D02*
X87919000Y-69641000D01*
X87919000Y-67159000D02*
X87919000Y-63761000D01*
X87879000Y-73021000D02*
X87879000Y-69641000D01*
X87879000Y-67159000D02*
X87879000Y-63779000D01*
X87839000Y-73003000D02*
X87839000Y-69641000D01*
X87839000Y-67159000D02*
X87839000Y-63797000D01*
X87799000Y-72984000D02*
X87799000Y-69641000D01*
X87799000Y-67159000D02*
X87799000Y-63816000D01*
X87759000Y-72964000D02*
X87759000Y-69641000D01*
X87759000Y-67159000D02*
X87759000Y-63836000D01*
X87719000Y-72945000D02*
X87719000Y-69641000D01*
X87719000Y-67159000D02*
X87719000Y-63855000D01*
X87679000Y-72925000D02*
X87679000Y-69641000D01*
X87679000Y-67159000D02*
X87679000Y-63875000D01*
X87639000Y-72904000D02*
X87639000Y-69641000D01*
X87639000Y-67159000D02*
X87639000Y-63896000D01*
X87599000Y-72883000D02*
X87599000Y-69641000D01*
X87599000Y-67159000D02*
X87599000Y-63917000D01*
X87559000Y-72862000D02*
X87559000Y-69641000D01*
X87559000Y-67159000D02*
X87559000Y-63938000D01*
X87519000Y-72840000D02*
X87519000Y-69641000D01*
X87519000Y-67159000D02*
X87519000Y-63960000D01*
X87479000Y-72817000D02*
X87479000Y-69641000D01*
X87479000Y-67159000D02*
X87479000Y-63983000D01*
X87439000Y-72795000D02*
X87439000Y-69641000D01*
X87439000Y-67159000D02*
X87439000Y-64005000D01*
X87399000Y-72771000D02*
X87399000Y-69641000D01*
X87399000Y-67159000D02*
X87399000Y-64029000D01*
X87359000Y-72747000D02*
X87359000Y-69641000D01*
X87359000Y-67159000D02*
X87359000Y-64053000D01*
X87319000Y-72723000D02*
X87319000Y-69641000D01*
X87319000Y-67159000D02*
X87319000Y-64077000D01*
X87279000Y-72698000D02*
X87279000Y-69641000D01*
X87279000Y-67159000D02*
X87279000Y-64102000D01*
X87239000Y-72673000D02*
X87239000Y-69641000D01*
X87239000Y-67159000D02*
X87239000Y-64127000D01*
X87199000Y-72647000D02*
X87199000Y-69641000D01*
X87199000Y-67159000D02*
X87199000Y-64153000D01*
X87159000Y-72621000D02*
X87159000Y-69641000D01*
X87159000Y-67159000D02*
X87159000Y-64179000D01*
X87119000Y-72594000D02*
X87119000Y-69641000D01*
X87119000Y-67159000D02*
X87119000Y-64206000D01*
X87079000Y-72566000D02*
X87079000Y-69641000D01*
X87079000Y-67159000D02*
X87079000Y-64234000D01*
X87039000Y-72538000D02*
X87039000Y-69641000D01*
X87039000Y-67159000D02*
X87039000Y-64262000D01*
X86999000Y-72510000D02*
X86999000Y-69641000D01*
X86999000Y-67159000D02*
X86999000Y-64290000D01*
X86959000Y-72480000D02*
X86959000Y-69641000D01*
X86959000Y-67159000D02*
X86959000Y-64320000D01*
X86919000Y-72450000D02*
X86919000Y-69641000D01*
X86919000Y-67159000D02*
X86919000Y-64350000D01*
X86879000Y-72420000D02*
X86879000Y-69641000D01*
X86879000Y-67159000D02*
X86879000Y-64380000D01*
X86839000Y-72389000D02*
X86839000Y-69641000D01*
X86839000Y-67159000D02*
X86839000Y-64411000D01*
X86799000Y-72357000D02*
X86799000Y-69641000D01*
X86799000Y-67159000D02*
X86799000Y-64443000D01*
X86759000Y-72325000D02*
X86759000Y-69641000D01*
X86759000Y-67159000D02*
X86759000Y-64475000D01*
X86719000Y-72292000D02*
X86719000Y-69641000D01*
X86719000Y-67159000D02*
X86719000Y-64508000D01*
X86679000Y-72258000D02*
X86679000Y-69641000D01*
X86679000Y-67159000D02*
X86679000Y-64542000D01*
X86639000Y-72224000D02*
X86639000Y-69641000D01*
X86639000Y-67159000D02*
X86639000Y-64576000D01*
X86599000Y-72189000D02*
X86599000Y-69641000D01*
X86599000Y-67159000D02*
X86599000Y-64611000D01*
X86559000Y-72153000D02*
X86559000Y-69641000D01*
X86559000Y-67159000D02*
X86559000Y-64647000D01*
X86519000Y-72116000D02*
X86519000Y-69641000D01*
X86519000Y-67159000D02*
X86519000Y-64684000D01*
X86479000Y-72079000D02*
X86479000Y-69641000D01*
X86479000Y-67159000D02*
X86479000Y-64721000D01*
X86439000Y-72040000D02*
X86439000Y-69641000D01*
X86439000Y-67159000D02*
X86439000Y-64760000D01*
X86399000Y-72001000D02*
X86399000Y-69641000D01*
X86399000Y-67159000D02*
X86399000Y-64799000D01*
X86359000Y-71961000D02*
X86359000Y-69641000D01*
X86359000Y-67159000D02*
X86359000Y-64839000D01*
X86319000Y-71920000D02*
X86319000Y-69641000D01*
X86319000Y-67159000D02*
X86319000Y-64880000D01*
X86279000Y-71878000D02*
X86279000Y-69641000D01*
X86279000Y-67159000D02*
X86279000Y-64922000D01*
X86239000Y-71836000D02*
X86239000Y-64964000D01*
X86199000Y-71792000D02*
X86199000Y-65008000D01*
X86159000Y-71747000D02*
X86159000Y-65053000D01*
X86119000Y-71701000D02*
X86119000Y-65099000D01*
X86079000Y-71654000D02*
X86079000Y-65146000D01*
X86039000Y-71606000D02*
X86039000Y-65194000D01*
X85999000Y-71556000D02*
X85999000Y-65244000D01*
X85959000Y-71506000D02*
X85959000Y-65294000D01*
X85919000Y-71454000D02*
X85919000Y-65346000D01*
X85879000Y-71400000D02*
X85879000Y-65400000D01*
X85839000Y-71345000D02*
X85839000Y-65455000D01*
X85799000Y-71289000D02*
X85799000Y-65511000D01*
X85759000Y-71230000D02*
X85759000Y-65570000D01*
X85719000Y-71170000D02*
X85719000Y-65630000D01*
X85679000Y-71109000D02*
X85679000Y-65691000D01*
X85639000Y-71045000D02*
X85639000Y-65755000D01*
X85599000Y-70979000D02*
X85599000Y-65821000D01*
X85559000Y-70910000D02*
X85559000Y-65890000D01*
X85519000Y-70839000D02*
X85519000Y-65961000D01*
X85479000Y-70765000D02*
X85479000Y-66035000D01*
X85439000Y-70689000D02*
X85439000Y-66111000D01*
X85399000Y-70609000D02*
X85399000Y-66191000D01*
X85359000Y-70525000D02*
X85359000Y-66275000D01*
X85319000Y-70437000D02*
X85319000Y-66363000D01*
X85279000Y-70344000D02*
X85279000Y-66456000D01*
X85239000Y-70246000D02*
X85239000Y-66554000D01*
X85199000Y-70142000D02*
X85199000Y-66658000D01*
X85159000Y-70030000D02*
X85159000Y-66770000D01*
X85119000Y-69910000D02*
X85119000Y-66890000D01*
X85079000Y-69778000D02*
X85079000Y-67022000D01*
X85039000Y-69630000D02*
X85039000Y-67170000D01*
X84999000Y-69462000D02*
X84999000Y-67338000D01*
X84959000Y-69262000D02*
X84959000Y-67538000D01*
X84919000Y-68999000D02*
X84919000Y-67801000D01*
X95479646Y-71275000D02*
X94479646Y-71275000D01*
X94979646Y-71775000D02*
X94979646Y-70775000D01*
X97020354Y-65025000D02*
X97020354Y-66025000D01*
X96520354Y-65525000D02*
X97520354Y-65525000D01*
X107081000Y-67801000D02*
X107081000Y-68999000D01*
X107041000Y-67538000D02*
X107041000Y-69262000D01*
X107001000Y-67338000D02*
X107001000Y-69462000D01*
X106961000Y-67170000D02*
X106961000Y-69630000D01*
X106921000Y-67022000D02*
X106921000Y-69778000D01*
X106881000Y-66890000D02*
X106881000Y-69910000D01*
X106841000Y-66770000D02*
X106841000Y-70030000D01*
X106801000Y-66658000D02*
X106801000Y-70142000D01*
X106761000Y-66554000D02*
X106761000Y-70246000D01*
X106721000Y-66456000D02*
X106721000Y-70344000D01*
X106681000Y-66363000D02*
X106681000Y-70437000D01*
X106641000Y-66275000D02*
X106641000Y-70525000D01*
X106601000Y-66191000D02*
X106601000Y-70609000D01*
X106561000Y-66111000D02*
X106561000Y-70689000D01*
X106521000Y-66035000D02*
X106521000Y-70765000D01*
X106481000Y-65961000D02*
X106481000Y-70839000D01*
X106441000Y-65890000D02*
X106441000Y-70910000D01*
X106401000Y-65821000D02*
X106401000Y-70979000D01*
X106361000Y-65755000D02*
X106361000Y-71045000D01*
X106321000Y-65691000D02*
X106321000Y-71109000D01*
X106281000Y-65630000D02*
X106281000Y-71170000D01*
X106241000Y-65570000D02*
X106241000Y-71230000D01*
X106201000Y-65511000D02*
X106201000Y-71289000D01*
X106161000Y-65455000D02*
X106161000Y-71345000D01*
X106121000Y-65400000D02*
X106121000Y-71400000D01*
X106081000Y-65346000D02*
X106081000Y-71454000D01*
X106041000Y-65294000D02*
X106041000Y-71506000D01*
X106001000Y-65244000D02*
X106001000Y-71556000D01*
X105961000Y-65194000D02*
X105961000Y-71606000D01*
X105921000Y-65146000D02*
X105921000Y-71654000D01*
X105881000Y-65099000D02*
X105881000Y-71701000D01*
X105841000Y-65053000D02*
X105841000Y-71747000D01*
X105801000Y-65008000D02*
X105801000Y-71792000D01*
X105761000Y-64964000D02*
X105761000Y-71836000D01*
X105721000Y-69641000D02*
X105721000Y-71878000D01*
X105721000Y-64922000D02*
X105721000Y-67159000D01*
X105681000Y-69641000D02*
X105681000Y-71920000D01*
X105681000Y-64880000D02*
X105681000Y-67159000D01*
X105641000Y-69641000D02*
X105641000Y-71961000D01*
X105641000Y-64839000D02*
X105641000Y-67159000D01*
X105601000Y-69641000D02*
X105601000Y-72001000D01*
X105601000Y-64799000D02*
X105601000Y-67159000D01*
X105561000Y-69641000D02*
X105561000Y-72040000D01*
X105561000Y-64760000D02*
X105561000Y-67159000D01*
X105521000Y-69641000D02*
X105521000Y-72079000D01*
X105521000Y-64721000D02*
X105521000Y-67159000D01*
X105481000Y-69641000D02*
X105481000Y-72116000D01*
X105481000Y-64684000D02*
X105481000Y-67159000D01*
X105441000Y-69641000D02*
X105441000Y-72153000D01*
X105441000Y-64647000D02*
X105441000Y-67159000D01*
X105401000Y-69641000D02*
X105401000Y-72189000D01*
X105401000Y-64611000D02*
X105401000Y-67159000D01*
X105361000Y-69641000D02*
X105361000Y-72224000D01*
X105361000Y-64576000D02*
X105361000Y-67159000D01*
X105321000Y-69641000D02*
X105321000Y-72258000D01*
X105321000Y-64542000D02*
X105321000Y-67159000D01*
X105281000Y-69641000D02*
X105281000Y-72292000D01*
X105281000Y-64508000D02*
X105281000Y-67159000D01*
X105241000Y-69641000D02*
X105241000Y-72325000D01*
X105241000Y-64475000D02*
X105241000Y-67159000D01*
X105201000Y-69641000D02*
X105201000Y-72357000D01*
X105201000Y-64443000D02*
X105201000Y-67159000D01*
X105161000Y-69641000D02*
X105161000Y-72389000D01*
X105161000Y-64411000D02*
X105161000Y-67159000D01*
X105121000Y-69641000D02*
X105121000Y-72420000D01*
X105121000Y-64380000D02*
X105121000Y-67159000D01*
X105081000Y-69641000D02*
X105081000Y-72450000D01*
X105081000Y-64350000D02*
X105081000Y-67159000D01*
X105041000Y-69641000D02*
X105041000Y-72480000D01*
X105041000Y-64320000D02*
X105041000Y-67159000D01*
X105001000Y-69641000D02*
X105001000Y-72510000D01*
X105001000Y-64290000D02*
X105001000Y-67159000D01*
X104961000Y-69641000D02*
X104961000Y-72538000D01*
X104961000Y-64262000D02*
X104961000Y-67159000D01*
X104921000Y-69641000D02*
X104921000Y-72566000D01*
X104921000Y-64234000D02*
X104921000Y-67159000D01*
X104881000Y-69641000D02*
X104881000Y-72594000D01*
X104881000Y-64206000D02*
X104881000Y-67159000D01*
X104841000Y-69641000D02*
X104841000Y-72621000D01*
X104841000Y-64179000D02*
X104841000Y-67159000D01*
X104801000Y-69641000D02*
X104801000Y-72647000D01*
X104801000Y-64153000D02*
X104801000Y-67159000D01*
X104761000Y-69641000D02*
X104761000Y-72673000D01*
X104761000Y-64127000D02*
X104761000Y-67159000D01*
X104721000Y-69641000D02*
X104721000Y-72698000D01*
X104721000Y-64102000D02*
X104721000Y-67159000D01*
X104681000Y-69641000D02*
X104681000Y-72723000D01*
X104681000Y-64077000D02*
X104681000Y-67159000D01*
X104641000Y-69641000D02*
X104641000Y-72747000D01*
X104641000Y-64053000D02*
X104641000Y-67159000D01*
X104601000Y-69641000D02*
X104601000Y-72771000D01*
X104601000Y-64029000D02*
X104601000Y-67159000D01*
X104561000Y-69641000D02*
X104561000Y-72795000D01*
X104561000Y-64005000D02*
X104561000Y-67159000D01*
X104521000Y-69641000D02*
X104521000Y-72817000D01*
X104521000Y-63983000D02*
X104521000Y-67159000D01*
X104481000Y-69641000D02*
X104481000Y-72840000D01*
X104481000Y-63960000D02*
X104481000Y-67159000D01*
X104441000Y-69641000D02*
X104441000Y-72862000D01*
X104441000Y-63938000D02*
X104441000Y-67159000D01*
X104401000Y-69641000D02*
X104401000Y-72883000D01*
X104401000Y-63917000D02*
X104401000Y-67159000D01*
X104361000Y-69641000D02*
X104361000Y-72904000D01*
X104361000Y-63896000D02*
X104361000Y-67159000D01*
X104321000Y-69641000D02*
X104321000Y-72925000D01*
X104321000Y-63875000D02*
X104321000Y-67159000D01*
X104281000Y-69641000D02*
X104281000Y-72945000D01*
X104281000Y-63855000D02*
X104281000Y-67159000D01*
X104241000Y-69641000D02*
X104241000Y-72964000D01*
X104241000Y-63836000D02*
X104241000Y-67159000D01*
X104201000Y-69641000D02*
X104201000Y-72984000D01*
X104201000Y-63816000D02*
X104201000Y-67159000D01*
X104161000Y-69641000D02*
X104161000Y-73003000D01*
X104161000Y-63797000D02*
X104161000Y-67159000D01*
X104121000Y-69641000D02*
X104121000Y-73021000D01*
X104121000Y-63779000D02*
X104121000Y-67159000D01*
X104081000Y-69641000D02*
X104081000Y-73039000D01*
X104081000Y-63761000D02*
X104081000Y-67159000D01*
X104041000Y-69641000D02*
X104041000Y-73057000D01*
X104041000Y-63743000D02*
X104041000Y-67159000D01*
X104001000Y-69641000D02*
X104001000Y-73074000D01*
X104001000Y-63726000D02*
X104001000Y-67159000D01*
X103961000Y-69641000D02*
X103961000Y-73090000D01*
X103961000Y-63710000D02*
X103961000Y-67159000D01*
X103921000Y-69641000D02*
X103921000Y-73107000D01*
X103921000Y-63693000D02*
X103921000Y-67159000D01*
X103881000Y-69641000D02*
X103881000Y-73123000D01*
X103881000Y-63677000D02*
X103881000Y-67159000D01*
X103841000Y-69641000D02*
X103841000Y-73138000D01*
X103841000Y-63662000D02*
X103841000Y-67159000D01*
X103801000Y-69641000D02*
X103801000Y-73154000D01*
X103801000Y-63646000D02*
X103801000Y-67159000D01*
X103761000Y-69641000D02*
X103761000Y-73168000D01*
X103761000Y-63632000D02*
X103761000Y-67159000D01*
X103721000Y-69641000D02*
X103721000Y-73183000D01*
X103721000Y-63617000D02*
X103721000Y-67159000D01*
X103681000Y-69641000D02*
X103681000Y-73197000D01*
X103681000Y-63603000D02*
X103681000Y-67159000D01*
X103641000Y-69641000D02*
X103641000Y-73211000D01*
X103641000Y-63589000D02*
X103641000Y-67159000D01*
X103601000Y-69641000D02*
X103601000Y-73224000D01*
X103601000Y-63576000D02*
X103601000Y-67159000D01*
X103561000Y-69641000D02*
X103561000Y-73237000D01*
X103561000Y-63563000D02*
X103561000Y-67159000D01*
X103521000Y-69641000D02*
X103521000Y-73250000D01*
X103521000Y-63550000D02*
X103521000Y-67159000D01*
X103481000Y-69641000D02*
X103481000Y-73262000D01*
X103481000Y-63538000D02*
X103481000Y-67159000D01*
X103441000Y-69641000D02*
X103441000Y-73274000D01*
X103441000Y-63526000D02*
X103441000Y-67159000D01*
X103401000Y-69641000D02*
X103401000Y-73285000D01*
X103401000Y-63515000D02*
X103401000Y-67159000D01*
X103361000Y-69641000D02*
X103361000Y-73297000D01*
X103361000Y-63503000D02*
X103361000Y-67159000D01*
X103321000Y-69641000D02*
X103321000Y-73307000D01*
X103321000Y-63493000D02*
X103321000Y-67159000D01*
X103281000Y-69641000D02*
X103281000Y-73318000D01*
X103281000Y-63482000D02*
X103281000Y-67159000D01*
X103241000Y-63472000D02*
X103241000Y-73328000D01*
X103201000Y-63462000D02*
X103201000Y-73338000D01*
X103161000Y-63453000D02*
X103161000Y-73347000D01*
X103121000Y-63444000D02*
X103121000Y-73356000D01*
X103081000Y-63435000D02*
X103081000Y-73365000D01*
X103041000Y-63426000D02*
X103041000Y-73374000D01*
X103001000Y-63418000D02*
X103001000Y-73382000D01*
X102961000Y-63410000D02*
X102961000Y-73390000D01*
X102921000Y-63403000D02*
X102921000Y-73397000D01*
X102881000Y-63396000D02*
X102881000Y-73404000D01*
X102841000Y-63389000D02*
X102841000Y-73411000D01*
X102801000Y-63382000D02*
X102801000Y-73418000D01*
X102761000Y-63376000D02*
X102761000Y-73424000D01*
X102721000Y-63370000D02*
X102721000Y-73430000D01*
X102680000Y-63365000D02*
X102680000Y-73435000D01*
X102640000Y-63360000D02*
X102640000Y-73440000D01*
X102600000Y-63355000D02*
X102600000Y-73445000D01*
X102560000Y-63350000D02*
X102560000Y-73450000D01*
X102520000Y-63346000D02*
X102520000Y-73454000D01*
X102480000Y-63342000D02*
X102480000Y-73458000D01*
X102440000Y-63338000D02*
X102440000Y-73462000D01*
X102400000Y-63335000D02*
X102400000Y-73465000D01*
X102360000Y-63332000D02*
X102360000Y-73468000D01*
X102320000Y-63330000D02*
X102320000Y-73470000D01*
X102280000Y-63327000D02*
X102280000Y-73473000D01*
X102240000Y-63325000D02*
X102240000Y-73475000D01*
X102200000Y-63323000D02*
X102200000Y-73477000D01*
X102160000Y-63322000D02*
X102160000Y-73478000D01*
X102120000Y-63321000D02*
X102120000Y-73479000D01*
X102080000Y-63320000D02*
X102080000Y-73480000D01*
X102040000Y-63320000D02*
X102040000Y-73480000D01*
X102000000Y-63320000D02*
X102000000Y-73480000D01*
X107120000Y-68400000D02*
G75*
G03X107120000Y-68400000I-5120000J0D01*
G01*
X119120000Y-68400000D02*
G75*
G03X119120000Y-68400000I-5120000J0D01*
G01*
X114000000Y-73480000D02*
X114000000Y-63320000D01*
X113960000Y-73480000D02*
X113960000Y-63320000D01*
X113920000Y-73480000D02*
X113920000Y-63320000D01*
X113880000Y-73479000D02*
X113880000Y-63321000D01*
X113840000Y-73478000D02*
X113840000Y-63322000D01*
X113800000Y-73477000D02*
X113800000Y-63323000D01*
X113760000Y-73475000D02*
X113760000Y-63325000D01*
X113720000Y-73473000D02*
X113720000Y-63327000D01*
X113680000Y-73470000D02*
X113680000Y-63330000D01*
X113640000Y-73468000D02*
X113640000Y-63332000D01*
X113600000Y-73465000D02*
X113600000Y-63335000D01*
X113560000Y-73462000D02*
X113560000Y-63338000D01*
X113520000Y-73458000D02*
X113520000Y-63342000D01*
X113480000Y-73454000D02*
X113480000Y-63346000D01*
X113440000Y-73450000D02*
X113440000Y-63350000D01*
X113400000Y-73445000D02*
X113400000Y-63355000D01*
X113360000Y-73440000D02*
X113360000Y-63360000D01*
X113320000Y-73435000D02*
X113320000Y-63365000D01*
X113279000Y-73430000D02*
X113279000Y-63370000D01*
X113239000Y-73424000D02*
X113239000Y-63376000D01*
X113199000Y-73418000D02*
X113199000Y-63382000D01*
X113159000Y-73411000D02*
X113159000Y-63389000D01*
X113119000Y-73404000D02*
X113119000Y-63396000D01*
X113079000Y-73397000D02*
X113079000Y-63403000D01*
X113039000Y-73390000D02*
X113039000Y-63410000D01*
X112999000Y-73382000D02*
X112999000Y-63418000D01*
X112959000Y-73374000D02*
X112959000Y-63426000D01*
X112919000Y-73365000D02*
X112919000Y-63435000D01*
X112879000Y-73356000D02*
X112879000Y-63444000D01*
X112839000Y-73347000D02*
X112839000Y-63453000D01*
X112799000Y-73338000D02*
X112799000Y-63462000D01*
X112759000Y-73328000D02*
X112759000Y-63472000D01*
X112719000Y-73318000D02*
X112719000Y-69641000D01*
X112719000Y-67159000D02*
X112719000Y-63482000D01*
X112679000Y-73307000D02*
X112679000Y-69641000D01*
X112679000Y-67159000D02*
X112679000Y-63493000D01*
X112639000Y-73297000D02*
X112639000Y-69641000D01*
X112639000Y-67159000D02*
X112639000Y-63503000D01*
X112599000Y-73285000D02*
X112599000Y-69641000D01*
X112599000Y-67159000D02*
X112599000Y-63515000D01*
X112559000Y-73274000D02*
X112559000Y-69641000D01*
X112559000Y-67159000D02*
X112559000Y-63526000D01*
X112519000Y-73262000D02*
X112519000Y-69641000D01*
X112519000Y-67159000D02*
X112519000Y-63538000D01*
X112479000Y-73250000D02*
X112479000Y-69641000D01*
X112479000Y-67159000D02*
X112479000Y-63550000D01*
X112439000Y-73237000D02*
X112439000Y-69641000D01*
X112439000Y-67159000D02*
X112439000Y-63563000D01*
X112399000Y-73224000D02*
X112399000Y-69641000D01*
X112399000Y-67159000D02*
X112399000Y-63576000D01*
X112359000Y-73211000D02*
X112359000Y-69641000D01*
X112359000Y-67159000D02*
X112359000Y-63589000D01*
X112319000Y-73197000D02*
X112319000Y-69641000D01*
X112319000Y-67159000D02*
X112319000Y-63603000D01*
X112279000Y-73183000D02*
X112279000Y-69641000D01*
X112279000Y-67159000D02*
X112279000Y-63617000D01*
X112239000Y-73168000D02*
X112239000Y-69641000D01*
X112239000Y-67159000D02*
X112239000Y-63632000D01*
X112199000Y-73154000D02*
X112199000Y-69641000D01*
X112199000Y-67159000D02*
X112199000Y-63646000D01*
X112159000Y-73138000D02*
X112159000Y-69641000D01*
X112159000Y-67159000D02*
X112159000Y-63662000D01*
X112119000Y-73123000D02*
X112119000Y-69641000D01*
X112119000Y-67159000D02*
X112119000Y-63677000D01*
X112079000Y-73107000D02*
X112079000Y-69641000D01*
X112079000Y-67159000D02*
X112079000Y-63693000D01*
X112039000Y-73090000D02*
X112039000Y-69641000D01*
X112039000Y-67159000D02*
X112039000Y-63710000D01*
X111999000Y-73074000D02*
X111999000Y-69641000D01*
X111999000Y-67159000D02*
X111999000Y-63726000D01*
X111959000Y-73057000D02*
X111959000Y-69641000D01*
X111959000Y-67159000D02*
X111959000Y-63743000D01*
X111919000Y-73039000D02*
X111919000Y-69641000D01*
X111919000Y-67159000D02*
X111919000Y-63761000D01*
X111879000Y-73021000D02*
X111879000Y-69641000D01*
X111879000Y-67159000D02*
X111879000Y-63779000D01*
X111839000Y-73003000D02*
X111839000Y-69641000D01*
X111839000Y-67159000D02*
X111839000Y-63797000D01*
X111799000Y-72984000D02*
X111799000Y-69641000D01*
X111799000Y-67159000D02*
X111799000Y-63816000D01*
X111759000Y-72964000D02*
X111759000Y-69641000D01*
X111759000Y-67159000D02*
X111759000Y-63836000D01*
X111719000Y-72945000D02*
X111719000Y-69641000D01*
X111719000Y-67159000D02*
X111719000Y-63855000D01*
X111679000Y-72925000D02*
X111679000Y-69641000D01*
X111679000Y-67159000D02*
X111679000Y-63875000D01*
X111639000Y-72904000D02*
X111639000Y-69641000D01*
X111639000Y-67159000D02*
X111639000Y-63896000D01*
X111599000Y-72883000D02*
X111599000Y-69641000D01*
X111599000Y-67159000D02*
X111599000Y-63917000D01*
X111559000Y-72862000D02*
X111559000Y-69641000D01*
X111559000Y-67159000D02*
X111559000Y-63938000D01*
X111519000Y-72840000D02*
X111519000Y-69641000D01*
X111519000Y-67159000D02*
X111519000Y-63960000D01*
X111479000Y-72817000D02*
X111479000Y-69641000D01*
X111479000Y-67159000D02*
X111479000Y-63983000D01*
X111439000Y-72795000D02*
X111439000Y-69641000D01*
X111439000Y-67159000D02*
X111439000Y-64005000D01*
X111399000Y-72771000D02*
X111399000Y-69641000D01*
X111399000Y-67159000D02*
X111399000Y-64029000D01*
X111359000Y-72747000D02*
X111359000Y-69641000D01*
X111359000Y-67159000D02*
X111359000Y-64053000D01*
X111319000Y-72723000D02*
X111319000Y-69641000D01*
X111319000Y-67159000D02*
X111319000Y-64077000D01*
X111279000Y-72698000D02*
X111279000Y-69641000D01*
X111279000Y-67159000D02*
X111279000Y-64102000D01*
X111239000Y-72673000D02*
X111239000Y-69641000D01*
X111239000Y-67159000D02*
X111239000Y-64127000D01*
X111199000Y-72647000D02*
X111199000Y-69641000D01*
X111199000Y-67159000D02*
X111199000Y-64153000D01*
X111159000Y-72621000D02*
X111159000Y-69641000D01*
X111159000Y-67159000D02*
X111159000Y-64179000D01*
X111119000Y-72594000D02*
X111119000Y-69641000D01*
X111119000Y-67159000D02*
X111119000Y-64206000D01*
X111079000Y-72566000D02*
X111079000Y-69641000D01*
X111079000Y-67159000D02*
X111079000Y-64234000D01*
X111039000Y-72538000D02*
X111039000Y-69641000D01*
X111039000Y-67159000D02*
X111039000Y-64262000D01*
X110999000Y-72510000D02*
X110999000Y-69641000D01*
X110999000Y-67159000D02*
X110999000Y-64290000D01*
X110959000Y-72480000D02*
X110959000Y-69641000D01*
X110959000Y-67159000D02*
X110959000Y-64320000D01*
X110919000Y-72450000D02*
X110919000Y-69641000D01*
X110919000Y-67159000D02*
X110919000Y-64350000D01*
X110879000Y-72420000D02*
X110879000Y-69641000D01*
X110879000Y-67159000D02*
X110879000Y-64380000D01*
X110839000Y-72389000D02*
X110839000Y-69641000D01*
X110839000Y-67159000D02*
X110839000Y-64411000D01*
X110799000Y-72357000D02*
X110799000Y-69641000D01*
X110799000Y-67159000D02*
X110799000Y-64443000D01*
X110759000Y-72325000D02*
X110759000Y-69641000D01*
X110759000Y-67159000D02*
X110759000Y-64475000D01*
X110719000Y-72292000D02*
X110719000Y-69641000D01*
X110719000Y-67159000D02*
X110719000Y-64508000D01*
X110679000Y-72258000D02*
X110679000Y-69641000D01*
X110679000Y-67159000D02*
X110679000Y-64542000D01*
X110639000Y-72224000D02*
X110639000Y-69641000D01*
X110639000Y-67159000D02*
X110639000Y-64576000D01*
X110599000Y-72189000D02*
X110599000Y-69641000D01*
X110599000Y-67159000D02*
X110599000Y-64611000D01*
X110559000Y-72153000D02*
X110559000Y-69641000D01*
X110559000Y-67159000D02*
X110559000Y-64647000D01*
X110519000Y-72116000D02*
X110519000Y-69641000D01*
X110519000Y-67159000D02*
X110519000Y-64684000D01*
X110479000Y-72079000D02*
X110479000Y-69641000D01*
X110479000Y-67159000D02*
X110479000Y-64721000D01*
X110439000Y-72040000D02*
X110439000Y-69641000D01*
X110439000Y-67159000D02*
X110439000Y-64760000D01*
X110399000Y-72001000D02*
X110399000Y-69641000D01*
X110399000Y-67159000D02*
X110399000Y-64799000D01*
X110359000Y-71961000D02*
X110359000Y-69641000D01*
X110359000Y-67159000D02*
X110359000Y-64839000D01*
X110319000Y-71920000D02*
X110319000Y-69641000D01*
X110319000Y-67159000D02*
X110319000Y-64880000D01*
X110279000Y-71878000D02*
X110279000Y-69641000D01*
X110279000Y-67159000D02*
X110279000Y-64922000D01*
X110239000Y-71836000D02*
X110239000Y-64964000D01*
X110199000Y-71792000D02*
X110199000Y-65008000D01*
X110159000Y-71747000D02*
X110159000Y-65053000D01*
X110119000Y-71701000D02*
X110119000Y-65099000D01*
X110079000Y-71654000D02*
X110079000Y-65146000D01*
X110039000Y-71606000D02*
X110039000Y-65194000D01*
X109999000Y-71556000D02*
X109999000Y-65244000D01*
X109959000Y-71506000D02*
X109959000Y-65294000D01*
X109919000Y-71454000D02*
X109919000Y-65346000D01*
X109879000Y-71400000D02*
X109879000Y-65400000D01*
X109839000Y-71345000D02*
X109839000Y-65455000D01*
X109799000Y-71289000D02*
X109799000Y-65511000D01*
X109759000Y-71230000D02*
X109759000Y-65570000D01*
X109719000Y-71170000D02*
X109719000Y-65630000D01*
X109679000Y-71109000D02*
X109679000Y-65691000D01*
X109639000Y-71045000D02*
X109639000Y-65755000D01*
X109599000Y-70979000D02*
X109599000Y-65821000D01*
X109559000Y-70910000D02*
X109559000Y-65890000D01*
X109519000Y-70839000D02*
X109519000Y-65961000D01*
X109479000Y-70765000D02*
X109479000Y-66035000D01*
X109439000Y-70689000D02*
X109439000Y-66111000D01*
X109399000Y-70609000D02*
X109399000Y-66191000D01*
X109359000Y-70525000D02*
X109359000Y-66275000D01*
X109319000Y-70437000D02*
X109319000Y-66363000D01*
X109279000Y-70344000D02*
X109279000Y-66456000D01*
X109239000Y-70246000D02*
X109239000Y-66554000D01*
X109199000Y-70142000D02*
X109199000Y-66658000D01*
X109159000Y-70030000D02*
X109159000Y-66770000D01*
X109119000Y-69910000D02*
X109119000Y-66890000D01*
X109079000Y-69778000D02*
X109079000Y-67022000D01*
X109039000Y-69630000D02*
X109039000Y-67170000D01*
X108999000Y-69462000D02*
X108999000Y-67338000D01*
X108959000Y-69262000D02*
X108959000Y-67538000D01*
X108919000Y-68999000D02*
X108919000Y-67801000D01*
X119479646Y-71275000D02*
X118479646Y-71275000D01*
X118979646Y-71775000D02*
X118979646Y-70775000D01*
X118979646Y-82775000D02*
X118979646Y-81775000D01*
X119479646Y-82275000D02*
X118479646Y-82275000D01*
X108919000Y-79999000D02*
X108919000Y-78801000D01*
X108959000Y-80262000D02*
X108959000Y-78538000D01*
X108999000Y-80462000D02*
X108999000Y-78338000D01*
X109039000Y-80630000D02*
X109039000Y-78170000D01*
X109079000Y-80778000D02*
X109079000Y-78022000D01*
X109119000Y-80910000D02*
X109119000Y-77890000D01*
X109159000Y-81030000D02*
X109159000Y-77770000D01*
X109199000Y-81142000D02*
X109199000Y-77658000D01*
X109239000Y-81246000D02*
X109239000Y-77554000D01*
X109279000Y-81344000D02*
X109279000Y-77456000D01*
X109319000Y-81437000D02*
X109319000Y-77363000D01*
X109359000Y-81525000D02*
X109359000Y-77275000D01*
X109399000Y-81609000D02*
X109399000Y-77191000D01*
X109439000Y-81689000D02*
X109439000Y-77111000D01*
X109479000Y-81765000D02*
X109479000Y-77035000D01*
X109519000Y-81839000D02*
X109519000Y-76961000D01*
X109559000Y-81910000D02*
X109559000Y-76890000D01*
X109599000Y-81979000D02*
X109599000Y-76821000D01*
X109639000Y-82045000D02*
X109639000Y-76755000D01*
X109679000Y-82109000D02*
X109679000Y-76691000D01*
X109719000Y-82170000D02*
X109719000Y-76630000D01*
X109759000Y-82230000D02*
X109759000Y-76570000D01*
X109799000Y-82289000D02*
X109799000Y-76511000D01*
X109839000Y-82345000D02*
X109839000Y-76455000D01*
X109879000Y-82400000D02*
X109879000Y-76400000D01*
X109919000Y-82454000D02*
X109919000Y-76346000D01*
X109959000Y-82506000D02*
X109959000Y-76294000D01*
X109999000Y-82556000D02*
X109999000Y-76244000D01*
X110039000Y-82606000D02*
X110039000Y-76194000D01*
X110079000Y-82654000D02*
X110079000Y-76146000D01*
X110119000Y-82701000D02*
X110119000Y-76099000D01*
X110159000Y-82747000D02*
X110159000Y-76053000D01*
X110199000Y-82792000D02*
X110199000Y-76008000D01*
X110239000Y-82836000D02*
X110239000Y-75964000D01*
X110279000Y-78159000D02*
X110279000Y-75922000D01*
X110279000Y-82878000D02*
X110279000Y-80641000D01*
X110319000Y-78159000D02*
X110319000Y-75880000D01*
X110319000Y-82920000D02*
X110319000Y-80641000D01*
X110359000Y-78159000D02*
X110359000Y-75839000D01*
X110359000Y-82961000D02*
X110359000Y-80641000D01*
X110399000Y-78159000D02*
X110399000Y-75799000D01*
X110399000Y-83001000D02*
X110399000Y-80641000D01*
X110439000Y-78159000D02*
X110439000Y-75760000D01*
X110439000Y-83040000D02*
X110439000Y-80641000D01*
X110479000Y-78159000D02*
X110479000Y-75721000D01*
X110479000Y-83079000D02*
X110479000Y-80641000D01*
X110519000Y-78159000D02*
X110519000Y-75684000D01*
X110519000Y-83116000D02*
X110519000Y-80641000D01*
X110559000Y-78159000D02*
X110559000Y-75647000D01*
X110559000Y-83153000D02*
X110559000Y-80641000D01*
X110599000Y-78159000D02*
X110599000Y-75611000D01*
X110599000Y-83189000D02*
X110599000Y-80641000D01*
X110639000Y-78159000D02*
X110639000Y-75576000D01*
X110639000Y-83224000D02*
X110639000Y-80641000D01*
X110679000Y-78159000D02*
X110679000Y-75542000D01*
X110679000Y-83258000D02*
X110679000Y-80641000D01*
X110719000Y-78159000D02*
X110719000Y-75508000D01*
X110719000Y-83292000D02*
X110719000Y-80641000D01*
X110759000Y-78159000D02*
X110759000Y-75475000D01*
X110759000Y-83325000D02*
X110759000Y-80641000D01*
X110799000Y-78159000D02*
X110799000Y-75443000D01*
X110799000Y-83357000D02*
X110799000Y-80641000D01*
X110839000Y-78159000D02*
X110839000Y-75411000D01*
X110839000Y-83389000D02*
X110839000Y-80641000D01*
X110879000Y-78159000D02*
X110879000Y-75380000D01*
X110879000Y-83420000D02*
X110879000Y-80641000D01*
X110919000Y-78159000D02*
X110919000Y-75350000D01*
X110919000Y-83450000D02*
X110919000Y-80641000D01*
X110959000Y-78159000D02*
X110959000Y-75320000D01*
X110959000Y-83480000D02*
X110959000Y-80641000D01*
X110999000Y-78159000D02*
X110999000Y-75290000D01*
X110999000Y-83510000D02*
X110999000Y-80641000D01*
X111039000Y-78159000D02*
X111039000Y-75262000D01*
X111039000Y-83538000D02*
X111039000Y-80641000D01*
X111079000Y-78159000D02*
X111079000Y-75234000D01*
X111079000Y-83566000D02*
X111079000Y-80641000D01*
X111119000Y-78159000D02*
X111119000Y-75206000D01*
X111119000Y-83594000D02*
X111119000Y-80641000D01*
X111159000Y-78159000D02*
X111159000Y-75179000D01*
X111159000Y-83621000D02*
X111159000Y-80641000D01*
X111199000Y-78159000D02*
X111199000Y-75153000D01*
X111199000Y-83647000D02*
X111199000Y-80641000D01*
X111239000Y-78159000D02*
X111239000Y-75127000D01*
X111239000Y-83673000D02*
X111239000Y-80641000D01*
X111279000Y-78159000D02*
X111279000Y-75102000D01*
X111279000Y-83698000D02*
X111279000Y-80641000D01*
X111319000Y-78159000D02*
X111319000Y-75077000D01*
X111319000Y-83723000D02*
X111319000Y-80641000D01*
X111359000Y-78159000D02*
X111359000Y-75053000D01*
X111359000Y-83747000D02*
X111359000Y-80641000D01*
X111399000Y-78159000D02*
X111399000Y-75029000D01*
X111399000Y-83771000D02*
X111399000Y-80641000D01*
X111439000Y-78159000D02*
X111439000Y-75005000D01*
X111439000Y-83795000D02*
X111439000Y-80641000D01*
X111479000Y-78159000D02*
X111479000Y-74983000D01*
X111479000Y-83817000D02*
X111479000Y-80641000D01*
X111519000Y-78159000D02*
X111519000Y-74960000D01*
X111519000Y-83840000D02*
X111519000Y-80641000D01*
X111559000Y-78159000D02*
X111559000Y-74938000D01*
X111559000Y-83862000D02*
X111559000Y-80641000D01*
X111599000Y-78159000D02*
X111599000Y-74917000D01*
X111599000Y-83883000D02*
X111599000Y-80641000D01*
X111639000Y-78159000D02*
X111639000Y-74896000D01*
X111639000Y-83904000D02*
X111639000Y-80641000D01*
X111679000Y-78159000D02*
X111679000Y-74875000D01*
X111679000Y-83925000D02*
X111679000Y-80641000D01*
X111719000Y-78159000D02*
X111719000Y-74855000D01*
X111719000Y-83945000D02*
X111719000Y-80641000D01*
X111759000Y-78159000D02*
X111759000Y-74836000D01*
X111759000Y-83964000D02*
X111759000Y-80641000D01*
X111799000Y-78159000D02*
X111799000Y-74816000D01*
X111799000Y-83984000D02*
X111799000Y-80641000D01*
X111839000Y-78159000D02*
X111839000Y-74797000D01*
X111839000Y-84003000D02*
X111839000Y-80641000D01*
X111879000Y-78159000D02*
X111879000Y-74779000D01*
X111879000Y-84021000D02*
X111879000Y-80641000D01*
X111919000Y-78159000D02*
X111919000Y-74761000D01*
X111919000Y-84039000D02*
X111919000Y-80641000D01*
X111959000Y-78159000D02*
X111959000Y-74743000D01*
X111959000Y-84057000D02*
X111959000Y-80641000D01*
X111999000Y-78159000D02*
X111999000Y-74726000D01*
X111999000Y-84074000D02*
X111999000Y-80641000D01*
X112039000Y-78159000D02*
X112039000Y-74710000D01*
X112039000Y-84090000D02*
X112039000Y-80641000D01*
X112079000Y-78159000D02*
X112079000Y-74693000D01*
X112079000Y-84107000D02*
X112079000Y-80641000D01*
X112119000Y-78159000D02*
X112119000Y-74677000D01*
X112119000Y-84123000D02*
X112119000Y-80641000D01*
X112159000Y-78159000D02*
X112159000Y-74662000D01*
X112159000Y-84138000D02*
X112159000Y-80641000D01*
X112199000Y-78159000D02*
X112199000Y-74646000D01*
X112199000Y-84154000D02*
X112199000Y-80641000D01*
X112239000Y-78159000D02*
X112239000Y-74632000D01*
X112239000Y-84168000D02*
X112239000Y-80641000D01*
X112279000Y-78159000D02*
X112279000Y-74617000D01*
X112279000Y-84183000D02*
X112279000Y-80641000D01*
X112319000Y-78159000D02*
X112319000Y-74603000D01*
X112319000Y-84197000D02*
X112319000Y-80641000D01*
X112359000Y-78159000D02*
X112359000Y-74589000D01*
X112359000Y-84211000D02*
X112359000Y-80641000D01*
X112399000Y-78159000D02*
X112399000Y-74576000D01*
X112399000Y-84224000D02*
X112399000Y-80641000D01*
X112439000Y-78159000D02*
X112439000Y-74563000D01*
X112439000Y-84237000D02*
X112439000Y-80641000D01*
X112479000Y-78159000D02*
X112479000Y-74550000D01*
X112479000Y-84250000D02*
X112479000Y-80641000D01*
X112519000Y-78159000D02*
X112519000Y-74538000D01*
X112519000Y-84262000D02*
X112519000Y-80641000D01*
X112559000Y-78159000D02*
X112559000Y-74526000D01*
X112559000Y-84274000D02*
X112559000Y-80641000D01*
X112599000Y-78159000D02*
X112599000Y-74515000D01*
X112599000Y-84285000D02*
X112599000Y-80641000D01*
X112639000Y-78159000D02*
X112639000Y-74503000D01*
X112639000Y-84297000D02*
X112639000Y-80641000D01*
X112679000Y-78159000D02*
X112679000Y-74493000D01*
X112679000Y-84307000D02*
X112679000Y-80641000D01*
X112719000Y-78159000D02*
X112719000Y-74482000D01*
X112719000Y-84318000D02*
X112719000Y-80641000D01*
X112759000Y-84328000D02*
X112759000Y-74472000D01*
X112799000Y-84338000D02*
X112799000Y-74462000D01*
X112839000Y-84347000D02*
X112839000Y-74453000D01*
X112879000Y-84356000D02*
X112879000Y-74444000D01*
X112919000Y-84365000D02*
X112919000Y-74435000D01*
X112959000Y-84374000D02*
X112959000Y-74426000D01*
X112999000Y-84382000D02*
X112999000Y-74418000D01*
X113039000Y-84390000D02*
X113039000Y-74410000D01*
X113079000Y-84397000D02*
X113079000Y-74403000D01*
X113119000Y-84404000D02*
X113119000Y-74396000D01*
X113159000Y-84411000D02*
X113159000Y-74389000D01*
X113199000Y-84418000D02*
X113199000Y-74382000D01*
X113239000Y-84424000D02*
X113239000Y-74376000D01*
X113279000Y-84430000D02*
X113279000Y-74370000D01*
X113320000Y-84435000D02*
X113320000Y-74365000D01*
X113360000Y-84440000D02*
X113360000Y-74360000D01*
X113400000Y-84445000D02*
X113400000Y-74355000D01*
X113440000Y-84450000D02*
X113440000Y-74350000D01*
X113480000Y-84454000D02*
X113480000Y-74346000D01*
X113520000Y-84458000D02*
X113520000Y-74342000D01*
X113560000Y-84462000D02*
X113560000Y-74338000D01*
X113600000Y-84465000D02*
X113600000Y-74335000D01*
X113640000Y-84468000D02*
X113640000Y-74332000D01*
X113680000Y-84470000D02*
X113680000Y-74330000D01*
X113720000Y-84473000D02*
X113720000Y-74327000D01*
X113760000Y-84475000D02*
X113760000Y-74325000D01*
X113800000Y-84477000D02*
X113800000Y-74323000D01*
X113840000Y-84478000D02*
X113840000Y-74322000D01*
X113880000Y-84479000D02*
X113880000Y-74321000D01*
X113920000Y-84480000D02*
X113920000Y-74320000D01*
X113960000Y-84480000D02*
X113960000Y-74320000D01*
X114000000Y-84480000D02*
X114000000Y-74320000D01*
X119120000Y-79400000D02*
G75*
G03X119120000Y-79400000I-5120000J0D01*
G01*
X147485000Y-117910000D02*
X147485000Y-115450000D01*
X146015000Y-117910000D02*
X147485000Y-117910000D01*
X146015000Y-115450000D02*
X146015000Y-117910000D01*
X143015000Y-115450000D02*
X143015000Y-117910000D01*
X143015000Y-117910000D02*
X144485000Y-117910000D01*
X144485000Y-117910000D02*
X144485000Y-115450000D01*
X139865000Y-115450000D02*
X139865000Y-117910000D01*
X139865000Y-117910000D02*
X141335000Y-117910000D01*
X141335000Y-117910000D02*
X141335000Y-115450000D01*
X136840000Y-115475000D02*
X136840000Y-117935000D01*
X136840000Y-117935000D02*
X138310000Y-117935000D01*
X138310000Y-117935000D02*
X138310000Y-115475000D01*
X135335000Y-117935000D02*
X135335000Y-115475000D01*
X133865000Y-117935000D02*
X135335000Y-117935000D01*
X133865000Y-115475000D02*
X133865000Y-117935000D01*
X132335000Y-117935000D02*
X132335000Y-115475000D01*
X130865000Y-117935000D02*
X132335000Y-117935000D01*
X130865000Y-115475000D02*
X130865000Y-117935000D01*
X129335000Y-117935000D02*
X129335000Y-115475000D01*
X127865000Y-117935000D02*
X129335000Y-117935000D01*
X127865000Y-115475000D02*
X127865000Y-117935000D01*
X124865000Y-115475000D02*
X124865000Y-117935000D01*
X124865000Y-117935000D02*
X126335000Y-117935000D01*
X126335000Y-117935000D02*
X126335000Y-115475000D01*
X84290000Y-57661252D02*
X84290000Y-57138748D01*
X85710000Y-57661252D02*
X85710000Y-57138748D01*
X169710000Y-71238748D02*
X169710000Y-71761252D01*
X168290000Y-71238748D02*
X168290000Y-71761252D01*
X169710000Y-100263748D02*
X169710000Y-100786252D01*
X168290000Y-100263748D02*
X168290000Y-100786252D01*
X148263748Y-48360000D02*
X148786252Y-48360000D01*
X148263748Y-46940000D02*
X148786252Y-46940000D01*
X119213748Y-63610000D02*
X119736252Y-63610000D01*
X119213748Y-62190000D02*
X119736252Y-62190000D01*
X76130000Y-103990000D02*
X81330000Y-103990000D01*
X76130000Y-55670000D02*
X76130000Y-103990000D01*
X81330000Y-53070000D02*
X81330000Y-103990000D01*
X76130000Y-55670000D02*
X78730000Y-55670000D01*
X78730000Y-55670000D02*
X78730000Y-53070000D01*
X78730000Y-53070000D02*
X81330000Y-53070000D01*
X76130000Y-54400000D02*
X76130000Y-53070000D01*
X76130000Y-53070000D02*
X77460000Y-53070000D01*
X173170000Y-52070000D02*
X174500000Y-52070000D01*
X173170000Y-53400000D02*
X173170000Y-52070000D01*
X173170000Y-54670000D02*
X175830000Y-54670000D01*
X175830000Y-54670000D02*
X175830000Y-67430000D01*
X173170000Y-54670000D02*
X173170000Y-67430000D01*
X173170000Y-67430000D02*
X175830000Y-67430000D01*
X173170000Y-96430000D02*
X175830000Y-96430000D01*
X173170000Y-83670000D02*
X173170000Y-96430000D01*
X175830000Y-83670000D02*
X175830000Y-96430000D01*
X173170000Y-83670000D02*
X175830000Y-83670000D01*
X173170000Y-82400000D02*
X173170000Y-81070000D01*
X173170000Y-81070000D02*
X174500000Y-81070000D01*
X149740000Y-118010000D02*
X150140000Y-118010000D01*
X149740000Y-117370000D02*
X149740000Y-118010000D01*
X155760000Y-111030000D02*
X155760000Y-117770000D01*
X149980000Y-111030000D02*
X149980000Y-117770000D01*
X149980000Y-117770000D02*
X155760000Y-117770000D01*
X149980000Y-111030000D02*
X155760000Y-111030000D01*
X149980000Y-112150000D02*
X155760000Y-112150000D01*
X149980000Y-117250000D02*
X155760000Y-117250000D01*
X157040000Y-117250000D02*
X162820000Y-117250000D01*
X157040000Y-112150000D02*
X162820000Y-112150000D01*
X157040000Y-111030000D02*
X162820000Y-111030000D01*
X157040000Y-117770000D02*
X162820000Y-117770000D01*
X157040000Y-111030000D02*
X157040000Y-117770000D01*
X162820000Y-111030000D02*
X162820000Y-117770000D01*
X156800000Y-117370000D02*
X156800000Y-118010000D01*
X156800000Y-118010000D02*
X157200000Y-118010000D01*
X163980000Y-117250000D02*
X169760000Y-117250000D01*
X163980000Y-112150000D02*
X169760000Y-112150000D01*
X163980000Y-111030000D02*
X169760000Y-111030000D01*
X163980000Y-117770000D02*
X169760000Y-117770000D01*
X163980000Y-111030000D02*
X163980000Y-117770000D01*
X169760000Y-111030000D02*
X169760000Y-117770000D01*
X163740000Y-117370000D02*
X163740000Y-118010000D01*
X163740000Y-118010000D02*
X164140000Y-118010000D01*
X85200000Y-94400000D02*
G75*
G02X85900000Y-95100000I0J-700000D01*
G01*
X85900000Y-95700000D02*
G75*
G02X85200000Y-96400000I-700000J0D01*
G01*
X83800000Y-96400000D02*
G75*
G02X83100000Y-95700000I0J700000D01*
G01*
X83100000Y-95100000D02*
G75*
G02X83800000Y-94400000I700000J0D01*
G01*
X83100000Y-95700000D02*
X83100000Y-95100000D01*
X85200000Y-96400000D02*
X83800000Y-96400000D01*
X85900000Y-95100000D02*
X85900000Y-95700000D01*
X83800000Y-94400000D02*
X85200000Y-94400000D01*
X85200000Y-97150000D02*
G75*
G02X85900000Y-97850000I0J-700000D01*
G01*
X85900000Y-98450000D02*
G75*
G02X85200000Y-99150000I-700000J0D01*
G01*
X83800000Y-99150000D02*
G75*
G02X83100000Y-98450000I0J700000D01*
G01*
X83100000Y-97850000D02*
G75*
G02X83800000Y-97150000I700000J0D01*
G01*
X83100000Y-98450000D02*
X83100000Y-97850000D01*
X85200000Y-99150000D02*
X83800000Y-99150000D01*
X85900000Y-97850000D02*
X85900000Y-98450000D01*
X83800000Y-97150000D02*
X85200000Y-97150000D01*
X83650000Y-52900000D02*
X85050000Y-52900000D01*
X85750000Y-53600000D02*
X85750000Y-54200000D01*
X85050000Y-54900000D02*
X83650000Y-54900000D01*
X82950000Y-54200000D02*
X82950000Y-53600000D01*
X82950000Y-53600000D02*
G75*
G02X83650000Y-52900000I700000J0D01*
G01*
X83650000Y-54900000D02*
G75*
G02X82950000Y-54200000I0J700000D01*
G01*
X85750000Y-54200000D02*
G75*
G02X85050000Y-54900000I-700000J0D01*
G01*
X85050000Y-52900000D02*
G75*
G02X85750000Y-53600000I0J-700000D01*
G01*
X72950000Y-57800000D02*
G75*
G02X72250000Y-57100000I0J700000D01*
G01*
X72250000Y-56500000D02*
G75*
G02X72950000Y-55800000I700000J0D01*
G01*
X74350000Y-55800000D02*
G75*
G02X75050000Y-56500000I0J-700000D01*
G01*
X75050000Y-57100000D02*
G75*
G02X74350000Y-57800000I-700000J0D01*
G01*
X75050000Y-56500000D02*
X75050000Y-57100000D01*
X72950000Y-55800000D02*
X74350000Y-55800000D01*
X72250000Y-57100000D02*
X72250000Y-56500000D01*
X74350000Y-57800000D02*
X72950000Y-57800000D01*
X74350000Y-60400000D02*
X72950000Y-60400000D01*
X72250000Y-59700000D02*
X72250000Y-59100000D01*
X72950000Y-58400000D02*
X74350000Y-58400000D01*
X75050000Y-59100000D02*
X75050000Y-59700000D01*
X75050000Y-59700000D02*
G75*
G02X74350000Y-60400000I-700000J0D01*
G01*
X74350000Y-58400000D02*
G75*
G02X75050000Y-59100000I0J-700000D01*
G01*
X72250000Y-59100000D02*
G75*
G02X72950000Y-58400000I700000J0D01*
G01*
X72950000Y-60400000D02*
G75*
G02X72250000Y-59700000I0J700000D01*
G01*
X122546267Y-94390000D02*
X122203733Y-94390000D01*
X122546267Y-95410000D02*
X122203733Y-95410000D01*
X122203733Y-92390000D02*
X122546267Y-92390000D01*
X122203733Y-93410000D02*
X122546267Y-93410000D01*
X146240000Y-112946267D02*
X146240000Y-112603733D01*
X147260000Y-112946267D02*
X147260000Y-112603733D01*
X144260000Y-112921267D02*
X144260000Y-112578733D01*
X143240000Y-112921267D02*
X143240000Y-112578733D01*
X141110000Y-112896267D02*
X141110000Y-112553733D01*
X140090000Y-112896267D02*
X140090000Y-112553733D01*
X138110000Y-112921267D02*
X138110000Y-112578733D01*
X137090000Y-112921267D02*
X137090000Y-112578733D01*
X134090000Y-112946267D02*
X134090000Y-112603733D01*
X135110000Y-112946267D02*
X135110000Y-112603733D01*
X132110000Y-112946267D02*
X132110000Y-112603733D01*
X131090000Y-112946267D02*
X131090000Y-112603733D01*
X128090000Y-112896267D02*
X128090000Y-112553733D01*
X129110000Y-112896267D02*
X129110000Y-112553733D01*
X125090000Y-112871267D02*
X125090000Y-112528733D01*
X126110000Y-112871267D02*
X126110000Y-112528733D01*
X171090000Y-64596267D02*
X171090000Y-64253733D01*
X172110000Y-64596267D02*
X172110000Y-64253733D01*
X169490000Y-64253733D02*
X169490000Y-64596267D01*
X170510000Y-64253733D02*
X170510000Y-64596267D01*
X174471267Y-69410000D02*
X174128733Y-69410000D01*
X174471267Y-68390000D02*
X174128733Y-68390000D01*
X174153733Y-71110000D02*
X174496267Y-71110000D01*
X174153733Y-70090000D02*
X174496267Y-70090000D01*
X171190000Y-91871267D02*
X171190000Y-91528733D01*
X172210000Y-91871267D02*
X172210000Y-91528733D01*
X169290000Y-91503733D02*
X169290000Y-91846267D01*
X170310000Y-91503733D02*
X170310000Y-91846267D01*
X173771267Y-98410000D02*
X173428733Y-98410000D01*
X173771267Y-97390000D02*
X173428733Y-97390000D01*
X108290000Y-104553733D02*
X108290000Y-104896267D01*
X109310000Y-104553733D02*
X109310000Y-104896267D01*
X135390000Y-46696267D02*
X135390000Y-46353733D01*
X136410000Y-46696267D02*
X136410000Y-46353733D01*
X84428733Y-109510000D02*
X84771267Y-109510000D01*
X84428733Y-108490000D02*
X84771267Y-108490000D01*
X84771267Y-107885000D02*
X84428733Y-107885000D01*
X84771267Y-106865000D02*
X84428733Y-106865000D01*
X128650000Y-99400000D02*
G75*
G03X128650000Y-99400000I-950000J0D01*
G01*
X178970000Y-63500000D02*
G75*
G03X178970000Y-63500000I-950000J0D01*
G01*
X178950000Y-66200000D02*
G75*
G03X178950000Y-66200000I-950000J0D01*
G01*
X138550000Y-109600000D02*
G75*
G03X138550000Y-109600000I-950000J0D01*
G01*
X144700000Y-109650000D02*
G75*
G03X144700000Y-109650000I-950000J0D01*
G01*
X147700000Y-109700000D02*
G75*
G03X147700000Y-109700000I-950000J0D01*
G01*
X107450000Y-102600000D02*
G75*
G03X107450000Y-102600000I-950000J0D01*
G01*
X107450000Y-99800000D02*
G75*
G03X107450000Y-99800000I-950000J0D01*
G01*
X178850000Y-92200000D02*
G75*
G03X178850000Y-92200000I-950000J0D01*
G01*
X178850000Y-95200000D02*
G75*
G03X178850000Y-95200000I-950000J0D01*
G01*
X128450000Y-62650000D02*
G75*
G03X128450000Y-62650000I-950000J0D01*
G01*
X107450000Y-108500000D02*
G75*
G03X107450000Y-108500000I-950000J0D01*
G01*
X107450000Y-105600000D02*
G75*
G03X107450000Y-105600000I-950000J0D01*
G01*
X128650000Y-86800000D02*
G75*
G03X128650000Y-86800000I-950000J0D01*
G01*
X120150000Y-92900000D02*
G75*
G03X120150000Y-92900000I-950000J0D01*
G01*
X122450000Y-90650000D02*
G75*
G03X122450000Y-90650000I-950000J0D01*
G01*
D10*
X99310000Y-117180000D02*
X99310000Y-118450000D01*
X99310000Y-118450000D02*
X91690000Y-118450000D01*
X91690000Y-118450000D02*
X91690000Y-117180000D01*
X99310000Y-112608000D02*
X91690000Y-112608000D01*
X91690000Y-112608000D02*
X91690000Y-117180000D01*
X99310000Y-112608000D02*
X99310000Y-117180000D01*
X93722000Y-84668000D02*
X97278000Y-84668000D01*
X97278000Y-84668000D02*
X97278000Y-88732000D01*
X97278000Y-88732000D02*
X93722000Y-88732000D01*
X93722000Y-88732000D02*
X93722000Y-84668000D01*
X100580000Y-95082000D02*
X90420000Y-95082000D01*
X90420000Y-104861000D02*
X100580000Y-104861000D01*
X90420000Y-95082000D02*
X90420000Y-104861000D01*
X100580000Y-95082000D02*
X100580000Y-104861000D01*
X86610000Y-117180000D02*
X86610000Y-81620000D01*
X86610000Y-81620000D02*
X104390000Y-81620000D01*
X104390000Y-81620000D02*
X104390000Y-117180000D01*
X104390000Y-117180000D02*
X86610000Y-117180000D01*
X90420000Y-93685000D02*
X90420000Y-91145000D01*
X90420000Y-91145000D02*
X93595000Y-91145000D01*
X93595000Y-91145000D02*
X93595000Y-93685000D01*
X93595000Y-93685000D02*
X90420000Y-93685000D01*
D13*
G36*
X94865000Y-102575000D02*
G01*
X94611000Y-102321000D01*
X94992000Y-102067000D01*
X95246000Y-102321000D01*
X94865000Y-102575000D01*
G37*
X94865000Y-102575000D02*
X94611000Y-102321000D01*
X94992000Y-102067000D01*
X95246000Y-102321000D01*
X94865000Y-102575000D01*
G36*
X95373000Y-102194000D02*
G01*
X95119000Y-101940000D01*
X95500000Y-101686000D01*
X95754000Y-101940000D01*
X95373000Y-102194000D01*
G37*
X95373000Y-102194000D02*
X95119000Y-101940000D01*
X95500000Y-101686000D01*
X95754000Y-101940000D01*
X95373000Y-102194000D01*
G36*
X95881000Y-101813000D02*
G01*
X95627000Y-101559000D01*
X96008000Y-101305000D01*
X96262000Y-101559000D01*
X95881000Y-101813000D01*
G37*
X95881000Y-101813000D02*
X95627000Y-101559000D01*
X96008000Y-101305000D01*
X96262000Y-101559000D01*
X95881000Y-101813000D01*
G36*
X94992000Y-101813000D02*
G01*
X94738000Y-101559000D01*
X95119000Y-101305000D01*
X95373000Y-101559000D01*
X94992000Y-101813000D01*
G37*
X94992000Y-101813000D02*
X94738000Y-101559000D01*
X95119000Y-101305000D01*
X95373000Y-101559000D01*
X94992000Y-101813000D01*
G36*
X95500000Y-101432000D02*
G01*
X95246000Y-101178000D01*
X95627000Y-100924000D01*
X95881000Y-101178000D01*
X95500000Y-101432000D01*
G37*
X95500000Y-101432000D02*
X95246000Y-101178000D01*
X95627000Y-100924000D01*
X95881000Y-101178000D01*
X95500000Y-101432000D01*
G36*
X96008000Y-101051000D02*
G01*
X95754000Y-100797000D01*
X96135000Y-100543000D01*
X96389000Y-100797000D01*
X96008000Y-101051000D01*
G37*
X96008000Y-101051000D02*
X95754000Y-100797000D01*
X96135000Y-100543000D01*
X96389000Y-100797000D01*
X96008000Y-101051000D01*
G36*
X95246000Y-102956000D02*
G01*
X94992000Y-102702000D01*
X95373000Y-102448000D01*
X95627000Y-102702000D01*
X95246000Y-102956000D01*
G37*
X95246000Y-102956000D02*
X94992000Y-102702000D01*
X95373000Y-102448000D01*
X95627000Y-102702000D01*
X95246000Y-102956000D01*
G36*
X95627000Y-103337000D02*
G01*
X95373000Y-103083000D01*
X95754000Y-102829000D01*
X96008000Y-103083000D01*
X95627000Y-103337000D01*
G37*
X95627000Y-103337000D02*
X95373000Y-103083000D01*
X95754000Y-102829000D01*
X96008000Y-103083000D01*
X95627000Y-103337000D01*
D10*
X116420000Y-96130000D02*
X110070000Y-96130000D01*
X110070000Y-96130000D02*
X110070000Y-116450000D01*
X110070000Y-116450000D02*
X116420000Y-116450000D01*
X116420000Y-116450000D02*
X122770000Y-116450000D01*
X122770000Y-116450000D02*
X122770000Y-96130000D01*
X122770000Y-96130000D02*
X116420000Y-96130000D01*
X167500000Y-78100000D02*
X167500000Y-50160000D01*
X167500000Y-50160000D02*
X129400000Y-50160000D01*
X129400000Y-50160000D02*
X129400000Y-75560000D01*
X129400000Y-75560000D02*
X129400000Y-78100000D01*
X129400000Y-78100000D02*
X167500000Y-78100000D01*
X129400000Y-107100000D02*
X167500000Y-107100000D01*
X129400000Y-104560000D02*
X129400000Y-107100000D01*
X129400000Y-79160000D02*
X129400000Y-104560000D01*
X167500000Y-79160000D02*
X129400000Y-79160000D01*
X167500000Y-107100000D02*
X167500000Y-79160000D01*
D12*
X142000000Y-43340000D02*
X140050000Y-43340000D01*
X142000000Y-43340000D02*
X143950000Y-43340000D01*
X142000000Y-48460000D02*
X140050000Y-48460000D01*
X142000000Y-48460000D02*
X145450000Y-48460000D01*
D10*
X128000000Y-49900000D02*
X128000000Y-39740000D01*
X128000000Y-39740000D02*
X87360000Y-39740000D01*
X87360000Y-39740000D02*
X87360000Y-49900000D01*
X87360000Y-49900000D02*
X87360000Y-60060000D01*
X87360000Y-60060000D02*
X128000000Y-60060000D01*
X128000000Y-60060000D02*
X128000000Y-49900000D01*
X110150000Y-100110000D02*
X122850000Y-100110000D01*
X122850000Y-100110000D02*
X122850000Y-117890000D01*
X122850000Y-117890000D02*
X110150000Y-117890000D01*
X110150000Y-117890000D02*
X110150000Y-100110000D01*
X158614285Y-39028571D02*
X158757142Y-39076190D01*
X158804761Y-39123809D01*
X158852380Y-39219047D01*
X158852380Y-39361904D01*
X158804761Y-39457142D01*
X158757142Y-39504761D01*
X158661904Y-39552380D01*
X158280952Y-39552380D01*
X158280952Y-38552380D01*
X158614285Y-38552380D01*
X158709523Y-38600000D01*
X158757142Y-38647619D01*
X158804761Y-38742857D01*
X158804761Y-38838095D01*
X158757142Y-38933333D01*
X158709523Y-38980952D01*
X158614285Y-39028571D01*
X158280952Y-39028571D01*
X159138095Y-38552380D02*
X159709523Y-38552380D01*
X159423809Y-39552380D02*
X159423809Y-38552380D01*
X160566666Y-39552380D02*
X159995238Y-39552380D01*
X160280952Y-39552380D02*
X160280952Y-38552380D01*
X160185714Y-38695238D01*
X160090476Y-38790476D01*
X159995238Y-38838095D01*
X110308333Y-95137142D02*
X110260714Y-95184761D01*
X110117857Y-95232380D01*
X110022619Y-95232380D01*
X109879761Y-95184761D01*
X109784523Y-95089523D01*
X109736904Y-94994285D01*
X109689285Y-94803809D01*
X109689285Y-94660952D01*
X109736904Y-94470476D01*
X109784523Y-94375238D01*
X109879761Y-94280000D01*
X110022619Y-94232380D01*
X110117857Y-94232380D01*
X110260714Y-94280000D01*
X110308333Y-94327619D01*
X111260714Y-95232380D02*
X110689285Y-95232380D01*
X110975000Y-95232380D02*
X110975000Y-94232380D01*
X110879761Y-94375238D01*
X110784523Y-94470476D01*
X110689285Y-94518095D01*
X110333333Y-96937142D02*
X110285714Y-96984761D01*
X110142857Y-97032380D01*
X110047619Y-97032380D01*
X109904761Y-96984761D01*
X109809523Y-96889523D01*
X109761904Y-96794285D01*
X109714285Y-96603809D01*
X109714285Y-96460952D01*
X109761904Y-96270476D01*
X109809523Y-96175238D01*
X109904761Y-96080000D01*
X110047619Y-96032380D01*
X110142857Y-96032380D01*
X110285714Y-96080000D01*
X110333333Y-96127619D01*
X110714285Y-96127619D02*
X110761904Y-96080000D01*
X110857142Y-96032380D01*
X111095238Y-96032380D01*
X111190476Y-96080000D01*
X111238095Y-96127619D01*
X111285714Y-96222857D01*
X111285714Y-96318095D01*
X111238095Y-96460952D01*
X110666666Y-97032380D01*
X111285714Y-97032380D01*
X132033333Y-49557142D02*
X131985714Y-49604761D01*
X131842857Y-49652380D01*
X131747619Y-49652380D01*
X131604761Y-49604761D01*
X131509523Y-49509523D01*
X131461904Y-49414285D01*
X131414285Y-49223809D01*
X131414285Y-49080952D01*
X131461904Y-48890476D01*
X131509523Y-48795238D01*
X131604761Y-48700000D01*
X131747619Y-48652380D01*
X131842857Y-48652380D01*
X131985714Y-48700000D01*
X132033333Y-48747619D01*
X132366666Y-48652380D02*
X132985714Y-48652380D01*
X132652380Y-49033333D01*
X132795238Y-49033333D01*
X132890476Y-49080952D01*
X132938095Y-49128571D01*
X132985714Y-49223809D01*
X132985714Y-49461904D01*
X132938095Y-49557142D01*
X132890476Y-49604761D01*
X132795238Y-49652380D01*
X132509523Y-49652380D01*
X132414285Y-49604761D01*
X132366666Y-49557142D01*
X89833333Y-62557142D02*
X89785714Y-62604761D01*
X89642857Y-62652380D01*
X89547619Y-62652380D01*
X89404761Y-62604761D01*
X89309523Y-62509523D01*
X89261904Y-62414285D01*
X89214285Y-62223809D01*
X89214285Y-62080952D01*
X89261904Y-61890476D01*
X89309523Y-61795238D01*
X89404761Y-61700000D01*
X89547619Y-61652380D01*
X89642857Y-61652380D01*
X89785714Y-61700000D01*
X89833333Y-61747619D01*
X90690476Y-61985714D02*
X90690476Y-62652380D01*
X90452380Y-61604761D02*
X90214285Y-62319047D01*
X90833333Y-62319047D01*
X101833333Y-62507142D02*
X101785714Y-62554761D01*
X101642857Y-62602380D01*
X101547619Y-62602380D01*
X101404761Y-62554761D01*
X101309523Y-62459523D01*
X101261904Y-62364285D01*
X101214285Y-62173809D01*
X101214285Y-62030952D01*
X101261904Y-61840476D01*
X101309523Y-61745238D01*
X101404761Y-61650000D01*
X101547619Y-61602380D01*
X101642857Y-61602380D01*
X101785714Y-61650000D01*
X101833333Y-61697619D01*
X102738095Y-61602380D02*
X102261904Y-61602380D01*
X102214285Y-62078571D01*
X102261904Y-62030952D01*
X102357142Y-61983333D01*
X102595238Y-61983333D01*
X102690476Y-62030952D01*
X102738095Y-62078571D01*
X102785714Y-62173809D01*
X102785714Y-62411904D01*
X102738095Y-62507142D01*
X102690476Y-62554761D01*
X102595238Y-62602380D01*
X102357142Y-62602380D01*
X102261904Y-62554761D01*
X102214285Y-62507142D01*
X113833333Y-62457142D02*
X113785714Y-62504761D01*
X113642857Y-62552380D01*
X113547619Y-62552380D01*
X113404761Y-62504761D01*
X113309523Y-62409523D01*
X113261904Y-62314285D01*
X113214285Y-62123809D01*
X113214285Y-61980952D01*
X113261904Y-61790476D01*
X113309523Y-61695238D01*
X113404761Y-61600000D01*
X113547619Y-61552380D01*
X113642857Y-61552380D01*
X113785714Y-61600000D01*
X113833333Y-61647619D01*
X114690476Y-61552380D02*
X114500000Y-61552380D01*
X114404761Y-61600000D01*
X114357142Y-61647619D01*
X114261904Y-61790476D01*
X114214285Y-61980952D01*
X114214285Y-62361904D01*
X114261904Y-62457142D01*
X114309523Y-62504761D01*
X114404761Y-62552380D01*
X114595238Y-62552380D01*
X114690476Y-62504761D01*
X114738095Y-62457142D01*
X114785714Y-62361904D01*
X114785714Y-62123809D01*
X114738095Y-62028571D01*
X114690476Y-61980952D01*
X114595238Y-61933333D01*
X114404761Y-61933333D01*
X114309523Y-61980952D01*
X114261904Y-62028571D01*
X114214285Y-62123809D01*
X113833333Y-86007142D02*
X113785714Y-86054761D01*
X113642857Y-86102380D01*
X113547619Y-86102380D01*
X113404761Y-86054761D01*
X113309523Y-85959523D01*
X113261904Y-85864285D01*
X113214285Y-85673809D01*
X113214285Y-85530952D01*
X113261904Y-85340476D01*
X113309523Y-85245238D01*
X113404761Y-85150000D01*
X113547619Y-85102380D01*
X113642857Y-85102380D01*
X113785714Y-85150000D01*
X113833333Y-85197619D01*
X114166666Y-85102380D02*
X114833333Y-85102380D01*
X114404761Y-86102380D01*
D12*
X145727142Y-116340476D02*
X144827142Y-116340476D01*
X144827142Y-116150000D01*
X144870000Y-116035714D01*
X144955714Y-115959523D01*
X145041428Y-115921428D01*
X145212857Y-115883333D01*
X145341428Y-115883333D01*
X145512857Y-115921428D01*
X145598571Y-115959523D01*
X145684285Y-116035714D01*
X145727142Y-116150000D01*
X145727142Y-116340476D01*
X145727142Y-115121428D02*
X145727142Y-115578571D01*
X145727142Y-115350000D02*
X144827142Y-115350000D01*
X144955714Y-115426190D01*
X145041428Y-115502380D01*
X145084285Y-115578571D01*
X142727142Y-116840476D02*
X141827142Y-116840476D01*
X141827142Y-116650000D01*
X141870000Y-116535714D01*
X141955714Y-116459523D01*
X142041428Y-116421428D01*
X142212857Y-116383333D01*
X142341428Y-116383333D01*
X142512857Y-116421428D01*
X142598571Y-116459523D01*
X142684285Y-116535714D01*
X142727142Y-116650000D01*
X142727142Y-116840476D01*
X141912857Y-116078571D02*
X141870000Y-116040476D01*
X141827142Y-115964285D01*
X141827142Y-115773809D01*
X141870000Y-115697619D01*
X141912857Y-115659523D01*
X141998571Y-115621428D01*
X142084285Y-115621428D01*
X142212857Y-115659523D01*
X142727142Y-116116666D01*
X142727142Y-115621428D01*
X139577142Y-115590476D02*
X138677142Y-115590476D01*
X138677142Y-115400000D01*
X138720000Y-115285714D01*
X138805714Y-115209523D01*
X138891428Y-115171428D01*
X139062857Y-115133333D01*
X139191428Y-115133333D01*
X139362857Y-115171428D01*
X139448571Y-115209523D01*
X139534285Y-115285714D01*
X139577142Y-115400000D01*
X139577142Y-115590476D01*
X138677142Y-114866666D02*
X138677142Y-114371428D01*
X139020000Y-114638095D01*
X139020000Y-114523809D01*
X139062857Y-114447619D01*
X139105714Y-114409523D01*
X139191428Y-114371428D01*
X139405714Y-114371428D01*
X139491428Y-114409523D01*
X139534285Y-114447619D01*
X139577142Y-114523809D01*
X139577142Y-114752380D01*
X139534285Y-114828571D01*
X139491428Y-114866666D01*
X136552142Y-116190476D02*
X135652142Y-116190476D01*
X135652142Y-116000000D01*
X135695000Y-115885714D01*
X135780714Y-115809523D01*
X135866428Y-115771428D01*
X136037857Y-115733333D01*
X136166428Y-115733333D01*
X136337857Y-115771428D01*
X136423571Y-115809523D01*
X136509285Y-115885714D01*
X136552142Y-116000000D01*
X136552142Y-116190476D01*
X135952142Y-115047619D02*
X136552142Y-115047619D01*
X135609285Y-115238095D02*
X136252142Y-115428571D01*
X136252142Y-114933333D01*
X133607142Y-113590476D02*
X132707142Y-113590476D01*
X132707142Y-113400000D01*
X132750000Y-113285714D01*
X132835714Y-113209523D01*
X132921428Y-113171428D01*
X133092857Y-113133333D01*
X133221428Y-113133333D01*
X133392857Y-113171428D01*
X133478571Y-113209523D01*
X133564285Y-113285714D01*
X133607142Y-113400000D01*
X133607142Y-113590476D01*
X132707142Y-112409523D02*
X132707142Y-112790476D01*
X133135714Y-112828571D01*
X133092857Y-112790476D01*
X133050000Y-112714285D01*
X133050000Y-112523809D01*
X133092857Y-112447619D01*
X133135714Y-112409523D01*
X133221428Y-112371428D01*
X133435714Y-112371428D01*
X133521428Y-112409523D01*
X133564285Y-112447619D01*
X133607142Y-112523809D01*
X133607142Y-112714285D01*
X133564285Y-112790476D01*
X133521428Y-112828571D01*
X130577142Y-113840476D02*
X129677142Y-113840476D01*
X129677142Y-113650000D01*
X129720000Y-113535714D01*
X129805714Y-113459523D01*
X129891428Y-113421428D01*
X130062857Y-113383333D01*
X130191428Y-113383333D01*
X130362857Y-113421428D01*
X130448571Y-113459523D01*
X130534285Y-113535714D01*
X130577142Y-113650000D01*
X130577142Y-113840476D01*
X129677142Y-112697619D02*
X129677142Y-112850000D01*
X129720000Y-112926190D01*
X129762857Y-112964285D01*
X129891428Y-113040476D01*
X130062857Y-113078571D01*
X130405714Y-113078571D01*
X130491428Y-113040476D01*
X130534285Y-113002380D01*
X130577142Y-112926190D01*
X130577142Y-112773809D01*
X130534285Y-112697619D01*
X130491428Y-112659523D01*
X130405714Y-112621428D01*
X130191428Y-112621428D01*
X130105714Y-112659523D01*
X130062857Y-112697619D01*
X130020000Y-112773809D01*
X130020000Y-112926190D01*
X130062857Y-113002380D01*
X130105714Y-113040476D01*
X130191428Y-113078571D01*
X127577142Y-113840476D02*
X126677142Y-113840476D01*
X126677142Y-113650000D01*
X126720000Y-113535714D01*
X126805714Y-113459523D01*
X126891428Y-113421428D01*
X127062857Y-113383333D01*
X127191428Y-113383333D01*
X127362857Y-113421428D01*
X127448571Y-113459523D01*
X127534285Y-113535714D01*
X127577142Y-113650000D01*
X127577142Y-113840476D01*
X126677142Y-113116666D02*
X126677142Y-112583333D01*
X127577142Y-112926190D01*
X124577142Y-113590476D02*
X123677142Y-113590476D01*
X123677142Y-113400000D01*
X123720000Y-113285714D01*
X123805714Y-113209523D01*
X123891428Y-113171428D01*
X124062857Y-113133333D01*
X124191428Y-113133333D01*
X124362857Y-113171428D01*
X124448571Y-113209523D01*
X124534285Y-113285714D01*
X124577142Y-113400000D01*
X124577142Y-113590476D01*
X124062857Y-112676190D02*
X124020000Y-112752380D01*
X123977142Y-112790476D01*
X123891428Y-112828571D01*
X123848571Y-112828571D01*
X123762857Y-112790476D01*
X123720000Y-112752380D01*
X123677142Y-112676190D01*
X123677142Y-112523809D01*
X123720000Y-112447619D01*
X123762857Y-112409523D01*
X123848571Y-112371428D01*
X123891428Y-112371428D01*
X123977142Y-112409523D01*
X124020000Y-112447619D01*
X124062857Y-112523809D01*
X124062857Y-112676190D01*
X124105714Y-112752380D01*
X124148571Y-112790476D01*
X124234285Y-112828571D01*
X124405714Y-112828571D01*
X124491428Y-112790476D01*
X124534285Y-112752380D01*
X124577142Y-112676190D01*
X124577142Y-112523809D01*
X124534285Y-112447619D01*
X124491428Y-112409523D01*
X124405714Y-112371428D01*
X124234285Y-112371428D01*
X124148571Y-112409523D01*
X124105714Y-112447619D01*
X124062857Y-112523809D01*
D10*
X83278571Y-57733333D02*
X83278571Y-58066666D01*
X83802380Y-58066666D02*
X82802380Y-58066666D01*
X82802380Y-57590476D01*
X83802380Y-56685714D02*
X83802380Y-57257142D01*
X83802380Y-56971428D02*
X82802380Y-56971428D01*
X82945238Y-57066666D01*
X83040476Y-57161904D01*
X83088095Y-57257142D01*
X170578571Y-71833333D02*
X170578571Y-72166666D01*
X171102380Y-72166666D02*
X170102380Y-72166666D01*
X170102380Y-71690476D01*
X170197619Y-71357142D02*
X170150000Y-71309523D01*
X170102380Y-71214285D01*
X170102380Y-70976190D01*
X170150000Y-70880952D01*
X170197619Y-70833333D01*
X170292857Y-70785714D01*
X170388095Y-70785714D01*
X170530952Y-70833333D01*
X171102380Y-71404761D01*
X171102380Y-70785714D01*
X170578571Y-100858333D02*
X170578571Y-101191666D01*
X171102380Y-101191666D02*
X170102380Y-101191666D01*
X170102380Y-100715476D01*
X170102380Y-100429761D02*
X170102380Y-99810714D01*
X170483333Y-100144047D01*
X170483333Y-100001190D01*
X170530952Y-99905952D01*
X170578571Y-99858333D01*
X170673809Y-99810714D01*
X170911904Y-99810714D01*
X171007142Y-99858333D01*
X171054761Y-99905952D01*
X171102380Y-100001190D01*
X171102380Y-100286904D01*
X171054761Y-100382142D01*
X171007142Y-100429761D01*
X148191666Y-45928571D02*
X147858333Y-45928571D01*
X147858333Y-46452380D02*
X147858333Y-45452380D01*
X148334523Y-45452380D01*
X149144047Y-45785714D02*
X149144047Y-46452380D01*
X148905952Y-45404761D02*
X148667857Y-46119047D01*
X149286904Y-46119047D01*
X119141666Y-61178571D02*
X118808333Y-61178571D01*
X118808333Y-61702380D02*
X118808333Y-60702380D01*
X119284523Y-60702380D01*
X120141666Y-60702380D02*
X119665476Y-60702380D01*
X119617857Y-61178571D01*
X119665476Y-61130952D01*
X119760714Y-61083333D01*
X119998809Y-61083333D01*
X120094047Y-61130952D01*
X120141666Y-61178571D01*
X120189285Y-61273809D01*
X120189285Y-61511904D01*
X120141666Y-61607142D01*
X120094047Y-61654761D01*
X119998809Y-61702380D01*
X119760714Y-61702380D01*
X119665476Y-61654761D01*
X119617857Y-61607142D01*
X78396666Y-51522380D02*
X78396666Y-52236666D01*
X78349047Y-52379523D01*
X78253809Y-52474761D01*
X78110952Y-52522380D01*
X78015714Y-52522380D01*
X79396666Y-52522380D02*
X78825238Y-52522380D01*
X79110952Y-52522380D02*
X79110952Y-51522380D01*
X79015714Y-51665238D01*
X78920476Y-51760476D01*
X78825238Y-51808095D01*
X174166666Y-50522380D02*
X174166666Y-51236666D01*
X174119047Y-51379523D01*
X174023809Y-51474761D01*
X173880952Y-51522380D01*
X173785714Y-51522380D01*
X174595238Y-50617619D02*
X174642857Y-50570000D01*
X174738095Y-50522380D01*
X174976190Y-50522380D01*
X175071428Y-50570000D01*
X175119047Y-50617619D01*
X175166666Y-50712857D01*
X175166666Y-50808095D01*
X175119047Y-50950952D01*
X174547619Y-51522380D01*
X175166666Y-51522380D01*
X174166666Y-79522380D02*
X174166666Y-80236666D01*
X174119047Y-80379523D01*
X174023809Y-80474761D01*
X173880952Y-80522380D01*
X173785714Y-80522380D01*
X174547619Y-79522380D02*
X175166666Y-79522380D01*
X174833333Y-79903333D01*
X174976190Y-79903333D01*
X175071428Y-79950952D01*
X175119047Y-79998571D01*
X175166666Y-80093809D01*
X175166666Y-80331904D01*
X175119047Y-80427142D01*
X175071428Y-80474761D01*
X174976190Y-80522380D01*
X174690476Y-80522380D01*
X174595238Y-80474761D01*
X174547619Y-80427142D01*
X152536666Y-108202380D02*
X152536666Y-108916666D01*
X152489047Y-109059523D01*
X152393809Y-109154761D01*
X152250952Y-109202380D01*
X152155714Y-109202380D01*
X153441428Y-108535714D02*
X153441428Y-109202380D01*
X153203333Y-108154761D02*
X152965238Y-108869047D01*
X153584285Y-108869047D01*
X159596666Y-108202380D02*
X159596666Y-108916666D01*
X159549047Y-109059523D01*
X159453809Y-109154761D01*
X159310952Y-109202380D01*
X159215714Y-109202380D01*
X160549047Y-108202380D02*
X160072857Y-108202380D01*
X160025238Y-108678571D01*
X160072857Y-108630952D01*
X160168095Y-108583333D01*
X160406190Y-108583333D01*
X160501428Y-108630952D01*
X160549047Y-108678571D01*
X160596666Y-108773809D01*
X160596666Y-109011904D01*
X160549047Y-109107142D01*
X160501428Y-109154761D01*
X160406190Y-109202380D01*
X160168095Y-109202380D01*
X160072857Y-109154761D01*
X160025238Y-109107142D01*
X166536666Y-108202380D02*
X166536666Y-108916666D01*
X166489047Y-109059523D01*
X166393809Y-109154761D01*
X166250952Y-109202380D01*
X166155714Y-109202380D01*
X167441428Y-108202380D02*
X167250952Y-108202380D01*
X167155714Y-108250000D01*
X167108095Y-108297619D01*
X167012857Y-108440476D01*
X166965238Y-108630952D01*
X166965238Y-109011904D01*
X167012857Y-109107142D01*
X167060476Y-109154761D01*
X167155714Y-109202380D01*
X167346190Y-109202380D01*
X167441428Y-109154761D01*
X167489047Y-109107142D01*
X167536666Y-109011904D01*
X167536666Y-108773809D01*
X167489047Y-108678571D01*
X167441428Y-108630952D01*
X167346190Y-108583333D01*
X167155714Y-108583333D01*
X167060476Y-108630952D01*
X167012857Y-108678571D01*
X166965238Y-108773809D01*
X83666666Y-92952380D02*
X83666666Y-93666666D01*
X83619047Y-93809523D01*
X83523809Y-93904761D01*
X83380952Y-93952380D01*
X83285714Y-93952380D01*
X84142857Y-93952380D02*
X84142857Y-92952380D01*
X84523809Y-92952380D01*
X84619047Y-93000000D01*
X84666666Y-93047619D01*
X84714285Y-93142857D01*
X84714285Y-93285714D01*
X84666666Y-93380952D01*
X84619047Y-93428571D01*
X84523809Y-93476190D01*
X84142857Y-93476190D01*
X85666666Y-93952380D02*
X85095238Y-93952380D01*
X85380952Y-93952380D02*
X85380952Y-92952380D01*
X85285714Y-93095238D01*
X85190476Y-93190476D01*
X85095238Y-93238095D01*
X83666666Y-99652380D02*
X83666666Y-100366666D01*
X83619047Y-100509523D01*
X83523809Y-100604761D01*
X83380952Y-100652380D01*
X83285714Y-100652380D01*
X84142857Y-100652380D02*
X84142857Y-99652380D01*
X84523809Y-99652380D01*
X84619047Y-99700000D01*
X84666666Y-99747619D01*
X84714285Y-99842857D01*
X84714285Y-99985714D01*
X84666666Y-100080952D01*
X84619047Y-100128571D01*
X84523809Y-100176190D01*
X84142857Y-100176190D01*
X85095238Y-99747619D02*
X85142857Y-99700000D01*
X85238095Y-99652380D01*
X85476190Y-99652380D01*
X85571428Y-99700000D01*
X85619047Y-99747619D01*
X85666666Y-99842857D01*
X85666666Y-99938095D01*
X85619047Y-100080952D01*
X85047619Y-100652380D01*
X85666666Y-100652380D01*
X83516666Y-51552380D02*
X83516666Y-52266666D01*
X83469047Y-52409523D01*
X83373809Y-52504761D01*
X83230952Y-52552380D01*
X83135714Y-52552380D01*
X83992857Y-52552380D02*
X83992857Y-51552380D01*
X84373809Y-51552380D01*
X84469047Y-51600000D01*
X84516666Y-51647619D01*
X84564285Y-51742857D01*
X84564285Y-51885714D01*
X84516666Y-51980952D01*
X84469047Y-52028571D01*
X84373809Y-52076190D01*
X83992857Y-52076190D01*
X84897619Y-51552380D02*
X85516666Y-51552380D01*
X85183333Y-51933333D01*
X85326190Y-51933333D01*
X85421428Y-51980952D01*
X85469047Y-52028571D01*
X85516666Y-52123809D01*
X85516666Y-52361904D01*
X85469047Y-52457142D01*
X85421428Y-52504761D01*
X85326190Y-52552380D01*
X85040476Y-52552380D01*
X84945238Y-52504761D01*
X84897619Y-52457142D01*
X72816666Y-54252380D02*
X72816666Y-54966666D01*
X72769047Y-55109523D01*
X72673809Y-55204761D01*
X72530952Y-55252380D01*
X72435714Y-55252380D01*
X73292857Y-55252380D02*
X73292857Y-54252380D01*
X73673809Y-54252380D01*
X73769047Y-54300000D01*
X73816666Y-54347619D01*
X73864285Y-54442857D01*
X73864285Y-54585714D01*
X73816666Y-54680952D01*
X73769047Y-54728571D01*
X73673809Y-54776190D01*
X73292857Y-54776190D01*
X74721428Y-54585714D02*
X74721428Y-55252380D01*
X74483333Y-54204761D02*
X74245238Y-54919047D01*
X74864285Y-54919047D01*
X72816666Y-60952380D02*
X72816666Y-61666666D01*
X72769047Y-61809523D01*
X72673809Y-61904761D01*
X72530952Y-61952380D01*
X72435714Y-61952380D01*
X73292857Y-61952380D02*
X73292857Y-60952380D01*
X73673809Y-60952380D01*
X73769047Y-61000000D01*
X73816666Y-61047619D01*
X73864285Y-61142857D01*
X73864285Y-61285714D01*
X73816666Y-61380952D01*
X73769047Y-61428571D01*
X73673809Y-61476190D01*
X73292857Y-61476190D01*
X74769047Y-60952380D02*
X74292857Y-60952380D01*
X74245238Y-61428571D01*
X74292857Y-61380952D01*
X74388095Y-61333333D01*
X74626190Y-61333333D01*
X74721428Y-61380952D01*
X74769047Y-61428571D01*
X74816666Y-61523809D01*
X74816666Y-61761904D01*
X74769047Y-61857142D01*
X74721428Y-61904761D01*
X74626190Y-61952380D01*
X74388095Y-61952380D01*
X74292857Y-61904761D01*
X74245238Y-61857142D01*
X124833333Y-95252380D02*
X124500000Y-94776190D01*
X124261904Y-95252380D02*
X124261904Y-94252380D01*
X124642857Y-94252380D01*
X124738095Y-94300000D01*
X124785714Y-94347619D01*
X124833333Y-94442857D01*
X124833333Y-94585714D01*
X124785714Y-94680952D01*
X124738095Y-94728571D01*
X124642857Y-94776190D01*
X124261904Y-94776190D01*
X125785714Y-95252380D02*
X125214285Y-95252380D01*
X125500000Y-95252380D02*
X125500000Y-94252380D01*
X125404761Y-94395238D01*
X125309523Y-94490476D01*
X125214285Y-94538095D01*
X124833333Y-93352380D02*
X124500000Y-92876190D01*
X124261904Y-93352380D02*
X124261904Y-92352380D01*
X124642857Y-92352380D01*
X124738095Y-92400000D01*
X124785714Y-92447619D01*
X124833333Y-92542857D01*
X124833333Y-92685714D01*
X124785714Y-92780952D01*
X124738095Y-92828571D01*
X124642857Y-92876190D01*
X124261904Y-92876190D01*
X125214285Y-92447619D02*
X125261904Y-92400000D01*
X125357142Y-92352380D01*
X125595238Y-92352380D01*
X125690476Y-92400000D01*
X125738095Y-92447619D01*
X125785714Y-92542857D01*
X125785714Y-92638095D01*
X125738095Y-92780952D01*
X125166666Y-93352380D01*
X125785714Y-93352380D01*
X172052380Y-61942857D02*
X171576190Y-62276190D01*
X172052380Y-62514285D02*
X171052380Y-62514285D01*
X171052380Y-62133333D01*
X171100000Y-62038095D01*
X171147619Y-61990476D01*
X171242857Y-61942857D01*
X171385714Y-61942857D01*
X171480952Y-61990476D01*
X171528571Y-62038095D01*
X171576190Y-62133333D01*
X171576190Y-62514285D01*
X172052380Y-60990476D02*
X172052380Y-61561904D01*
X172052380Y-61276190D02*
X171052380Y-61276190D01*
X171195238Y-61371428D01*
X171290476Y-61466666D01*
X171338095Y-61561904D01*
X172052380Y-60038095D02*
X172052380Y-60609523D01*
X172052380Y-60323809D02*
X171052380Y-60323809D01*
X171195238Y-60419047D01*
X171290476Y-60514285D01*
X171338095Y-60609523D01*
X170452380Y-61992857D02*
X169976190Y-62326190D01*
X170452380Y-62564285D02*
X169452380Y-62564285D01*
X169452380Y-62183333D01*
X169500000Y-62088095D01*
X169547619Y-62040476D01*
X169642857Y-61992857D01*
X169785714Y-61992857D01*
X169880952Y-62040476D01*
X169928571Y-62088095D01*
X169976190Y-62183333D01*
X169976190Y-62564285D01*
X170452380Y-61040476D02*
X170452380Y-61611904D01*
X170452380Y-61326190D02*
X169452380Y-61326190D01*
X169595238Y-61421428D01*
X169690476Y-61516666D01*
X169738095Y-61611904D01*
X169547619Y-60659523D02*
X169500000Y-60611904D01*
X169452380Y-60516666D01*
X169452380Y-60278571D01*
X169500000Y-60183333D01*
X169547619Y-60135714D01*
X169642857Y-60088095D01*
X169738095Y-60088095D01*
X169880952Y-60135714D01*
X170452380Y-60707142D01*
X170452380Y-60088095D01*
X176857142Y-69352380D02*
X176523809Y-68876190D01*
X176285714Y-69352380D02*
X176285714Y-68352380D01*
X176666666Y-68352380D01*
X176761904Y-68400000D01*
X176809523Y-68447619D01*
X176857142Y-68542857D01*
X176857142Y-68685714D01*
X176809523Y-68780952D01*
X176761904Y-68828571D01*
X176666666Y-68876190D01*
X176285714Y-68876190D01*
X177809523Y-69352380D02*
X177238095Y-69352380D01*
X177523809Y-69352380D02*
X177523809Y-68352380D01*
X177428571Y-68495238D01*
X177333333Y-68590476D01*
X177238095Y-68638095D01*
X178142857Y-68352380D02*
X178761904Y-68352380D01*
X178428571Y-68733333D01*
X178571428Y-68733333D01*
X178666666Y-68780952D01*
X178714285Y-68828571D01*
X178761904Y-68923809D01*
X178761904Y-69161904D01*
X178714285Y-69257142D01*
X178666666Y-69304761D01*
X178571428Y-69352380D01*
X178285714Y-69352380D01*
X178190476Y-69304761D01*
X178142857Y-69257142D01*
X176857142Y-71052380D02*
X176523809Y-70576190D01*
X176285714Y-71052380D02*
X176285714Y-70052380D01*
X176666666Y-70052380D01*
X176761904Y-70100000D01*
X176809523Y-70147619D01*
X176857142Y-70242857D01*
X176857142Y-70385714D01*
X176809523Y-70480952D01*
X176761904Y-70528571D01*
X176666666Y-70576190D01*
X176285714Y-70576190D01*
X177809523Y-71052380D02*
X177238095Y-71052380D01*
X177523809Y-71052380D02*
X177523809Y-70052380D01*
X177428571Y-70195238D01*
X177333333Y-70290476D01*
X177238095Y-70338095D01*
X178666666Y-70385714D02*
X178666666Y-71052380D01*
X178428571Y-70004761D02*
X178190476Y-70719047D01*
X178809523Y-70719047D01*
X172202380Y-89142857D02*
X171726190Y-89476190D01*
X172202380Y-89714285D02*
X171202380Y-89714285D01*
X171202380Y-89333333D01*
X171250000Y-89238095D01*
X171297619Y-89190476D01*
X171392857Y-89142857D01*
X171535714Y-89142857D01*
X171630952Y-89190476D01*
X171678571Y-89238095D01*
X171726190Y-89333333D01*
X171726190Y-89714285D01*
X172202380Y-88190476D02*
X172202380Y-88761904D01*
X172202380Y-88476190D02*
X171202380Y-88476190D01*
X171345238Y-88571428D01*
X171440476Y-88666666D01*
X171488095Y-88761904D01*
X171202380Y-87285714D02*
X171202380Y-87761904D01*
X171678571Y-87809523D01*
X171630952Y-87761904D01*
X171583333Y-87666666D01*
X171583333Y-87428571D01*
X171630952Y-87333333D01*
X171678571Y-87285714D01*
X171773809Y-87238095D01*
X172011904Y-87238095D01*
X172107142Y-87285714D01*
X172154761Y-87333333D01*
X172202380Y-87428571D01*
X172202380Y-87666666D01*
X172154761Y-87761904D01*
X172107142Y-87809523D01*
X170202380Y-89142857D02*
X169726190Y-89476190D01*
X170202380Y-89714285D02*
X169202380Y-89714285D01*
X169202380Y-89333333D01*
X169250000Y-89238095D01*
X169297619Y-89190476D01*
X169392857Y-89142857D01*
X169535714Y-89142857D01*
X169630952Y-89190476D01*
X169678571Y-89238095D01*
X169726190Y-89333333D01*
X169726190Y-89714285D01*
X170202380Y-88190476D02*
X170202380Y-88761904D01*
X170202380Y-88476190D02*
X169202380Y-88476190D01*
X169345238Y-88571428D01*
X169440476Y-88666666D01*
X169488095Y-88761904D01*
X169202380Y-87333333D02*
X169202380Y-87523809D01*
X169250000Y-87619047D01*
X169297619Y-87666666D01*
X169440476Y-87761904D01*
X169630952Y-87809523D01*
X170011904Y-87809523D01*
X170107142Y-87761904D01*
X170154761Y-87714285D01*
X170202380Y-87619047D01*
X170202380Y-87428571D01*
X170154761Y-87333333D01*
X170107142Y-87285714D01*
X170011904Y-87238095D01*
X169773809Y-87238095D01*
X169678571Y-87285714D01*
X169630952Y-87333333D01*
X169583333Y-87428571D01*
X169583333Y-87619047D01*
X169630952Y-87714285D01*
X169678571Y-87761904D01*
X169773809Y-87809523D01*
X172957142Y-99782380D02*
X172623809Y-99306190D01*
X172385714Y-99782380D02*
X172385714Y-98782380D01*
X172766666Y-98782380D01*
X172861904Y-98830000D01*
X172909523Y-98877619D01*
X172957142Y-98972857D01*
X172957142Y-99115714D01*
X172909523Y-99210952D01*
X172861904Y-99258571D01*
X172766666Y-99306190D01*
X172385714Y-99306190D01*
X173909523Y-99782380D02*
X173338095Y-99782380D01*
X173623809Y-99782380D02*
X173623809Y-98782380D01*
X173528571Y-98925238D01*
X173433333Y-99020476D01*
X173338095Y-99068095D01*
X174242857Y-98782380D02*
X174909523Y-98782380D01*
X174480952Y-99782380D01*
X109252380Y-102242857D02*
X108776190Y-102576190D01*
X109252380Y-102814285D02*
X108252380Y-102814285D01*
X108252380Y-102433333D01*
X108300000Y-102338095D01*
X108347619Y-102290476D01*
X108442857Y-102242857D01*
X108585714Y-102242857D01*
X108680952Y-102290476D01*
X108728571Y-102338095D01*
X108776190Y-102433333D01*
X108776190Y-102814285D01*
X109252380Y-101290476D02*
X109252380Y-101861904D01*
X109252380Y-101576190D02*
X108252380Y-101576190D01*
X108395238Y-101671428D01*
X108490476Y-101766666D01*
X108538095Y-101861904D01*
X108680952Y-100719047D02*
X108633333Y-100814285D01*
X108585714Y-100861904D01*
X108490476Y-100909523D01*
X108442857Y-100909523D01*
X108347619Y-100861904D01*
X108300000Y-100814285D01*
X108252380Y-100719047D01*
X108252380Y-100528571D01*
X108300000Y-100433333D01*
X108347619Y-100385714D01*
X108442857Y-100338095D01*
X108490476Y-100338095D01*
X108585714Y-100385714D01*
X108633333Y-100433333D01*
X108680952Y-100528571D01*
X108680952Y-100719047D01*
X108728571Y-100814285D01*
X108776190Y-100861904D01*
X108871428Y-100909523D01*
X109061904Y-100909523D01*
X109157142Y-100861904D01*
X109204761Y-100814285D01*
X109252380Y-100719047D01*
X109252380Y-100528571D01*
X109204761Y-100433333D01*
X109157142Y-100385714D01*
X109061904Y-100338095D01*
X108871428Y-100338095D01*
X108776190Y-100385714D01*
X108728571Y-100433333D01*
X108680952Y-100528571D01*
X136352380Y-43942857D02*
X135876190Y-44276190D01*
X136352380Y-44514285D02*
X135352380Y-44514285D01*
X135352380Y-44133333D01*
X135400000Y-44038095D01*
X135447619Y-43990476D01*
X135542857Y-43942857D01*
X135685714Y-43942857D01*
X135780952Y-43990476D01*
X135828571Y-44038095D01*
X135876190Y-44133333D01*
X135876190Y-44514285D01*
X136352380Y-42990476D02*
X136352380Y-43561904D01*
X136352380Y-43276190D02*
X135352380Y-43276190D01*
X135495238Y-43371428D01*
X135590476Y-43466666D01*
X135638095Y-43561904D01*
X136352380Y-42514285D02*
X136352380Y-42323809D01*
X136304761Y-42228571D01*
X136257142Y-42180952D01*
X136114285Y-42085714D01*
X135923809Y-42038095D01*
X135542857Y-42038095D01*
X135447619Y-42085714D01*
X135400000Y-42133333D01*
X135352380Y-42228571D01*
X135352380Y-42419047D01*
X135400000Y-42514285D01*
X135447619Y-42561904D01*
X135542857Y-42609523D01*
X135780952Y-42609523D01*
X135876190Y-42561904D01*
X135923809Y-42514285D01*
X135971428Y-42419047D01*
X135971428Y-42228571D01*
X135923809Y-42133333D01*
X135876190Y-42085714D01*
X135780952Y-42038095D01*
X83957142Y-106352380D02*
X83623809Y-105876190D01*
X83385714Y-106352380D02*
X83385714Y-105352380D01*
X83766666Y-105352380D01*
X83861904Y-105400000D01*
X83909523Y-105447619D01*
X83957142Y-105542857D01*
X83957142Y-105685714D01*
X83909523Y-105780952D01*
X83861904Y-105828571D01*
X83766666Y-105876190D01*
X83385714Y-105876190D01*
X84338095Y-105447619D02*
X84385714Y-105400000D01*
X84480952Y-105352380D01*
X84719047Y-105352380D01*
X84814285Y-105400000D01*
X84861904Y-105447619D01*
X84909523Y-105542857D01*
X84909523Y-105638095D01*
X84861904Y-105780952D01*
X84290476Y-106352380D01*
X84909523Y-106352380D01*
X85528571Y-105352380D02*
X85623809Y-105352380D01*
X85719047Y-105400000D01*
X85766666Y-105447619D01*
X85814285Y-105542857D01*
X85861904Y-105733333D01*
X85861904Y-105971428D01*
X85814285Y-106161904D01*
X85766666Y-106257142D01*
X85719047Y-106304761D01*
X85623809Y-106352380D01*
X85528571Y-106352380D01*
X85433333Y-106304761D01*
X85385714Y-106257142D01*
X85338095Y-106161904D01*
X85290476Y-105971428D01*
X85290476Y-105733333D01*
X85338095Y-105542857D01*
X85385714Y-105447619D01*
X85433333Y-105400000D01*
X85528571Y-105352380D01*
X83957142Y-110952380D02*
X83623809Y-110476190D01*
X83385714Y-110952380D02*
X83385714Y-109952380D01*
X83766666Y-109952380D01*
X83861904Y-110000000D01*
X83909523Y-110047619D01*
X83957142Y-110142857D01*
X83957142Y-110285714D01*
X83909523Y-110380952D01*
X83861904Y-110428571D01*
X83766666Y-110476190D01*
X83385714Y-110476190D01*
X84338095Y-110047619D02*
X84385714Y-110000000D01*
X84480952Y-109952380D01*
X84719047Y-109952380D01*
X84814285Y-110000000D01*
X84861904Y-110047619D01*
X84909523Y-110142857D01*
X84909523Y-110238095D01*
X84861904Y-110380952D01*
X84290476Y-110952380D01*
X84909523Y-110952380D01*
X85861904Y-110952380D02*
X85290476Y-110952380D01*
X85576190Y-110952380D02*
X85576190Y-109952380D01*
X85480952Y-110095238D01*
X85385714Y-110190476D01*
X85290476Y-110238095D01*
X126438095Y-97204380D02*
X127009523Y-97204380D01*
X126723809Y-98204380D02*
X126723809Y-97204380D01*
X127342857Y-98204380D02*
X127342857Y-97204380D01*
X127723809Y-97204380D01*
X127819047Y-97252000D01*
X127866666Y-97299619D01*
X127914285Y-97394857D01*
X127914285Y-97537714D01*
X127866666Y-97632952D01*
X127819047Y-97680571D01*
X127723809Y-97728190D01*
X127342857Y-97728190D01*
X128866666Y-98204380D02*
X128295238Y-98204380D01*
X128580952Y-98204380D02*
X128580952Y-97204380D01*
X128485714Y-97347238D01*
X128390476Y-97442476D01*
X128295238Y-97490095D01*
X179552380Y-64361904D02*
X179552380Y-63790476D01*
X180552380Y-64076190D02*
X179552380Y-64076190D01*
X180552380Y-63457142D02*
X179552380Y-63457142D01*
X179552380Y-63076190D01*
X179600000Y-62980952D01*
X179647619Y-62933333D01*
X179742857Y-62885714D01*
X179885714Y-62885714D01*
X179980952Y-62933333D01*
X180028571Y-62980952D01*
X180076190Y-63076190D01*
X180076190Y-63457142D01*
X179647619Y-62504761D02*
X179600000Y-62457142D01*
X179552380Y-62361904D01*
X179552380Y-62123809D01*
X179600000Y-62028571D01*
X179647619Y-61980952D01*
X179742857Y-61933333D01*
X179838095Y-61933333D01*
X179980952Y-61980952D01*
X180552380Y-62552380D01*
X180552380Y-61933333D01*
X179552380Y-67761904D02*
X179552380Y-67190476D01*
X180552380Y-67476190D02*
X179552380Y-67476190D01*
X180552380Y-66857142D02*
X179552380Y-66857142D01*
X179552380Y-66476190D01*
X179600000Y-66380952D01*
X179647619Y-66333333D01*
X179742857Y-66285714D01*
X179885714Y-66285714D01*
X179980952Y-66333333D01*
X180028571Y-66380952D01*
X180076190Y-66476190D01*
X180076190Y-66857142D01*
X179552380Y-65952380D02*
X179552380Y-65333333D01*
X179933333Y-65666666D01*
X179933333Y-65523809D01*
X179980952Y-65428571D01*
X180028571Y-65380952D01*
X180123809Y-65333333D01*
X180361904Y-65333333D01*
X180457142Y-65380952D01*
X180504761Y-65428571D01*
X180552380Y-65523809D01*
X180552380Y-65809523D01*
X180504761Y-65904761D01*
X180457142Y-65952380D01*
X179452380Y-92761904D02*
X179452380Y-92190476D01*
X180452380Y-92476190D02*
X179452380Y-92476190D01*
X180452380Y-91857142D02*
X179452380Y-91857142D01*
X179452380Y-91476190D01*
X179500000Y-91380952D01*
X179547619Y-91333333D01*
X179642857Y-91285714D01*
X179785714Y-91285714D01*
X179880952Y-91333333D01*
X179928571Y-91380952D01*
X179976190Y-91476190D01*
X179976190Y-91857142D01*
X180452380Y-90809523D02*
X180452380Y-90619047D01*
X180404761Y-90523809D01*
X180357142Y-90476190D01*
X180214285Y-90380952D01*
X180023809Y-90333333D01*
X179642857Y-90333333D01*
X179547619Y-90380952D01*
X179500000Y-90428571D01*
X179452380Y-90523809D01*
X179452380Y-90714285D01*
X179500000Y-90809523D01*
X179547619Y-90857142D01*
X179642857Y-90904761D01*
X179880952Y-90904761D01*
X179976190Y-90857142D01*
X180023809Y-90809523D01*
X180071428Y-90714285D01*
X180071428Y-90523809D01*
X180023809Y-90428571D01*
X179976190Y-90380952D01*
X179880952Y-90333333D01*
X179452380Y-97238095D02*
X179452380Y-96666666D01*
X180452380Y-96952380D02*
X179452380Y-96952380D01*
X180452380Y-96333333D02*
X179452380Y-96333333D01*
X179452380Y-95952380D01*
X179500000Y-95857142D01*
X179547619Y-95809523D01*
X179642857Y-95761904D01*
X179785714Y-95761904D01*
X179880952Y-95809523D01*
X179928571Y-95857142D01*
X179976190Y-95952380D01*
X179976190Y-96333333D01*
X180452380Y-94809523D02*
X180452380Y-95380952D01*
X180452380Y-95095238D02*
X179452380Y-95095238D01*
X179595238Y-95190476D01*
X179690476Y-95285714D01*
X179738095Y-95380952D01*
X179452380Y-94190476D02*
X179452380Y-94095238D01*
X179500000Y-94000000D01*
X179547619Y-93952380D01*
X179642857Y-93904761D01*
X179833333Y-93857142D01*
X180071428Y-93857142D01*
X180261904Y-93904761D01*
X180357142Y-93952380D01*
X180404761Y-94000000D01*
X180452380Y-94095238D01*
X180452380Y-94190476D01*
X180404761Y-94285714D01*
X180357142Y-94333333D01*
X180261904Y-94380952D01*
X180071428Y-94428571D01*
X179833333Y-94428571D01*
X179642857Y-94380952D01*
X179547619Y-94333333D01*
X179500000Y-94285714D01*
X179452380Y-94190476D01*
X125761904Y-60454380D02*
X126333333Y-60454380D01*
X126047619Y-61454380D02*
X126047619Y-60454380D01*
X126666666Y-61454380D02*
X126666666Y-60454380D01*
X127047619Y-60454380D01*
X127142857Y-60502000D01*
X127190476Y-60549619D01*
X127238095Y-60644857D01*
X127238095Y-60787714D01*
X127190476Y-60882952D01*
X127142857Y-60930571D01*
X127047619Y-60978190D01*
X126666666Y-60978190D01*
X128190476Y-61454380D02*
X127619047Y-61454380D01*
X127904761Y-61454380D02*
X127904761Y-60454380D01*
X127809523Y-60597238D01*
X127714285Y-60692476D01*
X127619047Y-60740095D01*
X129142857Y-61454380D02*
X128571428Y-61454380D01*
X128857142Y-61454380D02*
X128857142Y-60454380D01*
X128761904Y-60597238D01*
X128666666Y-60692476D01*
X128571428Y-60740095D01*
X125961904Y-84604380D02*
X126533333Y-84604380D01*
X126247619Y-85604380D02*
X126247619Y-84604380D01*
X126866666Y-85604380D02*
X126866666Y-84604380D01*
X127247619Y-84604380D01*
X127342857Y-84652000D01*
X127390476Y-84699619D01*
X127438095Y-84794857D01*
X127438095Y-84937714D01*
X127390476Y-85032952D01*
X127342857Y-85080571D01*
X127247619Y-85128190D01*
X126866666Y-85128190D01*
X128390476Y-85604380D02*
X127819047Y-85604380D01*
X128104761Y-85604380D02*
X128104761Y-84604380D01*
X128009523Y-84747238D01*
X127914285Y-84842476D01*
X127819047Y-84890095D01*
X129247619Y-84937714D02*
X129247619Y-85604380D01*
X129009523Y-84556761D02*
X128771428Y-85271047D01*
X129390476Y-85271047D01*
X116661904Y-90704380D02*
X117233333Y-90704380D01*
X116947619Y-91704380D02*
X116947619Y-90704380D01*
X117566666Y-91704380D02*
X117566666Y-90704380D01*
X117947619Y-90704380D01*
X118042857Y-90752000D01*
X118090476Y-90799619D01*
X118138095Y-90894857D01*
X118138095Y-91037714D01*
X118090476Y-91132952D01*
X118042857Y-91180571D01*
X117947619Y-91228190D01*
X117566666Y-91228190D01*
X119090476Y-91704380D02*
X118519047Y-91704380D01*
X118804761Y-91704380D02*
X118804761Y-90704380D01*
X118709523Y-90847238D01*
X118614285Y-90942476D01*
X118519047Y-90990095D01*
X119995238Y-90704380D02*
X119519047Y-90704380D01*
X119471428Y-91180571D01*
X119519047Y-91132952D01*
X119614285Y-91085333D01*
X119852380Y-91085333D01*
X119947619Y-91132952D01*
X119995238Y-91180571D01*
X120042857Y-91275809D01*
X120042857Y-91513904D01*
X119995238Y-91609142D01*
X119947619Y-91656761D01*
X119852380Y-91704380D01*
X119614285Y-91704380D01*
X119519047Y-91656761D01*
X119471428Y-91609142D01*
X119761904Y-88454380D02*
X120333333Y-88454380D01*
X120047619Y-89454380D02*
X120047619Y-88454380D01*
X120666666Y-89454380D02*
X120666666Y-88454380D01*
X121047619Y-88454380D01*
X121142857Y-88502000D01*
X121190476Y-88549619D01*
X121238095Y-88644857D01*
X121238095Y-88787714D01*
X121190476Y-88882952D01*
X121142857Y-88930571D01*
X121047619Y-88978190D01*
X120666666Y-88978190D01*
X122190476Y-89454380D02*
X121619047Y-89454380D01*
X121904761Y-89454380D02*
X121904761Y-88454380D01*
X121809523Y-88597238D01*
X121714285Y-88692476D01*
X121619047Y-88740095D01*
X123047619Y-88454380D02*
X122857142Y-88454380D01*
X122761904Y-88502000D01*
X122714285Y-88549619D01*
X122619047Y-88692476D01*
X122571428Y-88882952D01*
X122571428Y-89263904D01*
X122619047Y-89359142D01*
X122666666Y-89406761D01*
X122761904Y-89454380D01*
X122952380Y-89454380D01*
X123047619Y-89406761D01*
X123095238Y-89359142D01*
X123142857Y-89263904D01*
X123142857Y-89025809D01*
X123095238Y-88930571D01*
X123047619Y-88882952D01*
X122952380Y-88835333D01*
X122761904Y-88835333D01*
X122666666Y-88882952D01*
X122619047Y-88930571D01*
X122571428Y-89025809D01*
X84792380Y-100161904D02*
X85601904Y-100161904D01*
X85697142Y-100114285D01*
X85744761Y-100066666D01*
X85792380Y-99971428D01*
X85792380Y-99780952D01*
X85744761Y-99685714D01*
X85697142Y-99638095D01*
X85601904Y-99590476D01*
X84792380Y-99590476D01*
X85792380Y-98590476D02*
X85792380Y-99161904D01*
X85792380Y-98876190D02*
X84792380Y-98876190D01*
X84935238Y-98971428D01*
X85030476Y-99066666D01*
X85078095Y-99161904D01*
X92416666Y-99462666D02*
X92416666Y-98762666D01*
X92650000Y-99262666D01*
X92883333Y-98762666D01*
X92883333Y-99462666D01*
X93216666Y-99462666D02*
X93216666Y-98762666D01*
X93550000Y-99462666D02*
X93550000Y-98762666D01*
X93783333Y-99262666D01*
X94016666Y-98762666D01*
X94016666Y-99462666D01*
X94283333Y-98762666D02*
X94750000Y-99462666D01*
X94750000Y-98762666D02*
X94283333Y-99462666D01*
X95416666Y-99462666D02*
X95183333Y-99129333D01*
X95016666Y-99462666D02*
X95016666Y-98762666D01*
X95283333Y-98762666D01*
X95350000Y-98796000D01*
X95383333Y-98829333D01*
X95416666Y-98896000D01*
X95416666Y-98996000D01*
X95383333Y-99062666D01*
X95350000Y-99096000D01*
X95283333Y-99129333D01*
X95016666Y-99129333D01*
X95616666Y-98762666D02*
X96016666Y-98762666D01*
X95816666Y-99462666D02*
X95816666Y-98762666D01*
X96616666Y-99462666D02*
X96216666Y-99462666D01*
X96416666Y-99462666D02*
X96416666Y-98762666D01*
X96350000Y-98862666D01*
X96283333Y-98929333D01*
X96216666Y-98962666D01*
X97050000Y-98762666D02*
X97116666Y-98762666D01*
X97183333Y-98796000D01*
X97216666Y-98829333D01*
X97250000Y-98896000D01*
X97283333Y-99029333D01*
X97283333Y-99196000D01*
X97250000Y-99329333D01*
X97216666Y-99396000D01*
X97183333Y-99429333D01*
X97116666Y-99462666D01*
X97050000Y-99462666D01*
X96983333Y-99429333D01*
X96950000Y-99396000D01*
X96916666Y-99329333D01*
X96883333Y-99196000D01*
X96883333Y-99029333D01*
X96916666Y-98896000D01*
X96950000Y-98829333D01*
X96983333Y-98796000D01*
X97050000Y-98762666D01*
X97883333Y-98762666D02*
X97750000Y-98762666D01*
X97683333Y-98796000D01*
X97650000Y-98829333D01*
X97583333Y-98929333D01*
X97550000Y-99062666D01*
X97550000Y-99329333D01*
X97583333Y-99396000D01*
X97616666Y-99429333D01*
X97683333Y-99462666D01*
X97816666Y-99462666D01*
X97883333Y-99429333D01*
X97916666Y-99396000D01*
X97950000Y-99329333D01*
X97950000Y-99162666D01*
X97916666Y-99096000D01*
X97883333Y-99062666D01*
X97816666Y-99029333D01*
X97683333Y-99029333D01*
X97616666Y-99062666D01*
X97583333Y-99096000D01*
X97550000Y-99162666D01*
X98216666Y-98829333D02*
X98250000Y-98796000D01*
X98316666Y-98762666D01*
X98483333Y-98762666D01*
X98550000Y-98796000D01*
X98583333Y-98829333D01*
X98616666Y-98896000D01*
X98616666Y-98962666D01*
X98583333Y-99062666D01*
X98183333Y-99462666D01*
X98616666Y-99462666D01*
X94100000Y-97938666D02*
X94100000Y-97238666D01*
X94266666Y-97238666D01*
X94366666Y-97272000D01*
X94433333Y-97338666D01*
X94466666Y-97405333D01*
X94500000Y-97538666D01*
X94500000Y-97638666D01*
X94466666Y-97772000D01*
X94433333Y-97838666D01*
X94366666Y-97905333D01*
X94266666Y-97938666D01*
X94100000Y-97938666D01*
X94700000Y-97238666D02*
X94933333Y-97938666D01*
X95166666Y-97238666D01*
X95733333Y-97938666D02*
X95400000Y-97938666D01*
X95400000Y-97238666D01*
X96266666Y-97238666D02*
X96133333Y-97238666D01*
X96066666Y-97272000D01*
X96033333Y-97305333D01*
X95966666Y-97405333D01*
X95933333Y-97538666D01*
X95933333Y-97805333D01*
X95966666Y-97872000D01*
X96000000Y-97905333D01*
X96066666Y-97938666D01*
X96200000Y-97938666D01*
X96266666Y-97905333D01*
X96300000Y-97872000D01*
X96333333Y-97805333D01*
X96333333Y-97638666D01*
X96300000Y-97572000D01*
X96266666Y-97538666D01*
X96200000Y-97505333D01*
X96066666Y-97505333D01*
X96000000Y-97538666D01*
X95966666Y-97572000D01*
X95933333Y-97638666D01*
X96600000Y-97738666D02*
X96933333Y-97738666D01*
X96533333Y-97938666D02*
X96766666Y-97238666D01*
X97000000Y-97938666D01*
X110138095Y-116952380D02*
X110138095Y-117761904D01*
X110185714Y-117857142D01*
X110233333Y-117904761D01*
X110328571Y-117952380D01*
X110519047Y-117952380D01*
X110614285Y-117904761D01*
X110661904Y-117857142D01*
X110709523Y-117761904D01*
X110709523Y-116952380D01*
X111138095Y-117047619D02*
X111185714Y-117000000D01*
X111280952Y-116952380D01*
X111519047Y-116952380D01*
X111614285Y-117000000D01*
X111661904Y-117047619D01*
X111709523Y-117142857D01*
X111709523Y-117238095D01*
X111661904Y-117380952D01*
X111090476Y-117952380D01*
X111709523Y-117952380D01*
X168222380Y-51961904D02*
X169031904Y-51961904D01*
X169127142Y-51914285D01*
X169174761Y-51866666D01*
X169222380Y-51771428D01*
X169222380Y-51580952D01*
X169174761Y-51485714D01*
X169127142Y-51438095D01*
X169031904Y-51390476D01*
X168222380Y-51390476D01*
X168222380Y-51009523D02*
X168222380Y-50390476D01*
X168603333Y-50723809D01*
X168603333Y-50580952D01*
X168650952Y-50485714D01*
X168698571Y-50438095D01*
X168793809Y-50390476D01*
X169031904Y-50390476D01*
X169127142Y-50438095D01*
X169174761Y-50485714D01*
X169222380Y-50580952D01*
X169222380Y-50866666D01*
X169174761Y-50961904D01*
X169127142Y-51009523D01*
X168222380Y-106861904D02*
X169031904Y-106861904D01*
X169127142Y-106814285D01*
X169174761Y-106766666D01*
X169222380Y-106671428D01*
X169222380Y-106480952D01*
X169174761Y-106385714D01*
X169127142Y-106338095D01*
X169031904Y-106290476D01*
X168222380Y-106290476D01*
X168555714Y-105385714D02*
X169222380Y-105385714D01*
X168174761Y-105623809D02*
X168889047Y-105861904D01*
X168889047Y-105242857D01*
X141238095Y-48752380D02*
X141238095Y-49561904D01*
X141285714Y-49657142D01*
X141333333Y-49704761D01*
X141428571Y-49752380D01*
X141619047Y-49752380D01*
X141714285Y-49704761D01*
X141761904Y-49657142D01*
X141809523Y-49561904D01*
X141809523Y-48752380D01*
X142761904Y-48752380D02*
X142285714Y-48752380D01*
X142238095Y-49228571D01*
X142285714Y-49180952D01*
X142380952Y-49133333D01*
X142619047Y-49133333D01*
X142714285Y-49180952D01*
X142761904Y-49228571D01*
X142809523Y-49323809D01*
X142809523Y-49561904D01*
X142761904Y-49657142D01*
X142714285Y-49704761D01*
X142619047Y-49752380D01*
X142380952Y-49752380D01*
X142285714Y-49704761D01*
X142238095Y-49657142D01*
X128552380Y-41461904D02*
X129361904Y-41461904D01*
X129457142Y-41414285D01*
X129504761Y-41366666D01*
X129552380Y-41271428D01*
X129552380Y-41080952D01*
X129504761Y-40985714D01*
X129457142Y-40938095D01*
X129361904Y-40890476D01*
X128552380Y-40890476D01*
X128552380Y-39985714D02*
X128552380Y-40176190D01*
X128600000Y-40271428D01*
X128647619Y-40319047D01*
X128790476Y-40414285D01*
X128980952Y-40461904D01*
X129361904Y-40461904D01*
X129457142Y-40414285D01*
X129504761Y-40366666D01*
X129552380Y-40271428D01*
X129552380Y-40080952D01*
X129504761Y-39985714D01*
X129457142Y-39938095D01*
X129361904Y-39890476D01*
X129123809Y-39890476D01*
X129028571Y-39938095D01*
X128980952Y-39985714D01*
X128933333Y-40080952D01*
X128933333Y-40271428D01*
X128980952Y-40366666D01*
X129028571Y-40414285D01*
X129123809Y-40461904D01*
X123572380Y-109761904D02*
X124381904Y-109761904D01*
X124477142Y-109714285D01*
X124524761Y-109666666D01*
X124572380Y-109571428D01*
X124572380Y-109380952D01*
X124524761Y-109285714D01*
X124477142Y-109238095D01*
X124381904Y-109190476D01*
X123572380Y-109190476D01*
X123572380Y-108809523D02*
X123572380Y-108142857D01*
X124572380Y-108571428D01*
M02*
