G04 #@! TF.GenerationSoftware,KiCad,Pcbnew,5.1.5*
G04 #@! TF.CreationDate,2019-12-18T01:23:40-06:00*
G04 #@! TF.ProjectId,TurtlebotController,54757274-6c65-4626-9f74-436f6e74726f,rev?*
G04 #@! TF.SameCoordinates,Original*
G04 #@! TF.FileFunction,Soldermask,Bot*
G04 #@! TF.FilePolarity,Negative*
%FSLAX46Y46*%
G04 Gerber Fmt 4.6, Leading zero omitted, Abs format (unit mm)*
G04 Created by KiCad (PCBNEW 5.1.5) date 2019-12-18 01:23:40*
%MOMM*%
%LPD*%
G04 APERTURE LIST*
%ADD10C,0.225000*%
%ADD11C,0.050000*%
%ADD12C,0.150000*%
G04 APERTURE END LIST*
D10*
X115161904Y-54508333D02*
X114566666Y-54508333D01*
X115280952Y-54865476D02*
X114864285Y-53615476D01*
X114447619Y-54865476D01*
X114030952Y-54865476D02*
X114030952Y-53615476D01*
X114030952Y-54091666D02*
X113911904Y-54032142D01*
X113673809Y-54032142D01*
X113554761Y-54091666D01*
X113495238Y-54151190D01*
X113435714Y-54270238D01*
X113435714Y-54627380D01*
X113495238Y-54746428D01*
X113554761Y-54805952D01*
X113673809Y-54865476D01*
X113911904Y-54865476D01*
X114030952Y-54805952D01*
X112900000Y-54865476D02*
X112900000Y-54032142D01*
X112900000Y-53615476D02*
X112959523Y-53675000D01*
X112900000Y-53734523D01*
X112840476Y-53675000D01*
X112900000Y-53615476D01*
X112900000Y-53734523D01*
X111828571Y-54805952D02*
X111947619Y-54865476D01*
X112185714Y-54865476D01*
X112304761Y-54805952D01*
X112364285Y-54686904D01*
X112364285Y-54210714D01*
X112304761Y-54091666D01*
X112185714Y-54032142D01*
X111947619Y-54032142D01*
X111828571Y-54091666D01*
X111769047Y-54210714D01*
X111769047Y-54329761D01*
X112364285Y-54448809D01*
X111054761Y-54865476D02*
X111173809Y-54805952D01*
X111233333Y-54686904D01*
X111233333Y-53615476D01*
X109209523Y-54210714D02*
X109626190Y-54210714D01*
X109626190Y-54865476D02*
X109626190Y-53615476D01*
X109030952Y-53615476D01*
X108078571Y-54805952D02*
X108197619Y-54865476D01*
X108435714Y-54865476D01*
X108554761Y-54805952D01*
X108614285Y-54686904D01*
X108614285Y-54210714D01*
X108554761Y-54091666D01*
X108435714Y-54032142D01*
X108197619Y-54032142D01*
X108078571Y-54091666D01*
X108019047Y-54210714D01*
X108019047Y-54329761D01*
X108614285Y-54448809D01*
X107483333Y-54865476D02*
X107483333Y-54032142D01*
X107483333Y-54270238D02*
X107423809Y-54151190D01*
X107364285Y-54091666D01*
X107245238Y-54032142D01*
X107126190Y-54032142D01*
X106709523Y-54032142D02*
X106709523Y-54865476D01*
X106709523Y-54151190D02*
X106650000Y-54091666D01*
X106530952Y-54032142D01*
X106352380Y-54032142D01*
X106233333Y-54091666D01*
X106173809Y-54210714D01*
X106173809Y-54865476D01*
X105042857Y-54865476D02*
X105042857Y-54210714D01*
X105102380Y-54091666D01*
X105221428Y-54032142D01*
X105459523Y-54032142D01*
X105578571Y-54091666D01*
X105042857Y-54805952D02*
X105161904Y-54865476D01*
X105459523Y-54865476D01*
X105578571Y-54805952D01*
X105638095Y-54686904D01*
X105638095Y-54567857D01*
X105578571Y-54448809D01*
X105459523Y-54389285D01*
X105161904Y-54389285D01*
X105042857Y-54329761D01*
X105221428Y-53555952D02*
X105400000Y-53734523D01*
X104447619Y-54032142D02*
X104447619Y-54865476D01*
X104447619Y-54151190D02*
X104388095Y-54091666D01*
X104269047Y-54032142D01*
X104090476Y-54032142D01*
X103971428Y-54091666D01*
X103911904Y-54210714D01*
X103911904Y-54865476D01*
X102780952Y-54865476D02*
X102780952Y-53615476D01*
X102780952Y-54805952D02*
X102900000Y-54865476D01*
X103138095Y-54865476D01*
X103257142Y-54805952D01*
X103316666Y-54746428D01*
X103376190Y-54627380D01*
X103376190Y-54270238D01*
X103316666Y-54151190D01*
X103257142Y-54091666D01*
X103138095Y-54032142D01*
X102900000Y-54032142D01*
X102780952Y-54091666D01*
X101709523Y-54805952D02*
X101828571Y-54865476D01*
X102066666Y-54865476D01*
X102185714Y-54805952D01*
X102245238Y-54686904D01*
X102245238Y-54210714D01*
X102185714Y-54091666D01*
X102066666Y-54032142D01*
X101828571Y-54032142D01*
X101709523Y-54091666D01*
X101650000Y-54210714D01*
X101650000Y-54329761D01*
X102245238Y-54448809D01*
X101233333Y-54032142D02*
X100578571Y-54032142D01*
X101233333Y-54865476D01*
X100578571Y-54865476D01*
X119983333Y-55715476D02*
X119269047Y-55715476D01*
X119626190Y-56965476D02*
X119626190Y-55715476D01*
X118316666Y-56132142D02*
X118316666Y-56965476D01*
X118852380Y-56132142D02*
X118852380Y-56786904D01*
X118792857Y-56905952D01*
X118673809Y-56965476D01*
X118495238Y-56965476D01*
X118376190Y-56905952D01*
X118316666Y-56846428D01*
X117721428Y-56965476D02*
X117721428Y-56132142D01*
X117721428Y-56370238D02*
X117661904Y-56251190D01*
X117602380Y-56191666D01*
X117483333Y-56132142D01*
X117364285Y-56132142D01*
X117126190Y-56132142D02*
X116650000Y-56132142D01*
X116947619Y-55715476D02*
X116947619Y-56786904D01*
X116888095Y-56905952D01*
X116769047Y-56965476D01*
X116650000Y-56965476D01*
X116054761Y-56965476D02*
X116173809Y-56905952D01*
X116233333Y-56786904D01*
X116233333Y-55715476D01*
X115102380Y-56905952D02*
X115221428Y-56965476D01*
X115459523Y-56965476D01*
X115578571Y-56905952D01*
X115638095Y-56786904D01*
X115638095Y-56310714D01*
X115578571Y-56191666D01*
X115459523Y-56132142D01*
X115221428Y-56132142D01*
X115102380Y-56191666D01*
X115042857Y-56310714D01*
X115042857Y-56429761D01*
X115638095Y-56548809D01*
X114507142Y-56965476D02*
X114507142Y-55715476D01*
X114507142Y-56191666D02*
X114388095Y-56132142D01*
X114150000Y-56132142D01*
X114030952Y-56191666D01*
X113971428Y-56251190D01*
X113911904Y-56370238D01*
X113911904Y-56727380D01*
X113971428Y-56846428D01*
X114030952Y-56905952D01*
X114150000Y-56965476D01*
X114388095Y-56965476D01*
X114507142Y-56905952D01*
X113197619Y-56965476D02*
X113316666Y-56905952D01*
X113376190Y-56846428D01*
X113435714Y-56727380D01*
X113435714Y-56370238D01*
X113376190Y-56251190D01*
X113316666Y-56191666D01*
X113197619Y-56132142D01*
X113019047Y-56132142D01*
X112900000Y-56191666D01*
X112840476Y-56251190D01*
X112780952Y-56370238D01*
X112780952Y-56727380D01*
X112840476Y-56846428D01*
X112900000Y-56905952D01*
X113019047Y-56965476D01*
X113197619Y-56965476D01*
X112423809Y-56132142D02*
X111947619Y-56132142D01*
X112245238Y-55715476D02*
X112245238Y-56786904D01*
X112185714Y-56905952D01*
X112066666Y-56965476D01*
X111947619Y-56965476D01*
X110816666Y-56846428D02*
X110876190Y-56905952D01*
X111054761Y-56965476D01*
X111173809Y-56965476D01*
X111352380Y-56905952D01*
X111471428Y-56786904D01*
X111530952Y-56667857D01*
X111590476Y-56429761D01*
X111590476Y-56251190D01*
X111530952Y-56013095D01*
X111471428Y-55894047D01*
X111352380Y-55775000D01*
X111173809Y-55715476D01*
X111054761Y-55715476D01*
X110876190Y-55775000D01*
X110816666Y-55834523D01*
X110102380Y-56965476D02*
X110221428Y-56905952D01*
X110280952Y-56846428D01*
X110340476Y-56727380D01*
X110340476Y-56370238D01*
X110280952Y-56251190D01*
X110221428Y-56191666D01*
X110102380Y-56132142D01*
X109923809Y-56132142D01*
X109804761Y-56191666D01*
X109745238Y-56251190D01*
X109685714Y-56370238D01*
X109685714Y-56727380D01*
X109745238Y-56846428D01*
X109804761Y-56905952D01*
X109923809Y-56965476D01*
X110102380Y-56965476D01*
X109150000Y-56132142D02*
X109150000Y-56965476D01*
X109150000Y-56251190D02*
X109090476Y-56191666D01*
X108971428Y-56132142D01*
X108792857Y-56132142D01*
X108673809Y-56191666D01*
X108614285Y-56310714D01*
X108614285Y-56965476D01*
X108197619Y-56132142D02*
X107721428Y-56132142D01*
X108019047Y-55715476D02*
X108019047Y-56786904D01*
X107959523Y-56905952D01*
X107840476Y-56965476D01*
X107721428Y-56965476D01*
X107304761Y-56965476D02*
X107304761Y-56132142D01*
X107304761Y-56370238D02*
X107245238Y-56251190D01*
X107185714Y-56191666D01*
X107066666Y-56132142D01*
X106947619Y-56132142D01*
X106352380Y-56965476D02*
X106471428Y-56905952D01*
X106530952Y-56846428D01*
X106590476Y-56727380D01*
X106590476Y-56370238D01*
X106530952Y-56251190D01*
X106471428Y-56191666D01*
X106352380Y-56132142D01*
X106173809Y-56132142D01*
X106054761Y-56191666D01*
X105995238Y-56251190D01*
X105935714Y-56370238D01*
X105935714Y-56727380D01*
X105995238Y-56846428D01*
X106054761Y-56905952D01*
X106173809Y-56965476D01*
X106352380Y-56965476D01*
X105221428Y-56965476D02*
X105340476Y-56905952D01*
X105400000Y-56786904D01*
X105400000Y-55715476D01*
X104566666Y-56965476D02*
X104685714Y-56905952D01*
X104745238Y-56786904D01*
X104745238Y-55715476D01*
X103614285Y-56905952D02*
X103733333Y-56965476D01*
X103971428Y-56965476D01*
X104090476Y-56905952D01*
X104150000Y-56786904D01*
X104150000Y-56310714D01*
X104090476Y-56191666D01*
X103971428Y-56132142D01*
X103733333Y-56132142D01*
X103614285Y-56191666D01*
X103554761Y-56310714D01*
X103554761Y-56429761D01*
X104150000Y-56548809D01*
X103019047Y-56965476D02*
X103019047Y-56132142D01*
X103019047Y-56370238D02*
X102959523Y-56251190D01*
X102900000Y-56191666D01*
X102780952Y-56132142D01*
X102661904Y-56132142D01*
X100578571Y-56965476D02*
X100995238Y-56370238D01*
X101292857Y-56965476D02*
X101292857Y-55715476D01*
X100816666Y-55715476D01*
X100697619Y-55775000D01*
X100638095Y-55834523D01*
X100578571Y-55953571D01*
X100578571Y-56132142D01*
X100638095Y-56251190D01*
X100697619Y-56310714D01*
X100816666Y-56370238D01*
X101292857Y-56370238D01*
X99566666Y-56905952D02*
X99685714Y-56965476D01*
X99923809Y-56965476D01*
X100042857Y-56905952D01*
X100102380Y-56786904D01*
X100102380Y-56310714D01*
X100042857Y-56191666D01*
X99923809Y-56132142D01*
X99685714Y-56132142D01*
X99566666Y-56191666D01*
X99507142Y-56310714D01*
X99507142Y-56429761D01*
X100102380Y-56548809D01*
X99090476Y-56132142D02*
X98792857Y-56965476D01*
X98495238Y-56132142D01*
X98019047Y-56846428D02*
X97959523Y-56905952D01*
X98019047Y-56965476D01*
X98078571Y-56905952D01*
X98019047Y-56846428D01*
X98019047Y-56965476D01*
X96530952Y-56608333D02*
X95935714Y-56608333D01*
X96650000Y-56965476D02*
X96233333Y-55715476D01*
X95816666Y-56965476D01*
X110042857Y-57934523D02*
X109983333Y-57875000D01*
X109864285Y-57815476D01*
X109566666Y-57815476D01*
X109447619Y-57875000D01*
X109388095Y-57934523D01*
X109328571Y-58053571D01*
X109328571Y-58172619D01*
X109388095Y-58351190D01*
X110102380Y-59065476D01*
X109328571Y-59065476D01*
X108554761Y-57815476D02*
X108435714Y-57815476D01*
X108316666Y-57875000D01*
X108257142Y-57934523D01*
X108197619Y-58053571D01*
X108138095Y-58291666D01*
X108138095Y-58589285D01*
X108197619Y-58827380D01*
X108257142Y-58946428D01*
X108316666Y-59005952D01*
X108435714Y-59065476D01*
X108554761Y-59065476D01*
X108673809Y-59005952D01*
X108733333Y-58946428D01*
X108792857Y-58827380D01*
X108852380Y-58589285D01*
X108852380Y-58291666D01*
X108792857Y-58053571D01*
X108733333Y-57934523D01*
X108673809Y-57875000D01*
X108554761Y-57815476D01*
X106947619Y-59065476D02*
X107661904Y-59065476D01*
X107304761Y-59065476D02*
X107304761Y-57815476D01*
X107423809Y-57994047D01*
X107542857Y-58113095D01*
X107661904Y-58172619D01*
X106352380Y-59065476D02*
X106114285Y-59065476D01*
X105995238Y-59005952D01*
X105935714Y-58946428D01*
X105816666Y-58767857D01*
X105757142Y-58529761D01*
X105757142Y-58053571D01*
X105816666Y-57934523D01*
X105876190Y-57875000D01*
X105995238Y-57815476D01*
X106233333Y-57815476D01*
X106352380Y-57875000D01*
X106411904Y-57934523D01*
X106471428Y-58053571D01*
X106471428Y-58351190D01*
X106411904Y-58470238D01*
X106352380Y-58529761D01*
X106233333Y-58589285D01*
X105995238Y-58589285D01*
X105876190Y-58529761D01*
X105816666Y-58470238D01*
X105757142Y-58351190D01*
D11*
X174500000Y-118400000D02*
X78500000Y-118400000D01*
X181500000Y-45400000D02*
X181500000Y-111400000D01*
X78500000Y-38400000D02*
X174500000Y-38400000D01*
X71500000Y-111400000D02*
X71500000Y-45400000D01*
X181500000Y-111400000D02*
G75*
G02X174500000Y-118400000I-7000000J0D01*
G01*
X174500000Y-38400000D02*
G75*
G02X181500000Y-45400000I0J-7000000D01*
G01*
X78500000Y-118400000D02*
G75*
G02X71500000Y-111400000I0J7000000D01*
G01*
X71500000Y-45400000D02*
G75*
G02X78500000Y-38400000I7000000J0D01*
G01*
D12*
G36*
X111668228Y-115801703D02*
G01*
X111823100Y-115865853D01*
X111962481Y-115958985D01*
X112081015Y-116077519D01*
X112174147Y-116216900D01*
X112238297Y-116371772D01*
X112271000Y-116536184D01*
X112271000Y-116703816D01*
X112238297Y-116868228D01*
X112174147Y-117023100D01*
X112081015Y-117162481D01*
X111962481Y-117281015D01*
X111823100Y-117374147D01*
X111668228Y-117438297D01*
X111503816Y-117471000D01*
X111336184Y-117471000D01*
X111171772Y-117438297D01*
X111016900Y-117374147D01*
X110877519Y-117281015D01*
X110758985Y-117162481D01*
X110665853Y-117023100D01*
X110601703Y-116868228D01*
X110569000Y-116703816D01*
X110569000Y-116536184D01*
X110601703Y-116371772D01*
X110665853Y-116216900D01*
X110758985Y-116077519D01*
X110877519Y-115958985D01*
X111016900Y-115865853D01*
X111171772Y-115801703D01*
X111336184Y-115769000D01*
X111503816Y-115769000D01*
X111668228Y-115801703D01*
G37*
G36*
X119288228Y-115801703D02*
G01*
X119443100Y-115865853D01*
X119582481Y-115958985D01*
X119701015Y-116077519D01*
X119794147Y-116216900D01*
X119858297Y-116371772D01*
X119891000Y-116536184D01*
X119891000Y-116703816D01*
X119858297Y-116868228D01*
X119794147Y-117023100D01*
X119701015Y-117162481D01*
X119582481Y-117281015D01*
X119443100Y-117374147D01*
X119288228Y-117438297D01*
X119123816Y-117471000D01*
X118956184Y-117471000D01*
X118791772Y-117438297D01*
X118636900Y-117374147D01*
X118497519Y-117281015D01*
X118378985Y-117162481D01*
X118285853Y-117023100D01*
X118221703Y-116868228D01*
X118189000Y-116703816D01*
X118189000Y-116536184D01*
X118221703Y-116371772D01*
X118285853Y-116216900D01*
X118378985Y-116077519D01*
X118497519Y-115958985D01*
X118636900Y-115865853D01*
X118791772Y-115801703D01*
X118956184Y-115769000D01*
X119123816Y-115769000D01*
X119288228Y-115801703D01*
G37*
G36*
X121828228Y-115801703D02*
G01*
X121983100Y-115865853D01*
X122122481Y-115958985D01*
X122241015Y-116077519D01*
X122334147Y-116216900D01*
X122398297Y-116371772D01*
X122431000Y-116536184D01*
X122431000Y-116703816D01*
X122398297Y-116868228D01*
X122334147Y-117023100D01*
X122241015Y-117162481D01*
X122122481Y-117281015D01*
X121983100Y-117374147D01*
X121828228Y-117438297D01*
X121663816Y-117471000D01*
X121496184Y-117471000D01*
X121331772Y-117438297D01*
X121176900Y-117374147D01*
X121037519Y-117281015D01*
X120918985Y-117162481D01*
X120825853Y-117023100D01*
X120761703Y-116868228D01*
X120729000Y-116703816D01*
X120729000Y-116536184D01*
X120761703Y-116371772D01*
X120825853Y-116216900D01*
X120918985Y-116077519D01*
X121037519Y-115958985D01*
X121176900Y-115865853D01*
X121331772Y-115801703D01*
X121496184Y-115769000D01*
X121663816Y-115769000D01*
X121828228Y-115801703D01*
G37*
G36*
X114208228Y-115801703D02*
G01*
X114363100Y-115865853D01*
X114502481Y-115958985D01*
X114621015Y-116077519D01*
X114714147Y-116216900D01*
X114778297Y-116371772D01*
X114811000Y-116536184D01*
X114811000Y-116703816D01*
X114778297Y-116868228D01*
X114714147Y-117023100D01*
X114621015Y-117162481D01*
X114502481Y-117281015D01*
X114363100Y-117374147D01*
X114208228Y-117438297D01*
X114043816Y-117471000D01*
X113876184Y-117471000D01*
X113711772Y-117438297D01*
X113556900Y-117374147D01*
X113417519Y-117281015D01*
X113298985Y-117162481D01*
X113205853Y-117023100D01*
X113141703Y-116868228D01*
X113109000Y-116703816D01*
X113109000Y-116536184D01*
X113141703Y-116371772D01*
X113205853Y-116216900D01*
X113298985Y-116077519D01*
X113417519Y-115958985D01*
X113556900Y-115865853D01*
X113711772Y-115801703D01*
X113876184Y-115769000D01*
X114043816Y-115769000D01*
X114208228Y-115801703D01*
G37*
G36*
X116748228Y-115801703D02*
G01*
X116903100Y-115865853D01*
X117042481Y-115958985D01*
X117161015Y-116077519D01*
X117254147Y-116216900D01*
X117318297Y-116371772D01*
X117351000Y-116536184D01*
X117351000Y-116703816D01*
X117318297Y-116868228D01*
X117254147Y-117023100D01*
X117161015Y-117162481D01*
X117042481Y-117281015D01*
X116903100Y-117374147D01*
X116748228Y-117438297D01*
X116583816Y-117471000D01*
X116416184Y-117471000D01*
X116251772Y-117438297D01*
X116096900Y-117374147D01*
X115957519Y-117281015D01*
X115838985Y-117162481D01*
X115745853Y-117023100D01*
X115681703Y-116868228D01*
X115649000Y-116703816D01*
X115649000Y-116536184D01*
X115681703Y-116371772D01*
X115745853Y-116216900D01*
X115838985Y-116077519D01*
X115957519Y-115958985D01*
X116096900Y-115865853D01*
X116251772Y-115801703D01*
X116416184Y-115769000D01*
X116583816Y-115769000D01*
X116748228Y-115801703D01*
G37*
G36*
X103971000Y-116761000D02*
G01*
X102269000Y-116761000D01*
X102269000Y-115059000D01*
X103971000Y-115059000D01*
X103971000Y-116761000D01*
G37*
G36*
X88128228Y-115091703D02*
G01*
X88283100Y-115155853D01*
X88422481Y-115248985D01*
X88541015Y-115367519D01*
X88634147Y-115506900D01*
X88698297Y-115661772D01*
X88731000Y-115826184D01*
X88731000Y-115993816D01*
X88698297Y-116158228D01*
X88634147Y-116313100D01*
X88541015Y-116452481D01*
X88422481Y-116571015D01*
X88283100Y-116664147D01*
X88128228Y-116728297D01*
X87963816Y-116761000D01*
X87796184Y-116761000D01*
X87631772Y-116728297D01*
X87476900Y-116664147D01*
X87337519Y-116571015D01*
X87218985Y-116452481D01*
X87125853Y-116313100D01*
X87061703Y-116158228D01*
X87029000Y-115993816D01*
X87029000Y-115826184D01*
X87061703Y-115661772D01*
X87125853Y-115506900D01*
X87218985Y-115367519D01*
X87337519Y-115248985D01*
X87476900Y-115155853D01*
X87631772Y-115091703D01*
X87796184Y-115059000D01*
X87963816Y-115059000D01*
X88128228Y-115091703D01*
G37*
G36*
X168354795Y-113320156D02*
G01*
X168461150Y-113341311D01*
X168561334Y-113382809D01*
X168661520Y-113424307D01*
X168841844Y-113544795D01*
X168995205Y-113698156D01*
X169115693Y-113878480D01*
X169198689Y-114078851D01*
X169240588Y-114289487D01*
X169241000Y-114291561D01*
X169241000Y-114508439D01*
X169198689Y-114721150D01*
X169179116Y-114768402D01*
X169115693Y-114921520D01*
X168995205Y-115101844D01*
X168841844Y-115255205D01*
X168661520Y-115375693D01*
X168461150Y-115458689D01*
X168354794Y-115479845D01*
X168248440Y-115501000D01*
X168031560Y-115501000D01*
X167925206Y-115479845D01*
X167818850Y-115458689D01*
X167618480Y-115375693D01*
X167438156Y-115255205D01*
X167284795Y-115101844D01*
X167164307Y-114921520D01*
X167100884Y-114768402D01*
X167081311Y-114721150D01*
X167039000Y-114508439D01*
X167039000Y-114291561D01*
X167039413Y-114289487D01*
X167081311Y-114078851D01*
X167164307Y-113878480D01*
X167284795Y-113698156D01*
X167438156Y-113544795D01*
X167618480Y-113424307D01*
X167718666Y-113382809D01*
X167818850Y-113341311D01*
X167925205Y-113320156D01*
X168031560Y-113299000D01*
X168248440Y-113299000D01*
X168354795Y-113320156D01*
G37*
G36*
X166701000Y-115501000D02*
G01*
X164499000Y-115501000D01*
X164499000Y-113299000D01*
X166701000Y-113299000D01*
X166701000Y-115501000D01*
G37*
G36*
X161414795Y-113320156D02*
G01*
X161521150Y-113341311D01*
X161621334Y-113382809D01*
X161721520Y-113424307D01*
X161901844Y-113544795D01*
X162055205Y-113698156D01*
X162175693Y-113878480D01*
X162258689Y-114078851D01*
X162300588Y-114289487D01*
X162301000Y-114291561D01*
X162301000Y-114508439D01*
X162258689Y-114721150D01*
X162239116Y-114768402D01*
X162175693Y-114921520D01*
X162055205Y-115101844D01*
X161901844Y-115255205D01*
X161721520Y-115375693D01*
X161521150Y-115458689D01*
X161414794Y-115479845D01*
X161308440Y-115501000D01*
X161091560Y-115501000D01*
X160985206Y-115479845D01*
X160878850Y-115458689D01*
X160678480Y-115375693D01*
X160498156Y-115255205D01*
X160344795Y-115101844D01*
X160224307Y-114921520D01*
X160160884Y-114768402D01*
X160141311Y-114721150D01*
X160099000Y-114508439D01*
X160099000Y-114291561D01*
X160099413Y-114289487D01*
X160141311Y-114078851D01*
X160224307Y-113878480D01*
X160344795Y-113698156D01*
X160498156Y-113544795D01*
X160678480Y-113424307D01*
X160778666Y-113382809D01*
X160878850Y-113341311D01*
X160985205Y-113320156D01*
X161091560Y-113299000D01*
X161308440Y-113299000D01*
X161414795Y-113320156D01*
G37*
G36*
X159761000Y-115501000D02*
G01*
X157559000Y-115501000D01*
X157559000Y-113299000D01*
X159761000Y-113299000D01*
X159761000Y-115501000D01*
G37*
G36*
X152701000Y-115501000D02*
G01*
X150499000Y-115501000D01*
X150499000Y-113299000D01*
X152701000Y-113299000D01*
X152701000Y-115501000D01*
G37*
G36*
X154354795Y-113320156D02*
G01*
X154461150Y-113341311D01*
X154561334Y-113382809D01*
X154661520Y-113424307D01*
X154841844Y-113544795D01*
X154995205Y-113698156D01*
X155115693Y-113878480D01*
X155198689Y-114078851D01*
X155240588Y-114289487D01*
X155241000Y-114291561D01*
X155241000Y-114508439D01*
X155198689Y-114721150D01*
X155179116Y-114768402D01*
X155115693Y-114921520D01*
X154995205Y-115101844D01*
X154841844Y-115255205D01*
X154661520Y-115375693D01*
X154461150Y-115458689D01*
X154354794Y-115479845D01*
X154248440Y-115501000D01*
X154031560Y-115501000D01*
X153925206Y-115479845D01*
X153818850Y-115458689D01*
X153618480Y-115375693D01*
X153438156Y-115255205D01*
X153284795Y-115101844D01*
X153164307Y-114921520D01*
X153100884Y-114768402D01*
X153081311Y-114721150D01*
X153039000Y-114508439D01*
X153039000Y-114291561D01*
X153039413Y-114289487D01*
X153081311Y-114078851D01*
X153164307Y-113878480D01*
X153284795Y-113698156D01*
X153438156Y-113544795D01*
X153618480Y-113424307D01*
X153718666Y-113382809D01*
X153818850Y-113341311D01*
X153925205Y-113320156D01*
X154031560Y-113299000D01*
X154248440Y-113299000D01*
X154354795Y-113320156D01*
G37*
G36*
X120609487Y-112658996D02*
G01*
X120846253Y-112757068D01*
X120846255Y-112757069D01*
X121059339Y-112899447D01*
X121240553Y-113080661D01*
X121377880Y-113286185D01*
X121382932Y-113293747D01*
X121481004Y-113530513D01*
X121531000Y-113781861D01*
X121531000Y-114038139D01*
X121481004Y-114289487D01*
X121454932Y-114352429D01*
X121382931Y-114526255D01*
X121240553Y-114739339D01*
X121059339Y-114920553D01*
X120846255Y-115062931D01*
X120846254Y-115062932D01*
X120846253Y-115062932D01*
X120609487Y-115161004D01*
X120358139Y-115211000D01*
X120101861Y-115211000D01*
X119850513Y-115161004D01*
X119613747Y-115062932D01*
X119613746Y-115062932D01*
X119613745Y-115062931D01*
X119400661Y-114920553D01*
X119219447Y-114739339D01*
X119077069Y-114526255D01*
X119005068Y-114352429D01*
X118978996Y-114289487D01*
X118929000Y-114038139D01*
X118929000Y-113781861D01*
X118978996Y-113530513D01*
X119077068Y-113293747D01*
X119082121Y-113286185D01*
X119219447Y-113080661D01*
X119400661Y-112899447D01*
X119613745Y-112757069D01*
X119613747Y-112757068D01*
X119850513Y-112658996D01*
X120101861Y-112609000D01*
X120358139Y-112609000D01*
X120609487Y-112658996D01*
G37*
G36*
X79608710Y-107745070D02*
G01*
X80300447Y-108031597D01*
X80507022Y-108169626D01*
X80922996Y-108447571D01*
X81452429Y-108977004D01*
X81730374Y-109392978D01*
X81868403Y-109599553D01*
X82154930Y-110291290D01*
X82301000Y-111025633D01*
X82301000Y-111774367D01*
X82154930Y-112508710D01*
X81868403Y-113200447D01*
X81730374Y-113407022D01*
X81452429Y-113822996D01*
X80922996Y-114352429D01*
X80507022Y-114630374D01*
X80300447Y-114768403D01*
X79608710Y-115054930D01*
X78874367Y-115201000D01*
X78125633Y-115201000D01*
X77391290Y-115054930D01*
X76699553Y-114768403D01*
X76492978Y-114630374D01*
X76077004Y-114352429D01*
X75547571Y-113822996D01*
X75269626Y-113407022D01*
X75131597Y-113200447D01*
X74845070Y-112508710D01*
X74699000Y-111774367D01*
X74699000Y-111025633D01*
X74845070Y-110291290D01*
X75131597Y-109599553D01*
X75269626Y-109392978D01*
X75547571Y-108977004D01*
X76077004Y-108447571D01*
X76492978Y-108169626D01*
X76699553Y-108031597D01*
X77391290Y-107745070D01*
X78125633Y-107599000D01*
X78874367Y-107599000D01*
X79608710Y-107745070D01*
G37*
G36*
X175608710Y-107745070D02*
G01*
X176300447Y-108031597D01*
X176507022Y-108169626D01*
X176922996Y-108447571D01*
X177452429Y-108977004D01*
X177730374Y-109392978D01*
X177868403Y-109599553D01*
X178154930Y-110291290D01*
X178301000Y-111025633D01*
X178301000Y-111774367D01*
X178154930Y-112508710D01*
X177868403Y-113200447D01*
X177730374Y-113407022D01*
X177452429Y-113822996D01*
X176922996Y-114352429D01*
X176507022Y-114630374D01*
X176300447Y-114768403D01*
X175608710Y-115054930D01*
X174874367Y-115201000D01*
X174125633Y-115201000D01*
X173391290Y-115054930D01*
X172699553Y-114768403D01*
X172492978Y-114630374D01*
X172077004Y-114352429D01*
X171547571Y-113822996D01*
X171269626Y-113407022D01*
X171131597Y-113200447D01*
X170845070Y-112508710D01*
X170699000Y-111774367D01*
X170699000Y-111025633D01*
X170845070Y-110291290D01*
X171131597Y-109599553D01*
X171269626Y-109392978D01*
X171547571Y-108977004D01*
X172077004Y-108447571D01*
X172492978Y-108169626D01*
X172699553Y-108031597D01*
X173391290Y-107745070D01*
X174125633Y-107599000D01*
X174874367Y-107599000D01*
X175608710Y-107745070D01*
G37*
G36*
X90668228Y-112551703D02*
G01*
X90823100Y-112615853D01*
X90962481Y-112708985D01*
X91081015Y-112827519D01*
X91174147Y-112966900D01*
X91238297Y-113121772D01*
X91271000Y-113286184D01*
X91271000Y-113453816D01*
X91238297Y-113618228D01*
X91174147Y-113773100D01*
X91081015Y-113912481D01*
X90962481Y-114031015D01*
X90823100Y-114124147D01*
X90668228Y-114188297D01*
X90503816Y-114221000D01*
X90336184Y-114221000D01*
X90171772Y-114188297D01*
X90016900Y-114124147D01*
X89877519Y-114031015D01*
X89758985Y-113912481D01*
X89665853Y-113773100D01*
X89601703Y-113618228D01*
X89569000Y-113453816D01*
X89569000Y-113286184D01*
X89601703Y-113121772D01*
X89665853Y-112966900D01*
X89758985Y-112827519D01*
X89877519Y-112708985D01*
X90016900Y-112615853D01*
X90171772Y-112551703D01*
X90336184Y-112519000D01*
X90503816Y-112519000D01*
X90668228Y-112551703D01*
G37*
G36*
X88128228Y-112551703D02*
G01*
X88283100Y-112615853D01*
X88422481Y-112708985D01*
X88541015Y-112827519D01*
X88634147Y-112966900D01*
X88698297Y-113121772D01*
X88731000Y-113286184D01*
X88731000Y-113453816D01*
X88698297Y-113618228D01*
X88634147Y-113773100D01*
X88541015Y-113912481D01*
X88422481Y-114031015D01*
X88283100Y-114124147D01*
X88128228Y-114188297D01*
X87963816Y-114221000D01*
X87796184Y-114221000D01*
X87631772Y-114188297D01*
X87476900Y-114124147D01*
X87337519Y-114031015D01*
X87218985Y-113912481D01*
X87125853Y-113773100D01*
X87061703Y-113618228D01*
X87029000Y-113453816D01*
X87029000Y-113286184D01*
X87061703Y-113121772D01*
X87125853Y-112966900D01*
X87218985Y-112827519D01*
X87337519Y-112708985D01*
X87476900Y-112615853D01*
X87631772Y-112551703D01*
X87796184Y-112519000D01*
X87963816Y-112519000D01*
X88128228Y-112551703D01*
G37*
G36*
X103368228Y-112551703D02*
G01*
X103523100Y-112615853D01*
X103662481Y-112708985D01*
X103781015Y-112827519D01*
X103874147Y-112966900D01*
X103938297Y-113121772D01*
X103971000Y-113286184D01*
X103971000Y-113453816D01*
X103938297Y-113618228D01*
X103874147Y-113773100D01*
X103781015Y-113912481D01*
X103662481Y-114031015D01*
X103523100Y-114124147D01*
X103368228Y-114188297D01*
X103203816Y-114221000D01*
X103036184Y-114221000D01*
X102871772Y-114188297D01*
X102716900Y-114124147D01*
X102577519Y-114031015D01*
X102458985Y-113912481D01*
X102365853Y-113773100D01*
X102301703Y-113618228D01*
X102269000Y-113453816D01*
X102269000Y-113286184D01*
X102301703Y-113121772D01*
X102365853Y-112966900D01*
X102458985Y-112827519D01*
X102577519Y-112708985D01*
X102716900Y-112615853D01*
X102871772Y-112551703D01*
X103036184Y-112519000D01*
X103203816Y-112519000D01*
X103368228Y-112551703D01*
G37*
G36*
X88128228Y-110011703D02*
G01*
X88283100Y-110075853D01*
X88422481Y-110168985D01*
X88541015Y-110287519D01*
X88634147Y-110426900D01*
X88698297Y-110581772D01*
X88731000Y-110746184D01*
X88731000Y-110913816D01*
X88698297Y-111078228D01*
X88634147Y-111233100D01*
X88541015Y-111372481D01*
X88422481Y-111491015D01*
X88283100Y-111584147D01*
X88128228Y-111648297D01*
X87963816Y-111681000D01*
X87796184Y-111681000D01*
X87631772Y-111648297D01*
X87476900Y-111584147D01*
X87337519Y-111491015D01*
X87218985Y-111372481D01*
X87125853Y-111233100D01*
X87061703Y-111078228D01*
X87029000Y-110913816D01*
X87029000Y-110746184D01*
X87061703Y-110581772D01*
X87125853Y-110426900D01*
X87218985Y-110287519D01*
X87337519Y-110168985D01*
X87476900Y-110075853D01*
X87631772Y-110011703D01*
X87796184Y-109979000D01*
X87963816Y-109979000D01*
X88128228Y-110011703D01*
G37*
G36*
X103368228Y-110011703D02*
G01*
X103523100Y-110075853D01*
X103662481Y-110168985D01*
X103781015Y-110287519D01*
X103874147Y-110426900D01*
X103938297Y-110581772D01*
X103971000Y-110746184D01*
X103971000Y-110913816D01*
X103938297Y-111078228D01*
X103874147Y-111233100D01*
X103781015Y-111372481D01*
X103662481Y-111491015D01*
X103523100Y-111584147D01*
X103368228Y-111648297D01*
X103203816Y-111681000D01*
X103036184Y-111681000D01*
X102871772Y-111648297D01*
X102716900Y-111584147D01*
X102577519Y-111491015D01*
X102458985Y-111372481D01*
X102365853Y-111233100D01*
X102301703Y-111078228D01*
X102269000Y-110913816D01*
X102269000Y-110746184D01*
X102301703Y-110581772D01*
X102365853Y-110426900D01*
X102458985Y-110287519D01*
X102577519Y-110168985D01*
X102716900Y-110075853D01*
X102871772Y-110011703D01*
X103036184Y-109979000D01*
X103203816Y-109979000D01*
X103368228Y-110011703D01*
G37*
G36*
X103368228Y-107471703D02*
G01*
X103523100Y-107535853D01*
X103662481Y-107628985D01*
X103781015Y-107747519D01*
X103874147Y-107886900D01*
X103938297Y-108041772D01*
X103971000Y-108206184D01*
X103971000Y-108373816D01*
X103938297Y-108538228D01*
X103874147Y-108693100D01*
X103781015Y-108832481D01*
X103662481Y-108951015D01*
X103523100Y-109044147D01*
X103368228Y-109108297D01*
X103203816Y-109141000D01*
X103036184Y-109141000D01*
X102871772Y-109108297D01*
X102716900Y-109044147D01*
X102577519Y-108951015D01*
X102458985Y-108832481D01*
X102365853Y-108693100D01*
X102301703Y-108538228D01*
X102269000Y-108373816D01*
X102269000Y-108206184D01*
X102301703Y-108041772D01*
X102365853Y-107886900D01*
X102458985Y-107747519D01*
X102577519Y-107628985D01*
X102716900Y-107535853D01*
X102871772Y-107471703D01*
X103036184Y-107439000D01*
X103203816Y-107439000D01*
X103368228Y-107471703D01*
G37*
G36*
X88128228Y-107471703D02*
G01*
X88283100Y-107535853D01*
X88422481Y-107628985D01*
X88541015Y-107747519D01*
X88634147Y-107886900D01*
X88698297Y-108041772D01*
X88731000Y-108206184D01*
X88731000Y-108373816D01*
X88698297Y-108538228D01*
X88634147Y-108693100D01*
X88541015Y-108832481D01*
X88422481Y-108951015D01*
X88283100Y-109044147D01*
X88128228Y-109108297D01*
X87963816Y-109141000D01*
X87796184Y-109141000D01*
X87631772Y-109108297D01*
X87476900Y-109044147D01*
X87337519Y-108951015D01*
X87218985Y-108832481D01*
X87125853Y-108693100D01*
X87061703Y-108538228D01*
X87029000Y-108373816D01*
X87029000Y-108206184D01*
X87061703Y-108041772D01*
X87125853Y-107886900D01*
X87218985Y-107747519D01*
X87337519Y-107628985D01*
X87476900Y-107535853D01*
X87631772Y-107471703D01*
X87796184Y-107439000D01*
X87963816Y-107439000D01*
X88128228Y-107471703D01*
G37*
G36*
X88128228Y-104931703D02*
G01*
X88283100Y-104995853D01*
X88422481Y-105088985D01*
X88541015Y-105207519D01*
X88634147Y-105346900D01*
X88698297Y-105501772D01*
X88731000Y-105666184D01*
X88731000Y-105833816D01*
X88698297Y-105998228D01*
X88634147Y-106153100D01*
X88541015Y-106292481D01*
X88422481Y-106411015D01*
X88283100Y-106504147D01*
X88128228Y-106568297D01*
X87963816Y-106601000D01*
X87796184Y-106601000D01*
X87631772Y-106568297D01*
X87476900Y-106504147D01*
X87337519Y-106411015D01*
X87218985Y-106292481D01*
X87125853Y-106153100D01*
X87061703Y-105998228D01*
X87029000Y-105833816D01*
X87029000Y-105666184D01*
X87061703Y-105501772D01*
X87125853Y-105346900D01*
X87218985Y-105207519D01*
X87337519Y-105088985D01*
X87476900Y-104995853D01*
X87631772Y-104931703D01*
X87796184Y-104899000D01*
X87963816Y-104899000D01*
X88128228Y-104931703D01*
G37*
G36*
X103368228Y-104931703D02*
G01*
X103523100Y-104995853D01*
X103662481Y-105088985D01*
X103781015Y-105207519D01*
X103874147Y-105346900D01*
X103938297Y-105501772D01*
X103971000Y-105666184D01*
X103971000Y-105833816D01*
X103938297Y-105998228D01*
X103874147Y-106153100D01*
X103781015Y-106292481D01*
X103662481Y-106411015D01*
X103523100Y-106504147D01*
X103368228Y-106568297D01*
X103203816Y-106601000D01*
X103036184Y-106601000D01*
X102871772Y-106568297D01*
X102716900Y-106504147D01*
X102577519Y-106411015D01*
X102458985Y-106292481D01*
X102365853Y-106153100D01*
X102301703Y-105998228D01*
X102269000Y-105833816D01*
X102269000Y-105666184D01*
X102301703Y-105501772D01*
X102365853Y-105346900D01*
X102458985Y-105207519D01*
X102577519Y-105088985D01*
X102716900Y-104995853D01*
X102871772Y-104931703D01*
X103036184Y-104899000D01*
X103203816Y-104899000D01*
X103368228Y-104931703D01*
G37*
G36*
X165292817Y-103462847D02*
G01*
X165500465Y-103548858D01*
X165687345Y-103673727D01*
X165846273Y-103832655D01*
X165971142Y-104019535D01*
X166057153Y-104227183D01*
X166101000Y-104447620D01*
X166101000Y-104672380D01*
X166057153Y-104892817D01*
X165971142Y-105100465D01*
X165846273Y-105287345D01*
X165687345Y-105446273D01*
X165500465Y-105571142D01*
X165292817Y-105657153D01*
X165072380Y-105701000D01*
X164847620Y-105701000D01*
X164627183Y-105657153D01*
X164419535Y-105571142D01*
X164232655Y-105446273D01*
X164073727Y-105287345D01*
X163948858Y-105100465D01*
X163862847Y-104892817D01*
X163819000Y-104672380D01*
X163819000Y-104447620D01*
X163862847Y-104227183D01*
X163948858Y-104019535D01*
X164073727Y-103832655D01*
X164232655Y-103673727D01*
X164419535Y-103548858D01*
X164627183Y-103462847D01*
X164847620Y-103419000D01*
X165072380Y-103419000D01*
X165292817Y-103462847D01*
G37*
G36*
X130907142Y-103778242D02*
G01*
X131055101Y-103839529D01*
X131188255Y-103928499D01*
X131301501Y-104041745D01*
X131390471Y-104174899D01*
X131451758Y-104322858D01*
X131483000Y-104479925D01*
X131483000Y-104640075D01*
X131451758Y-104797142D01*
X131390471Y-104945101D01*
X131301501Y-105078255D01*
X131188255Y-105191501D01*
X131055101Y-105280471D01*
X130907142Y-105341758D01*
X130750075Y-105373000D01*
X130589925Y-105373000D01*
X130432858Y-105341758D01*
X130284899Y-105280471D01*
X130151745Y-105191501D01*
X130038499Y-105078255D01*
X129949529Y-104945101D01*
X129888242Y-104797142D01*
X129857000Y-104640075D01*
X129857000Y-104479925D01*
X129888242Y-104322858D01*
X129949529Y-104174899D01*
X130038499Y-104041745D01*
X130151745Y-103928499D01*
X130284899Y-103839529D01*
X130432858Y-103778242D01*
X130589925Y-103747000D01*
X130750075Y-103747000D01*
X130907142Y-103778242D01*
G37*
G36*
X88128228Y-102391703D02*
G01*
X88283100Y-102455853D01*
X88422481Y-102548985D01*
X88541015Y-102667519D01*
X88634147Y-102806900D01*
X88698297Y-102961772D01*
X88731000Y-103126184D01*
X88731000Y-103293816D01*
X88698297Y-103458228D01*
X88634147Y-103613100D01*
X88541015Y-103752481D01*
X88422481Y-103871015D01*
X88283100Y-103964147D01*
X88128228Y-104028297D01*
X87963816Y-104061000D01*
X87796184Y-104061000D01*
X87631772Y-104028297D01*
X87476900Y-103964147D01*
X87337519Y-103871015D01*
X87218985Y-103752481D01*
X87125853Y-103613100D01*
X87061703Y-103458228D01*
X87029000Y-103293816D01*
X87029000Y-103126184D01*
X87061703Y-102961772D01*
X87125853Y-102806900D01*
X87218985Y-102667519D01*
X87337519Y-102548985D01*
X87476900Y-102455853D01*
X87631772Y-102391703D01*
X87796184Y-102359000D01*
X87963816Y-102359000D01*
X88128228Y-102391703D01*
G37*
G36*
X103368228Y-102391703D02*
G01*
X103523100Y-102455853D01*
X103662481Y-102548985D01*
X103781015Y-102667519D01*
X103874147Y-102806900D01*
X103938297Y-102961772D01*
X103971000Y-103126184D01*
X103971000Y-103293816D01*
X103938297Y-103458228D01*
X103874147Y-103613100D01*
X103781015Y-103752481D01*
X103662481Y-103871015D01*
X103523100Y-103964147D01*
X103368228Y-104028297D01*
X103203816Y-104061000D01*
X103036184Y-104061000D01*
X102871772Y-104028297D01*
X102716900Y-103964147D01*
X102577519Y-103871015D01*
X102458985Y-103752481D01*
X102365853Y-103613100D01*
X102301703Y-103458228D01*
X102269000Y-103293816D01*
X102269000Y-103126184D01*
X102301703Y-102961772D01*
X102365853Y-102806900D01*
X102458985Y-102667519D01*
X102577519Y-102548985D01*
X102716900Y-102455853D01*
X102871772Y-102391703D01*
X103036184Y-102359000D01*
X103203816Y-102359000D01*
X103368228Y-102391703D01*
G37*
G36*
X80113512Y-101763927D02*
G01*
X80262812Y-101793624D01*
X80426784Y-101861544D01*
X80574354Y-101960147D01*
X80699853Y-102085646D01*
X80798456Y-102233216D01*
X80866376Y-102397188D01*
X80901000Y-102571259D01*
X80901000Y-102748741D01*
X80866376Y-102922812D01*
X80798456Y-103086784D01*
X80699853Y-103234354D01*
X80574354Y-103359853D01*
X80426784Y-103458456D01*
X80262812Y-103526376D01*
X80113512Y-103556073D01*
X80088742Y-103561000D01*
X79911258Y-103561000D01*
X79886488Y-103556073D01*
X79737188Y-103526376D01*
X79573216Y-103458456D01*
X79425646Y-103359853D01*
X79300147Y-103234354D01*
X79201544Y-103086784D01*
X79133624Y-102922812D01*
X79099000Y-102748741D01*
X79099000Y-102571259D01*
X79133624Y-102397188D01*
X79201544Y-102233216D01*
X79300147Y-102085646D01*
X79425646Y-101960147D01*
X79573216Y-101861544D01*
X79737188Y-101793624D01*
X79886488Y-101763927D01*
X79911258Y-101759000D01*
X80088742Y-101759000D01*
X80113512Y-101763927D01*
G37*
G36*
X77573512Y-101763927D02*
G01*
X77722812Y-101793624D01*
X77886784Y-101861544D01*
X78034354Y-101960147D01*
X78159853Y-102085646D01*
X78258456Y-102233216D01*
X78326376Y-102397188D01*
X78361000Y-102571259D01*
X78361000Y-102748741D01*
X78326376Y-102922812D01*
X78258456Y-103086784D01*
X78159853Y-103234354D01*
X78034354Y-103359853D01*
X77886784Y-103458456D01*
X77722812Y-103526376D01*
X77573512Y-103556073D01*
X77548742Y-103561000D01*
X77371258Y-103561000D01*
X77346488Y-103556073D01*
X77197188Y-103526376D01*
X77033216Y-103458456D01*
X76885646Y-103359853D01*
X76760147Y-103234354D01*
X76661544Y-103086784D01*
X76593624Y-102922812D01*
X76559000Y-102748741D01*
X76559000Y-102571259D01*
X76593624Y-102397188D01*
X76661544Y-102233216D01*
X76760147Y-102085646D01*
X76885646Y-101960147D01*
X77033216Y-101861544D01*
X77197188Y-101793624D01*
X77346488Y-101763927D01*
X77371258Y-101759000D01*
X77548742Y-101759000D01*
X77573512Y-101763927D01*
G37*
G36*
X130907142Y-101238242D02*
G01*
X131055101Y-101299529D01*
X131188255Y-101388499D01*
X131301501Y-101501745D01*
X131390471Y-101634899D01*
X131451758Y-101782858D01*
X131483000Y-101939925D01*
X131483000Y-102100075D01*
X131451758Y-102257142D01*
X131390471Y-102405101D01*
X131301501Y-102538255D01*
X131188255Y-102651501D01*
X131055101Y-102740471D01*
X130907142Y-102801758D01*
X130750075Y-102833000D01*
X130589925Y-102833000D01*
X130432858Y-102801758D01*
X130284899Y-102740471D01*
X130151745Y-102651501D01*
X130038499Y-102538255D01*
X129949529Y-102405101D01*
X129888242Y-102257142D01*
X129857000Y-102100075D01*
X129857000Y-101939925D01*
X129888242Y-101782858D01*
X129949529Y-101634899D01*
X130038499Y-101501745D01*
X130151745Y-101388499D01*
X130284899Y-101299529D01*
X130432858Y-101238242D01*
X130589925Y-101207000D01*
X130750075Y-101207000D01*
X130907142Y-101238242D01*
G37*
G36*
X119288228Y-100561703D02*
G01*
X119443100Y-100625853D01*
X119582481Y-100718985D01*
X119701015Y-100837519D01*
X119794147Y-100976900D01*
X119858297Y-101131772D01*
X119891000Y-101296184D01*
X119891000Y-101463816D01*
X119858297Y-101628228D01*
X119794147Y-101783100D01*
X119701015Y-101922481D01*
X119582481Y-102041015D01*
X119443100Y-102134147D01*
X119288228Y-102198297D01*
X119123816Y-102231000D01*
X118956184Y-102231000D01*
X118791772Y-102198297D01*
X118636900Y-102134147D01*
X118497519Y-102041015D01*
X118378985Y-101922481D01*
X118285853Y-101783100D01*
X118221703Y-101628228D01*
X118189000Y-101463816D01*
X118189000Y-101296184D01*
X118221703Y-101131772D01*
X118285853Y-100976900D01*
X118378985Y-100837519D01*
X118497519Y-100718985D01*
X118636900Y-100625853D01*
X118791772Y-100561703D01*
X118956184Y-100529000D01*
X119123816Y-100529000D01*
X119288228Y-100561703D01*
G37*
G36*
X121828228Y-100561703D02*
G01*
X121983100Y-100625853D01*
X122122481Y-100718985D01*
X122241015Y-100837519D01*
X122334147Y-100976900D01*
X122398297Y-101131772D01*
X122431000Y-101296184D01*
X122431000Y-101463816D01*
X122398297Y-101628228D01*
X122334147Y-101783100D01*
X122241015Y-101922481D01*
X122122481Y-102041015D01*
X121983100Y-102134147D01*
X121828228Y-102198297D01*
X121663816Y-102231000D01*
X121496184Y-102231000D01*
X121331772Y-102198297D01*
X121176900Y-102134147D01*
X121037519Y-102041015D01*
X120918985Y-101922481D01*
X120825853Y-101783100D01*
X120761703Y-101628228D01*
X120729000Y-101463816D01*
X120729000Y-101296184D01*
X120761703Y-101131772D01*
X120825853Y-100976900D01*
X120918985Y-100837519D01*
X121037519Y-100718985D01*
X121176900Y-100625853D01*
X121331772Y-100561703D01*
X121496184Y-100529000D01*
X121663816Y-100529000D01*
X121828228Y-100561703D01*
G37*
G36*
X114208228Y-100561703D02*
G01*
X114363100Y-100625853D01*
X114502481Y-100718985D01*
X114621015Y-100837519D01*
X114714147Y-100976900D01*
X114778297Y-101131772D01*
X114811000Y-101296184D01*
X114811000Y-101463816D01*
X114778297Y-101628228D01*
X114714147Y-101783100D01*
X114621015Y-101922481D01*
X114502481Y-102041015D01*
X114363100Y-102134147D01*
X114208228Y-102198297D01*
X114043816Y-102231000D01*
X113876184Y-102231000D01*
X113711772Y-102198297D01*
X113556900Y-102134147D01*
X113417519Y-102041015D01*
X113298985Y-101922481D01*
X113205853Y-101783100D01*
X113141703Y-101628228D01*
X113109000Y-101463816D01*
X113109000Y-101296184D01*
X113141703Y-101131772D01*
X113205853Y-100976900D01*
X113298985Y-100837519D01*
X113417519Y-100718985D01*
X113556900Y-100625853D01*
X113711772Y-100561703D01*
X113876184Y-100529000D01*
X114043816Y-100529000D01*
X114208228Y-100561703D01*
G37*
G36*
X111668228Y-100561703D02*
G01*
X111823100Y-100625853D01*
X111962481Y-100718985D01*
X112081015Y-100837519D01*
X112174147Y-100976900D01*
X112238297Y-101131772D01*
X112271000Y-101296184D01*
X112271000Y-101463816D01*
X112238297Y-101628228D01*
X112174147Y-101783100D01*
X112081015Y-101922481D01*
X111962481Y-102041015D01*
X111823100Y-102134147D01*
X111668228Y-102198297D01*
X111503816Y-102231000D01*
X111336184Y-102231000D01*
X111171772Y-102198297D01*
X111016900Y-102134147D01*
X110877519Y-102041015D01*
X110758985Y-101922481D01*
X110665853Y-101783100D01*
X110601703Y-101628228D01*
X110569000Y-101463816D01*
X110569000Y-101296184D01*
X110601703Y-101131772D01*
X110665853Y-100976900D01*
X110758985Y-100837519D01*
X110877519Y-100718985D01*
X111016900Y-100625853D01*
X111171772Y-100561703D01*
X111336184Y-100529000D01*
X111503816Y-100529000D01*
X111668228Y-100561703D01*
G37*
G36*
X116748228Y-100561703D02*
G01*
X116903100Y-100625853D01*
X117042481Y-100718985D01*
X117161015Y-100837519D01*
X117254147Y-100976900D01*
X117318297Y-101131772D01*
X117351000Y-101296184D01*
X117351000Y-101463816D01*
X117318297Y-101628228D01*
X117254147Y-101783100D01*
X117161015Y-101922481D01*
X117042481Y-102041015D01*
X116903100Y-102134147D01*
X116748228Y-102198297D01*
X116583816Y-102231000D01*
X116416184Y-102231000D01*
X116251772Y-102198297D01*
X116096900Y-102134147D01*
X115957519Y-102041015D01*
X115838985Y-101922481D01*
X115745853Y-101783100D01*
X115681703Y-101628228D01*
X115649000Y-101463816D01*
X115649000Y-101296184D01*
X115681703Y-101131772D01*
X115745853Y-100976900D01*
X115838985Y-100837519D01*
X115957519Y-100718985D01*
X116096900Y-100625853D01*
X116251772Y-100561703D01*
X116416184Y-100529000D01*
X116583816Y-100529000D01*
X116748228Y-100561703D01*
G37*
G36*
X103368228Y-99851703D02*
G01*
X103523100Y-99915853D01*
X103662481Y-100008985D01*
X103781015Y-100127519D01*
X103874147Y-100266900D01*
X103938297Y-100421772D01*
X103971000Y-100586184D01*
X103971000Y-100753816D01*
X103938297Y-100918228D01*
X103874147Y-101073100D01*
X103781015Y-101212481D01*
X103662481Y-101331015D01*
X103523100Y-101424147D01*
X103368228Y-101488297D01*
X103203816Y-101521000D01*
X103036184Y-101521000D01*
X102871772Y-101488297D01*
X102716900Y-101424147D01*
X102577519Y-101331015D01*
X102458985Y-101212481D01*
X102365853Y-101073100D01*
X102301703Y-100918228D01*
X102269000Y-100753816D01*
X102269000Y-100586184D01*
X102301703Y-100421772D01*
X102365853Y-100266900D01*
X102458985Y-100127519D01*
X102577519Y-100008985D01*
X102716900Y-99915853D01*
X102871772Y-99851703D01*
X103036184Y-99819000D01*
X103203816Y-99819000D01*
X103368228Y-99851703D01*
G37*
G36*
X88128228Y-99851703D02*
G01*
X88283100Y-99915853D01*
X88422481Y-100008985D01*
X88541015Y-100127519D01*
X88634147Y-100266900D01*
X88698297Y-100421772D01*
X88731000Y-100586184D01*
X88731000Y-100753816D01*
X88698297Y-100918228D01*
X88634147Y-101073100D01*
X88541015Y-101212481D01*
X88422481Y-101331015D01*
X88283100Y-101424147D01*
X88128228Y-101488297D01*
X87963816Y-101521000D01*
X87796184Y-101521000D01*
X87631772Y-101488297D01*
X87476900Y-101424147D01*
X87337519Y-101331015D01*
X87218985Y-101212481D01*
X87125853Y-101073100D01*
X87061703Y-100918228D01*
X87029000Y-100753816D01*
X87029000Y-100586184D01*
X87061703Y-100421772D01*
X87125853Y-100266900D01*
X87218985Y-100127519D01*
X87337519Y-100008985D01*
X87476900Y-99915853D01*
X87631772Y-99851703D01*
X87796184Y-99819000D01*
X87963816Y-99819000D01*
X88128228Y-99851703D01*
G37*
G36*
X77573512Y-99223927D02*
G01*
X77722812Y-99253624D01*
X77886784Y-99321544D01*
X78034354Y-99420147D01*
X78159853Y-99545646D01*
X78258456Y-99693216D01*
X78326376Y-99857188D01*
X78361000Y-100031259D01*
X78361000Y-100208741D01*
X78326376Y-100382812D01*
X78258456Y-100546784D01*
X78159853Y-100694354D01*
X78034354Y-100819853D01*
X77886784Y-100918456D01*
X77722812Y-100986376D01*
X77573512Y-101016073D01*
X77548742Y-101021000D01*
X77371258Y-101021000D01*
X77346488Y-101016073D01*
X77197188Y-100986376D01*
X77033216Y-100918456D01*
X76885646Y-100819853D01*
X76760147Y-100694354D01*
X76661544Y-100546784D01*
X76593624Y-100382812D01*
X76559000Y-100208741D01*
X76559000Y-100031259D01*
X76593624Y-99857188D01*
X76661544Y-99693216D01*
X76760147Y-99545646D01*
X76885646Y-99420147D01*
X77033216Y-99321544D01*
X77197188Y-99253624D01*
X77346488Y-99223927D01*
X77371258Y-99219000D01*
X77548742Y-99219000D01*
X77573512Y-99223927D01*
G37*
G36*
X80113512Y-99223927D02*
G01*
X80262812Y-99253624D01*
X80426784Y-99321544D01*
X80574354Y-99420147D01*
X80699853Y-99545646D01*
X80798456Y-99693216D01*
X80866376Y-99857188D01*
X80901000Y-100031259D01*
X80901000Y-100208741D01*
X80866376Y-100382812D01*
X80798456Y-100546784D01*
X80699853Y-100694354D01*
X80574354Y-100819853D01*
X80426784Y-100918456D01*
X80262812Y-100986376D01*
X80113512Y-101016073D01*
X80088742Y-101021000D01*
X79911258Y-101021000D01*
X79886488Y-101016073D01*
X79737188Y-100986376D01*
X79573216Y-100918456D01*
X79425646Y-100819853D01*
X79300147Y-100694354D01*
X79201544Y-100546784D01*
X79133624Y-100382812D01*
X79099000Y-100208741D01*
X79099000Y-100031259D01*
X79133624Y-99857188D01*
X79201544Y-99693216D01*
X79300147Y-99545646D01*
X79425646Y-99420147D01*
X79573216Y-99321544D01*
X79737188Y-99253624D01*
X79886488Y-99223927D01*
X79911258Y-99219000D01*
X80088742Y-99219000D01*
X80113512Y-99223927D01*
G37*
G36*
X166467142Y-98698242D02*
G01*
X166615101Y-98759529D01*
X166748255Y-98848499D01*
X166861501Y-98961745D01*
X166950471Y-99094899D01*
X167011758Y-99242858D01*
X167043000Y-99399925D01*
X167043000Y-99560075D01*
X167011758Y-99717142D01*
X166950471Y-99865101D01*
X166861501Y-99998255D01*
X166748255Y-100111501D01*
X166615101Y-100200471D01*
X166467142Y-100261758D01*
X166310075Y-100293000D01*
X166149925Y-100293000D01*
X165992858Y-100261758D01*
X165844899Y-100200471D01*
X165711745Y-100111501D01*
X165598499Y-99998255D01*
X165509529Y-99865101D01*
X165448242Y-99717142D01*
X165417000Y-99560075D01*
X165417000Y-99399925D01*
X165448242Y-99242858D01*
X165509529Y-99094899D01*
X165598499Y-98961745D01*
X165711745Y-98848499D01*
X165844899Y-98759529D01*
X165992858Y-98698242D01*
X166149925Y-98667000D01*
X166310075Y-98667000D01*
X166467142Y-98698242D01*
G37*
G36*
X130907142Y-98698242D02*
G01*
X131055101Y-98759529D01*
X131188255Y-98848499D01*
X131301501Y-98961745D01*
X131390471Y-99094899D01*
X131451758Y-99242858D01*
X131483000Y-99399925D01*
X131483000Y-99560075D01*
X131451758Y-99717142D01*
X131390471Y-99865101D01*
X131301501Y-99998255D01*
X131188255Y-100111501D01*
X131055101Y-100200471D01*
X130907142Y-100261758D01*
X130750075Y-100293000D01*
X130589925Y-100293000D01*
X130432858Y-100261758D01*
X130284899Y-100200471D01*
X130151745Y-100111501D01*
X130038499Y-99998255D01*
X129949529Y-99865101D01*
X129888242Y-99717142D01*
X129857000Y-99560075D01*
X129857000Y-99399925D01*
X129888242Y-99242858D01*
X129949529Y-99094899D01*
X130038499Y-98961745D01*
X130151745Y-98848499D01*
X130284899Y-98759529D01*
X130432858Y-98698242D01*
X130589925Y-98667000D01*
X130750075Y-98667000D01*
X130907142Y-98698242D01*
G37*
G36*
X103368228Y-97311703D02*
G01*
X103523100Y-97375853D01*
X103662481Y-97468985D01*
X103781015Y-97587519D01*
X103874147Y-97726900D01*
X103938297Y-97881772D01*
X103971000Y-98046184D01*
X103971000Y-98213816D01*
X103938297Y-98378228D01*
X103874147Y-98533100D01*
X103781015Y-98672481D01*
X103662481Y-98791015D01*
X103523100Y-98884147D01*
X103368228Y-98948297D01*
X103203816Y-98981000D01*
X103036184Y-98981000D01*
X102871772Y-98948297D01*
X102716900Y-98884147D01*
X102577519Y-98791015D01*
X102458985Y-98672481D01*
X102365853Y-98533100D01*
X102301703Y-98378228D01*
X102269000Y-98213816D01*
X102269000Y-98046184D01*
X102301703Y-97881772D01*
X102365853Y-97726900D01*
X102458985Y-97587519D01*
X102577519Y-97468985D01*
X102716900Y-97375853D01*
X102871772Y-97311703D01*
X103036184Y-97279000D01*
X103203816Y-97279000D01*
X103368228Y-97311703D01*
G37*
G36*
X88128228Y-97311703D02*
G01*
X88283100Y-97375853D01*
X88422481Y-97468985D01*
X88541015Y-97587519D01*
X88634147Y-97726900D01*
X88698297Y-97881772D01*
X88731000Y-98046184D01*
X88731000Y-98213816D01*
X88698297Y-98378228D01*
X88634147Y-98533100D01*
X88541015Y-98672481D01*
X88422481Y-98791015D01*
X88283100Y-98884147D01*
X88128228Y-98948297D01*
X87963816Y-98981000D01*
X87796184Y-98981000D01*
X87631772Y-98948297D01*
X87476900Y-98884147D01*
X87337519Y-98791015D01*
X87218985Y-98672481D01*
X87125853Y-98533100D01*
X87061703Y-98378228D01*
X87029000Y-98213816D01*
X87029000Y-98046184D01*
X87061703Y-97881772D01*
X87125853Y-97726900D01*
X87218985Y-97587519D01*
X87337519Y-97468985D01*
X87476900Y-97375853D01*
X87631772Y-97311703D01*
X87796184Y-97279000D01*
X87963816Y-97279000D01*
X88128228Y-97311703D01*
G37*
G36*
X77573512Y-96683927D02*
G01*
X77722812Y-96713624D01*
X77886784Y-96781544D01*
X78034354Y-96880147D01*
X78159853Y-97005646D01*
X78258456Y-97153216D01*
X78326376Y-97317188D01*
X78361000Y-97491259D01*
X78361000Y-97668741D01*
X78326376Y-97842812D01*
X78258456Y-98006784D01*
X78159853Y-98154354D01*
X78034354Y-98279853D01*
X77886784Y-98378456D01*
X77722812Y-98446376D01*
X77573512Y-98476073D01*
X77548742Y-98481000D01*
X77371258Y-98481000D01*
X77346488Y-98476073D01*
X77197188Y-98446376D01*
X77033216Y-98378456D01*
X76885646Y-98279853D01*
X76760147Y-98154354D01*
X76661544Y-98006784D01*
X76593624Y-97842812D01*
X76559000Y-97668741D01*
X76559000Y-97491259D01*
X76593624Y-97317188D01*
X76661544Y-97153216D01*
X76760147Y-97005646D01*
X76885646Y-96880147D01*
X77033216Y-96781544D01*
X77197188Y-96713624D01*
X77346488Y-96683927D01*
X77371258Y-96679000D01*
X77548742Y-96679000D01*
X77573512Y-96683927D01*
G37*
G36*
X80113512Y-96683927D02*
G01*
X80262812Y-96713624D01*
X80426784Y-96781544D01*
X80574354Y-96880147D01*
X80699853Y-97005646D01*
X80798456Y-97153216D01*
X80866376Y-97317188D01*
X80901000Y-97491259D01*
X80901000Y-97668741D01*
X80866376Y-97842812D01*
X80798456Y-98006784D01*
X80699853Y-98154354D01*
X80574354Y-98279853D01*
X80426784Y-98378456D01*
X80262812Y-98446376D01*
X80113512Y-98476073D01*
X80088742Y-98481000D01*
X79911258Y-98481000D01*
X79886488Y-98476073D01*
X79737188Y-98446376D01*
X79573216Y-98378456D01*
X79425646Y-98279853D01*
X79300147Y-98154354D01*
X79201544Y-98006784D01*
X79133624Y-97842812D01*
X79099000Y-97668741D01*
X79099000Y-97491259D01*
X79133624Y-97317188D01*
X79201544Y-97153216D01*
X79300147Y-97005646D01*
X79425646Y-96880147D01*
X79573216Y-96781544D01*
X79737188Y-96713624D01*
X79886488Y-96683927D01*
X79911258Y-96679000D01*
X80088742Y-96679000D01*
X80113512Y-96683927D01*
G37*
G36*
X111573642Y-96629781D02*
G01*
X111719414Y-96690162D01*
X111719416Y-96690163D01*
X111850608Y-96777822D01*
X111962178Y-96889392D01*
X112039856Y-97005647D01*
X112049838Y-97020586D01*
X112110219Y-97166358D01*
X112141000Y-97321107D01*
X112141000Y-97478893D01*
X112110219Y-97633642D01*
X112099106Y-97660471D01*
X112049837Y-97779416D01*
X111962178Y-97910608D01*
X111850608Y-98022178D01*
X111719416Y-98109837D01*
X111719415Y-98109838D01*
X111719414Y-98109838D01*
X111573642Y-98170219D01*
X111418893Y-98201000D01*
X111261107Y-98201000D01*
X111106358Y-98170219D01*
X110960586Y-98109838D01*
X110960585Y-98109838D01*
X110960584Y-98109837D01*
X110829392Y-98022178D01*
X110717822Y-97910608D01*
X110630163Y-97779416D01*
X110580894Y-97660471D01*
X110569781Y-97633642D01*
X110539000Y-97478893D01*
X110539000Y-97321107D01*
X110569781Y-97166358D01*
X110630162Y-97020586D01*
X110640144Y-97005647D01*
X110717822Y-96889392D01*
X110829392Y-96777822D01*
X110960584Y-96690163D01*
X110960586Y-96690162D01*
X111106358Y-96629781D01*
X111261107Y-96599000D01*
X111418893Y-96599000D01*
X111573642Y-96629781D01*
G37*
G36*
X121733642Y-96629781D02*
G01*
X121879414Y-96690162D01*
X121879416Y-96690163D01*
X122010608Y-96777822D01*
X122122178Y-96889392D01*
X122199856Y-97005647D01*
X122209838Y-97020586D01*
X122270219Y-97166358D01*
X122301000Y-97321107D01*
X122301000Y-97478893D01*
X122270219Y-97633642D01*
X122259106Y-97660471D01*
X122209837Y-97779416D01*
X122122178Y-97910608D01*
X122010608Y-98022178D01*
X121879416Y-98109837D01*
X121879415Y-98109838D01*
X121879414Y-98109838D01*
X121733642Y-98170219D01*
X121578893Y-98201000D01*
X121421107Y-98201000D01*
X121266358Y-98170219D01*
X121120586Y-98109838D01*
X121120585Y-98109838D01*
X121120584Y-98109837D01*
X120989392Y-98022178D01*
X120877822Y-97910608D01*
X120790163Y-97779416D01*
X120740894Y-97660471D01*
X120729781Y-97633642D01*
X120699000Y-97478893D01*
X120699000Y-97321107D01*
X120729781Y-97166358D01*
X120790162Y-97020586D01*
X120800144Y-97005647D01*
X120877822Y-96889392D01*
X120989392Y-96777822D01*
X121120584Y-96690163D01*
X121120586Y-96690162D01*
X121266358Y-96629781D01*
X121421107Y-96599000D01*
X121578893Y-96599000D01*
X121733642Y-96629781D01*
G37*
G36*
X119193642Y-96629781D02*
G01*
X119339414Y-96690162D01*
X119339416Y-96690163D01*
X119470608Y-96777822D01*
X119582178Y-96889392D01*
X119659856Y-97005647D01*
X119669838Y-97020586D01*
X119730219Y-97166358D01*
X119761000Y-97321107D01*
X119761000Y-97478893D01*
X119730219Y-97633642D01*
X119719106Y-97660471D01*
X119669837Y-97779416D01*
X119582178Y-97910608D01*
X119470608Y-98022178D01*
X119339416Y-98109837D01*
X119339415Y-98109838D01*
X119339414Y-98109838D01*
X119193642Y-98170219D01*
X119038893Y-98201000D01*
X118881107Y-98201000D01*
X118726358Y-98170219D01*
X118580586Y-98109838D01*
X118580585Y-98109838D01*
X118580584Y-98109837D01*
X118449392Y-98022178D01*
X118337822Y-97910608D01*
X118250163Y-97779416D01*
X118200894Y-97660471D01*
X118189781Y-97633642D01*
X118159000Y-97478893D01*
X118159000Y-97321107D01*
X118189781Y-97166358D01*
X118250162Y-97020586D01*
X118260144Y-97005647D01*
X118337822Y-96889392D01*
X118449392Y-96777822D01*
X118580584Y-96690163D01*
X118580586Y-96690162D01*
X118726358Y-96629781D01*
X118881107Y-96599000D01*
X119038893Y-96599000D01*
X119193642Y-96629781D01*
G37*
G36*
X114113642Y-96629781D02*
G01*
X114259414Y-96690162D01*
X114259416Y-96690163D01*
X114390608Y-96777822D01*
X114502178Y-96889392D01*
X114579856Y-97005647D01*
X114589838Y-97020586D01*
X114650219Y-97166358D01*
X114681000Y-97321107D01*
X114681000Y-97478893D01*
X114650219Y-97633642D01*
X114639106Y-97660471D01*
X114589837Y-97779416D01*
X114502178Y-97910608D01*
X114390608Y-98022178D01*
X114259416Y-98109837D01*
X114259415Y-98109838D01*
X114259414Y-98109838D01*
X114113642Y-98170219D01*
X113958893Y-98201000D01*
X113801107Y-98201000D01*
X113646358Y-98170219D01*
X113500586Y-98109838D01*
X113500585Y-98109838D01*
X113500584Y-98109837D01*
X113369392Y-98022178D01*
X113257822Y-97910608D01*
X113170163Y-97779416D01*
X113120894Y-97660471D01*
X113109781Y-97633642D01*
X113079000Y-97478893D01*
X113079000Y-97321107D01*
X113109781Y-97166358D01*
X113170162Y-97020586D01*
X113180144Y-97005647D01*
X113257822Y-96889392D01*
X113369392Y-96777822D01*
X113500584Y-96690163D01*
X113500586Y-96690162D01*
X113646358Y-96629781D01*
X113801107Y-96599000D01*
X113958893Y-96599000D01*
X114113642Y-96629781D01*
G37*
G36*
X116653642Y-96629781D02*
G01*
X116799414Y-96690162D01*
X116799416Y-96690163D01*
X116930608Y-96777822D01*
X117042178Y-96889392D01*
X117119856Y-97005647D01*
X117129838Y-97020586D01*
X117190219Y-97166358D01*
X117221000Y-97321107D01*
X117221000Y-97478893D01*
X117190219Y-97633642D01*
X117179106Y-97660471D01*
X117129837Y-97779416D01*
X117042178Y-97910608D01*
X116930608Y-98022178D01*
X116799416Y-98109837D01*
X116799415Y-98109838D01*
X116799414Y-98109838D01*
X116653642Y-98170219D01*
X116498893Y-98201000D01*
X116341107Y-98201000D01*
X116186358Y-98170219D01*
X116040586Y-98109838D01*
X116040585Y-98109838D01*
X116040584Y-98109837D01*
X115909392Y-98022178D01*
X115797822Y-97910608D01*
X115710163Y-97779416D01*
X115660894Y-97660471D01*
X115649781Y-97633642D01*
X115619000Y-97478893D01*
X115619000Y-97321107D01*
X115649781Y-97166358D01*
X115710162Y-97020586D01*
X115720144Y-97005647D01*
X115797822Y-96889392D01*
X115909392Y-96777822D01*
X116040584Y-96690163D01*
X116040586Y-96690162D01*
X116186358Y-96629781D01*
X116341107Y-96599000D01*
X116498893Y-96599000D01*
X116653642Y-96629781D01*
G37*
G36*
X166467142Y-96158242D02*
G01*
X166615101Y-96219529D01*
X166748255Y-96308499D01*
X166861501Y-96421745D01*
X166950471Y-96554899D01*
X167011758Y-96702858D01*
X167043000Y-96859925D01*
X167043000Y-97020075D01*
X167011758Y-97177142D01*
X166950471Y-97325101D01*
X166861501Y-97458255D01*
X166748255Y-97571501D01*
X166615101Y-97660471D01*
X166467142Y-97721758D01*
X166310075Y-97753000D01*
X166149925Y-97753000D01*
X165992858Y-97721758D01*
X165844899Y-97660471D01*
X165711745Y-97571501D01*
X165598499Y-97458255D01*
X165509529Y-97325101D01*
X165448242Y-97177142D01*
X165417000Y-97020075D01*
X165417000Y-96859925D01*
X165448242Y-96702858D01*
X165509529Y-96554899D01*
X165598499Y-96421745D01*
X165711745Y-96308499D01*
X165844899Y-96219529D01*
X165992858Y-96158242D01*
X166149925Y-96127000D01*
X166310075Y-96127000D01*
X166467142Y-96158242D01*
G37*
G36*
X130907142Y-96158242D02*
G01*
X131055101Y-96219529D01*
X131188255Y-96308499D01*
X131301501Y-96421745D01*
X131390471Y-96554899D01*
X131451758Y-96702858D01*
X131483000Y-96859925D01*
X131483000Y-97020075D01*
X131451758Y-97177142D01*
X131390471Y-97325101D01*
X131301501Y-97458255D01*
X131188255Y-97571501D01*
X131055101Y-97660471D01*
X130907142Y-97721758D01*
X130750075Y-97753000D01*
X130589925Y-97753000D01*
X130432858Y-97721758D01*
X130284899Y-97660471D01*
X130151745Y-97571501D01*
X130038499Y-97458255D01*
X129949529Y-97325101D01*
X129888242Y-97177142D01*
X129857000Y-97020075D01*
X129857000Y-96859925D01*
X129888242Y-96702858D01*
X129949529Y-96554899D01*
X130038499Y-96421745D01*
X130151745Y-96308499D01*
X130284899Y-96219529D01*
X130432858Y-96158242D01*
X130589925Y-96127000D01*
X130750075Y-96127000D01*
X130907142Y-96158242D01*
G37*
G36*
X103368228Y-94771703D02*
G01*
X103523100Y-94835853D01*
X103662481Y-94928985D01*
X103781015Y-95047519D01*
X103874147Y-95186900D01*
X103938297Y-95341772D01*
X103971000Y-95506184D01*
X103971000Y-95673816D01*
X103938297Y-95838228D01*
X103874147Y-95993100D01*
X103781015Y-96132481D01*
X103662481Y-96251015D01*
X103523100Y-96344147D01*
X103368228Y-96408297D01*
X103203816Y-96441000D01*
X103036184Y-96441000D01*
X102871772Y-96408297D01*
X102716900Y-96344147D01*
X102577519Y-96251015D01*
X102458985Y-96132481D01*
X102365853Y-95993100D01*
X102301703Y-95838228D01*
X102269000Y-95673816D01*
X102269000Y-95506184D01*
X102301703Y-95341772D01*
X102365853Y-95186900D01*
X102458985Y-95047519D01*
X102577519Y-94928985D01*
X102716900Y-94835853D01*
X102871772Y-94771703D01*
X103036184Y-94739000D01*
X103203816Y-94739000D01*
X103368228Y-94771703D01*
G37*
G36*
X88128228Y-94771703D02*
G01*
X88283100Y-94835853D01*
X88422481Y-94928985D01*
X88541015Y-95047519D01*
X88634147Y-95186900D01*
X88698297Y-95341772D01*
X88731000Y-95506184D01*
X88731000Y-95673816D01*
X88698297Y-95838228D01*
X88634147Y-95993100D01*
X88541015Y-96132481D01*
X88422481Y-96251015D01*
X88283100Y-96344147D01*
X88128228Y-96408297D01*
X87963816Y-96441000D01*
X87796184Y-96441000D01*
X87631772Y-96408297D01*
X87476900Y-96344147D01*
X87337519Y-96251015D01*
X87218985Y-96132481D01*
X87125853Y-95993100D01*
X87061703Y-95838228D01*
X87029000Y-95673816D01*
X87029000Y-95506184D01*
X87061703Y-95341772D01*
X87125853Y-95186900D01*
X87218985Y-95047519D01*
X87337519Y-94928985D01*
X87476900Y-94835853D01*
X87631772Y-94771703D01*
X87796184Y-94739000D01*
X87963816Y-94739000D01*
X88128228Y-94771703D01*
G37*
G36*
X174613512Y-94203927D02*
G01*
X174762812Y-94233624D01*
X174926784Y-94301544D01*
X175074354Y-94400147D01*
X175199853Y-94525646D01*
X175298456Y-94673216D01*
X175366376Y-94837188D01*
X175401000Y-95011259D01*
X175401000Y-95188741D01*
X175366376Y-95362812D01*
X175298456Y-95526784D01*
X175199853Y-95674354D01*
X175074354Y-95799853D01*
X174926784Y-95898456D01*
X174762812Y-95966376D01*
X174613512Y-95996073D01*
X174588742Y-96001000D01*
X174411258Y-96001000D01*
X174386488Y-95996073D01*
X174237188Y-95966376D01*
X174073216Y-95898456D01*
X173925646Y-95799853D01*
X173800147Y-95674354D01*
X173701544Y-95526784D01*
X173633624Y-95362812D01*
X173599000Y-95188741D01*
X173599000Y-95011259D01*
X173633624Y-94837188D01*
X173701544Y-94673216D01*
X173800147Y-94525646D01*
X173925646Y-94400147D01*
X174073216Y-94301544D01*
X174237188Y-94233624D01*
X174386488Y-94203927D01*
X174411258Y-94199000D01*
X174588742Y-94199000D01*
X174613512Y-94203927D01*
G37*
G36*
X77573512Y-94143927D02*
G01*
X77722812Y-94173624D01*
X77886784Y-94241544D01*
X78034354Y-94340147D01*
X78159853Y-94465646D01*
X78258456Y-94613216D01*
X78326376Y-94777188D01*
X78361000Y-94951259D01*
X78361000Y-95128741D01*
X78326376Y-95302812D01*
X78258456Y-95466784D01*
X78159853Y-95614354D01*
X78034354Y-95739853D01*
X77886784Y-95838456D01*
X77722812Y-95906376D01*
X77573512Y-95936073D01*
X77548742Y-95941000D01*
X77371258Y-95941000D01*
X77346488Y-95936073D01*
X77197188Y-95906376D01*
X77033216Y-95838456D01*
X76885646Y-95739853D01*
X76760147Y-95614354D01*
X76661544Y-95466784D01*
X76593624Y-95302812D01*
X76559000Y-95128741D01*
X76559000Y-94951259D01*
X76593624Y-94777188D01*
X76661544Y-94613216D01*
X76760147Y-94465646D01*
X76885646Y-94340147D01*
X77033216Y-94241544D01*
X77197188Y-94173624D01*
X77346488Y-94143927D01*
X77371258Y-94139000D01*
X77548742Y-94139000D01*
X77573512Y-94143927D01*
G37*
G36*
X80113512Y-94143927D02*
G01*
X80262812Y-94173624D01*
X80426784Y-94241544D01*
X80574354Y-94340147D01*
X80699853Y-94465646D01*
X80798456Y-94613216D01*
X80866376Y-94777188D01*
X80901000Y-94951259D01*
X80901000Y-95128741D01*
X80866376Y-95302812D01*
X80798456Y-95466784D01*
X80699853Y-95614354D01*
X80574354Y-95739853D01*
X80426784Y-95838456D01*
X80262812Y-95906376D01*
X80113512Y-95936073D01*
X80088742Y-95941000D01*
X79911258Y-95941000D01*
X79886488Y-95936073D01*
X79737188Y-95906376D01*
X79573216Y-95838456D01*
X79425646Y-95739853D01*
X79300147Y-95614354D01*
X79201544Y-95466784D01*
X79133624Y-95302812D01*
X79099000Y-95128741D01*
X79099000Y-94951259D01*
X79133624Y-94777188D01*
X79201544Y-94613216D01*
X79300147Y-94465646D01*
X79425646Y-94340147D01*
X79573216Y-94241544D01*
X79737188Y-94173624D01*
X79886488Y-94143927D01*
X79911258Y-94139000D01*
X80088742Y-94139000D01*
X80113512Y-94143927D01*
G37*
G36*
X166467142Y-93618242D02*
G01*
X166615101Y-93679529D01*
X166748255Y-93768499D01*
X166861501Y-93881745D01*
X166950471Y-94014899D01*
X167011758Y-94162858D01*
X167043000Y-94319925D01*
X167043000Y-94480075D01*
X167011758Y-94637142D01*
X166950471Y-94785101D01*
X166861501Y-94918255D01*
X166748255Y-95031501D01*
X166615101Y-95120471D01*
X166467142Y-95181758D01*
X166310075Y-95213000D01*
X166149925Y-95213000D01*
X165992858Y-95181758D01*
X165844899Y-95120471D01*
X165711745Y-95031501D01*
X165598499Y-94918255D01*
X165509529Y-94785101D01*
X165448242Y-94637142D01*
X165417000Y-94480075D01*
X165417000Y-94319925D01*
X165448242Y-94162858D01*
X165509529Y-94014899D01*
X165598499Y-93881745D01*
X165711745Y-93768499D01*
X165844899Y-93679529D01*
X165992858Y-93618242D01*
X166149925Y-93587000D01*
X166310075Y-93587000D01*
X166467142Y-93618242D01*
G37*
G36*
X130907142Y-93618242D02*
G01*
X131055101Y-93679529D01*
X131188255Y-93768499D01*
X131301501Y-93881745D01*
X131390471Y-94014899D01*
X131451758Y-94162858D01*
X131483000Y-94319925D01*
X131483000Y-94480075D01*
X131451758Y-94637142D01*
X131390471Y-94785101D01*
X131301501Y-94918255D01*
X131188255Y-95031501D01*
X131055101Y-95120471D01*
X130907142Y-95181758D01*
X130750075Y-95213000D01*
X130589925Y-95213000D01*
X130432858Y-95181758D01*
X130284899Y-95120471D01*
X130151745Y-95031501D01*
X130038499Y-94918255D01*
X129949529Y-94785101D01*
X129888242Y-94637142D01*
X129857000Y-94480075D01*
X129857000Y-94319925D01*
X129888242Y-94162858D01*
X129949529Y-94014899D01*
X130038499Y-93881745D01*
X130151745Y-93768499D01*
X130284899Y-93679529D01*
X130432858Y-93618242D01*
X130589925Y-93587000D01*
X130750075Y-93587000D01*
X130907142Y-93618242D01*
G37*
G36*
X88128228Y-92231703D02*
G01*
X88283100Y-92295853D01*
X88422481Y-92388985D01*
X88541015Y-92507519D01*
X88634147Y-92646900D01*
X88698297Y-92801772D01*
X88731000Y-92966184D01*
X88731000Y-93133816D01*
X88698297Y-93298228D01*
X88634147Y-93453100D01*
X88541015Y-93592481D01*
X88422481Y-93711015D01*
X88283100Y-93804147D01*
X88128228Y-93868297D01*
X87963816Y-93901000D01*
X87796184Y-93901000D01*
X87631772Y-93868297D01*
X87476900Y-93804147D01*
X87337519Y-93711015D01*
X87218985Y-93592481D01*
X87125853Y-93453100D01*
X87061703Y-93298228D01*
X87029000Y-93133816D01*
X87029000Y-92966184D01*
X87061703Y-92801772D01*
X87125853Y-92646900D01*
X87218985Y-92507519D01*
X87337519Y-92388985D01*
X87476900Y-92295853D01*
X87631772Y-92231703D01*
X87796184Y-92199000D01*
X87963816Y-92199000D01*
X88128228Y-92231703D01*
G37*
G36*
X103368228Y-92231703D02*
G01*
X103523100Y-92295853D01*
X103662481Y-92388985D01*
X103781015Y-92507519D01*
X103874147Y-92646900D01*
X103938297Y-92801772D01*
X103971000Y-92966184D01*
X103971000Y-93133816D01*
X103938297Y-93298228D01*
X103874147Y-93453100D01*
X103781015Y-93592481D01*
X103662481Y-93711015D01*
X103523100Y-93804147D01*
X103368228Y-93868297D01*
X103203816Y-93901000D01*
X103036184Y-93901000D01*
X102871772Y-93868297D01*
X102716900Y-93804147D01*
X102577519Y-93711015D01*
X102458985Y-93592481D01*
X102365853Y-93453100D01*
X102301703Y-93298228D01*
X102269000Y-93133816D01*
X102269000Y-92966184D01*
X102301703Y-92801772D01*
X102365853Y-92646900D01*
X102458985Y-92507519D01*
X102577519Y-92388985D01*
X102716900Y-92295853D01*
X102871772Y-92231703D01*
X103036184Y-92199000D01*
X103203816Y-92199000D01*
X103368228Y-92231703D01*
G37*
G36*
X174613512Y-91663927D02*
G01*
X174762812Y-91693624D01*
X174926784Y-91761544D01*
X175074354Y-91860147D01*
X175199853Y-91985646D01*
X175298456Y-92133216D01*
X175366376Y-92297188D01*
X175401000Y-92471259D01*
X175401000Y-92648741D01*
X175366376Y-92822812D01*
X175298456Y-92986784D01*
X175199853Y-93134354D01*
X175074354Y-93259853D01*
X174926784Y-93358456D01*
X174762812Y-93426376D01*
X174613512Y-93456073D01*
X174588742Y-93461000D01*
X174411258Y-93461000D01*
X174386488Y-93456073D01*
X174237188Y-93426376D01*
X174073216Y-93358456D01*
X173925646Y-93259853D01*
X173800147Y-93134354D01*
X173701544Y-92986784D01*
X173633624Y-92822812D01*
X173599000Y-92648741D01*
X173599000Y-92471259D01*
X173633624Y-92297188D01*
X173701544Y-92133216D01*
X173800147Y-91985646D01*
X173925646Y-91860147D01*
X174073216Y-91761544D01*
X174237188Y-91693624D01*
X174386488Y-91663927D01*
X174411258Y-91659000D01*
X174588742Y-91659000D01*
X174613512Y-91663927D01*
G37*
G36*
X77573512Y-91603927D02*
G01*
X77722812Y-91633624D01*
X77886784Y-91701544D01*
X78034354Y-91800147D01*
X78159853Y-91925646D01*
X78258456Y-92073216D01*
X78326376Y-92237188D01*
X78361000Y-92411259D01*
X78361000Y-92588741D01*
X78326376Y-92762812D01*
X78258456Y-92926784D01*
X78159853Y-93074354D01*
X78034354Y-93199853D01*
X77886784Y-93298456D01*
X77722812Y-93366376D01*
X77573512Y-93396073D01*
X77548742Y-93401000D01*
X77371258Y-93401000D01*
X77346488Y-93396073D01*
X77197188Y-93366376D01*
X77033216Y-93298456D01*
X76885646Y-93199853D01*
X76760147Y-93074354D01*
X76661544Y-92926784D01*
X76593624Y-92762812D01*
X76559000Y-92588741D01*
X76559000Y-92411259D01*
X76593624Y-92237188D01*
X76661544Y-92073216D01*
X76760147Y-91925646D01*
X76885646Y-91800147D01*
X77033216Y-91701544D01*
X77197188Y-91633624D01*
X77346488Y-91603927D01*
X77371258Y-91599000D01*
X77548742Y-91599000D01*
X77573512Y-91603927D01*
G37*
G36*
X80113512Y-91603927D02*
G01*
X80262812Y-91633624D01*
X80426784Y-91701544D01*
X80574354Y-91800147D01*
X80699853Y-91925646D01*
X80798456Y-92073216D01*
X80866376Y-92237188D01*
X80901000Y-92411259D01*
X80901000Y-92588741D01*
X80866376Y-92762812D01*
X80798456Y-92926784D01*
X80699853Y-93074354D01*
X80574354Y-93199853D01*
X80426784Y-93298456D01*
X80262812Y-93366376D01*
X80113512Y-93396073D01*
X80088742Y-93401000D01*
X79911258Y-93401000D01*
X79886488Y-93396073D01*
X79737188Y-93366376D01*
X79573216Y-93298456D01*
X79425646Y-93199853D01*
X79300147Y-93074354D01*
X79201544Y-92926784D01*
X79133624Y-92762812D01*
X79099000Y-92588741D01*
X79099000Y-92411259D01*
X79133624Y-92237188D01*
X79201544Y-92073216D01*
X79300147Y-91925646D01*
X79425646Y-91800147D01*
X79573216Y-91701544D01*
X79737188Y-91633624D01*
X79886488Y-91603927D01*
X79911258Y-91599000D01*
X80088742Y-91599000D01*
X80113512Y-91603927D01*
G37*
G36*
X166467142Y-91078242D02*
G01*
X166615101Y-91139529D01*
X166748255Y-91228499D01*
X166861501Y-91341745D01*
X166950471Y-91474899D01*
X167011758Y-91622858D01*
X167043000Y-91779925D01*
X167043000Y-91940075D01*
X167011758Y-92097142D01*
X166950471Y-92245101D01*
X166861501Y-92378255D01*
X166748255Y-92491501D01*
X166615101Y-92580471D01*
X166467142Y-92641758D01*
X166310075Y-92673000D01*
X166149925Y-92673000D01*
X165992858Y-92641758D01*
X165844899Y-92580471D01*
X165711745Y-92491501D01*
X165598499Y-92378255D01*
X165509529Y-92245101D01*
X165448242Y-92097142D01*
X165417000Y-91940075D01*
X165417000Y-91779925D01*
X165448242Y-91622858D01*
X165509529Y-91474899D01*
X165598499Y-91341745D01*
X165711745Y-91228499D01*
X165844899Y-91139529D01*
X165992858Y-91078242D01*
X166149925Y-91047000D01*
X166310075Y-91047000D01*
X166467142Y-91078242D01*
G37*
G36*
X130907142Y-91078242D02*
G01*
X131055101Y-91139529D01*
X131188255Y-91228499D01*
X131301501Y-91341745D01*
X131390471Y-91474899D01*
X131451758Y-91622858D01*
X131483000Y-91779925D01*
X131483000Y-91940075D01*
X131451758Y-92097142D01*
X131390471Y-92245101D01*
X131301501Y-92378255D01*
X131188255Y-92491501D01*
X131055101Y-92580471D01*
X130907142Y-92641758D01*
X130750075Y-92673000D01*
X130589925Y-92673000D01*
X130432858Y-92641758D01*
X130284899Y-92580471D01*
X130151745Y-92491501D01*
X130038499Y-92378255D01*
X129949529Y-92245101D01*
X129888242Y-92097142D01*
X129857000Y-91940075D01*
X129857000Y-91779925D01*
X129888242Y-91622858D01*
X129949529Y-91474899D01*
X130038499Y-91341745D01*
X130151745Y-91228499D01*
X130284899Y-91139529D01*
X130432858Y-91078242D01*
X130589925Y-91047000D01*
X130750075Y-91047000D01*
X130907142Y-91078242D01*
G37*
G36*
X88128228Y-89691703D02*
G01*
X88283100Y-89755853D01*
X88422481Y-89848985D01*
X88541015Y-89967519D01*
X88634147Y-90106900D01*
X88698297Y-90261772D01*
X88731000Y-90426184D01*
X88731000Y-90593816D01*
X88698297Y-90758228D01*
X88634147Y-90913100D01*
X88541015Y-91052481D01*
X88422481Y-91171015D01*
X88283100Y-91264147D01*
X88128228Y-91328297D01*
X87963816Y-91361000D01*
X87796184Y-91361000D01*
X87631772Y-91328297D01*
X87476900Y-91264147D01*
X87337519Y-91171015D01*
X87218985Y-91052481D01*
X87125853Y-90913100D01*
X87061703Y-90758228D01*
X87029000Y-90593816D01*
X87029000Y-90426184D01*
X87061703Y-90261772D01*
X87125853Y-90106900D01*
X87218985Y-89967519D01*
X87337519Y-89848985D01*
X87476900Y-89755853D01*
X87631772Y-89691703D01*
X87796184Y-89659000D01*
X87963816Y-89659000D01*
X88128228Y-89691703D01*
G37*
G36*
X103368228Y-89691703D02*
G01*
X103523100Y-89755853D01*
X103662481Y-89848985D01*
X103781015Y-89967519D01*
X103874147Y-90106900D01*
X103938297Y-90261772D01*
X103971000Y-90426184D01*
X103971000Y-90593816D01*
X103938297Y-90758228D01*
X103874147Y-90913100D01*
X103781015Y-91052481D01*
X103662481Y-91171015D01*
X103523100Y-91264147D01*
X103368228Y-91328297D01*
X103203816Y-91361000D01*
X103036184Y-91361000D01*
X102871772Y-91328297D01*
X102716900Y-91264147D01*
X102577519Y-91171015D01*
X102458985Y-91052481D01*
X102365853Y-90913100D01*
X102301703Y-90758228D01*
X102269000Y-90593816D01*
X102269000Y-90426184D01*
X102301703Y-90261772D01*
X102365853Y-90106900D01*
X102458985Y-89967519D01*
X102577519Y-89848985D01*
X102716900Y-89755853D01*
X102871772Y-89691703D01*
X103036184Y-89659000D01*
X103203816Y-89659000D01*
X103368228Y-89691703D01*
G37*
G36*
X174613512Y-89123927D02*
G01*
X174762812Y-89153624D01*
X174926784Y-89221544D01*
X175074354Y-89320147D01*
X175199853Y-89445646D01*
X175298456Y-89593216D01*
X175366376Y-89757188D01*
X175401000Y-89931259D01*
X175401000Y-90108741D01*
X175366376Y-90282812D01*
X175298456Y-90446784D01*
X175199853Y-90594354D01*
X175074354Y-90719853D01*
X174926784Y-90818456D01*
X174762812Y-90886376D01*
X174613512Y-90916073D01*
X174588742Y-90921000D01*
X174411258Y-90921000D01*
X174386488Y-90916073D01*
X174237188Y-90886376D01*
X174073216Y-90818456D01*
X173925646Y-90719853D01*
X173800147Y-90594354D01*
X173701544Y-90446784D01*
X173633624Y-90282812D01*
X173599000Y-90108741D01*
X173599000Y-89931259D01*
X173633624Y-89757188D01*
X173701544Y-89593216D01*
X173800147Y-89445646D01*
X173925646Y-89320147D01*
X174073216Y-89221544D01*
X174237188Y-89153624D01*
X174386488Y-89123927D01*
X174411258Y-89119000D01*
X174588742Y-89119000D01*
X174613512Y-89123927D01*
G37*
G36*
X80113512Y-89063927D02*
G01*
X80262812Y-89093624D01*
X80426784Y-89161544D01*
X80574354Y-89260147D01*
X80699853Y-89385646D01*
X80798456Y-89533216D01*
X80866376Y-89697188D01*
X80901000Y-89871259D01*
X80901000Y-90048741D01*
X80866376Y-90222812D01*
X80798456Y-90386784D01*
X80699853Y-90534354D01*
X80574354Y-90659853D01*
X80426784Y-90758456D01*
X80262812Y-90826376D01*
X80113512Y-90856073D01*
X80088742Y-90861000D01*
X79911258Y-90861000D01*
X79886488Y-90856073D01*
X79737188Y-90826376D01*
X79573216Y-90758456D01*
X79425646Y-90659853D01*
X79300147Y-90534354D01*
X79201544Y-90386784D01*
X79133624Y-90222812D01*
X79099000Y-90048741D01*
X79099000Y-89871259D01*
X79133624Y-89697188D01*
X79201544Y-89533216D01*
X79300147Y-89385646D01*
X79425646Y-89260147D01*
X79573216Y-89161544D01*
X79737188Y-89093624D01*
X79886488Y-89063927D01*
X79911258Y-89059000D01*
X80088742Y-89059000D01*
X80113512Y-89063927D01*
G37*
G36*
X77573512Y-89063927D02*
G01*
X77722812Y-89093624D01*
X77886784Y-89161544D01*
X78034354Y-89260147D01*
X78159853Y-89385646D01*
X78258456Y-89533216D01*
X78326376Y-89697188D01*
X78361000Y-89871259D01*
X78361000Y-90048741D01*
X78326376Y-90222812D01*
X78258456Y-90386784D01*
X78159853Y-90534354D01*
X78034354Y-90659853D01*
X77886784Y-90758456D01*
X77722812Y-90826376D01*
X77573512Y-90856073D01*
X77548742Y-90861000D01*
X77371258Y-90861000D01*
X77346488Y-90856073D01*
X77197188Y-90826376D01*
X77033216Y-90758456D01*
X76885646Y-90659853D01*
X76760147Y-90534354D01*
X76661544Y-90386784D01*
X76593624Y-90222812D01*
X76559000Y-90048741D01*
X76559000Y-89871259D01*
X76593624Y-89697188D01*
X76661544Y-89533216D01*
X76760147Y-89385646D01*
X76885646Y-89260147D01*
X77033216Y-89161544D01*
X77197188Y-89093624D01*
X77346488Y-89063927D01*
X77371258Y-89059000D01*
X77548742Y-89059000D01*
X77573512Y-89063927D01*
G37*
G36*
X130907142Y-88538242D02*
G01*
X131055101Y-88599529D01*
X131188255Y-88688499D01*
X131301501Y-88801745D01*
X131390471Y-88934899D01*
X131451758Y-89082858D01*
X131483000Y-89239925D01*
X131483000Y-89400075D01*
X131451758Y-89557142D01*
X131390471Y-89705101D01*
X131301501Y-89838255D01*
X131188255Y-89951501D01*
X131055101Y-90040471D01*
X130907142Y-90101758D01*
X130750075Y-90133000D01*
X130589925Y-90133000D01*
X130432858Y-90101758D01*
X130284899Y-90040471D01*
X130151745Y-89951501D01*
X130038499Y-89838255D01*
X129949529Y-89705101D01*
X129888242Y-89557142D01*
X129857000Y-89400075D01*
X129857000Y-89239925D01*
X129888242Y-89082858D01*
X129949529Y-88934899D01*
X130038499Y-88801745D01*
X130151745Y-88688499D01*
X130284899Y-88599529D01*
X130432858Y-88538242D01*
X130589925Y-88507000D01*
X130750075Y-88507000D01*
X130907142Y-88538242D01*
G37*
G36*
X166467142Y-88538242D02*
G01*
X166615101Y-88599529D01*
X166748255Y-88688499D01*
X166861501Y-88801745D01*
X166950471Y-88934899D01*
X167011758Y-89082858D01*
X167043000Y-89239925D01*
X167043000Y-89400075D01*
X167011758Y-89557142D01*
X166950471Y-89705101D01*
X166861501Y-89838255D01*
X166748255Y-89951501D01*
X166615101Y-90040471D01*
X166467142Y-90101758D01*
X166310075Y-90133000D01*
X166149925Y-90133000D01*
X165992858Y-90101758D01*
X165844899Y-90040471D01*
X165711745Y-89951501D01*
X165598499Y-89838255D01*
X165509529Y-89705101D01*
X165448242Y-89557142D01*
X165417000Y-89400075D01*
X165417000Y-89239925D01*
X165448242Y-89082858D01*
X165509529Y-88934899D01*
X165598499Y-88801745D01*
X165711745Y-88688499D01*
X165844899Y-88599529D01*
X165992858Y-88538242D01*
X166149925Y-88507000D01*
X166310075Y-88507000D01*
X166467142Y-88538242D01*
G37*
G36*
X103368228Y-87151703D02*
G01*
X103523100Y-87215853D01*
X103662481Y-87308985D01*
X103781015Y-87427519D01*
X103874147Y-87566900D01*
X103938297Y-87721772D01*
X103971000Y-87886184D01*
X103971000Y-88053816D01*
X103938297Y-88218228D01*
X103874147Y-88373100D01*
X103781015Y-88512481D01*
X103662481Y-88631015D01*
X103523100Y-88724147D01*
X103368228Y-88788297D01*
X103203816Y-88821000D01*
X103036184Y-88821000D01*
X102871772Y-88788297D01*
X102716900Y-88724147D01*
X102577519Y-88631015D01*
X102458985Y-88512481D01*
X102365853Y-88373100D01*
X102301703Y-88218228D01*
X102269000Y-88053816D01*
X102269000Y-87886184D01*
X102301703Y-87721772D01*
X102365853Y-87566900D01*
X102458985Y-87427519D01*
X102577519Y-87308985D01*
X102716900Y-87215853D01*
X102871772Y-87151703D01*
X103036184Y-87119000D01*
X103203816Y-87119000D01*
X103368228Y-87151703D01*
G37*
G36*
X88128228Y-87151703D02*
G01*
X88283100Y-87215853D01*
X88422481Y-87308985D01*
X88541015Y-87427519D01*
X88634147Y-87566900D01*
X88698297Y-87721772D01*
X88731000Y-87886184D01*
X88731000Y-88053816D01*
X88698297Y-88218228D01*
X88634147Y-88373100D01*
X88541015Y-88512481D01*
X88422481Y-88631015D01*
X88283100Y-88724147D01*
X88128228Y-88788297D01*
X87963816Y-88821000D01*
X87796184Y-88821000D01*
X87631772Y-88788297D01*
X87476900Y-88724147D01*
X87337519Y-88631015D01*
X87218985Y-88512481D01*
X87125853Y-88373100D01*
X87061703Y-88218228D01*
X87029000Y-88053816D01*
X87029000Y-87886184D01*
X87061703Y-87721772D01*
X87125853Y-87566900D01*
X87218985Y-87427519D01*
X87337519Y-87308985D01*
X87476900Y-87215853D01*
X87631772Y-87151703D01*
X87796184Y-87119000D01*
X87963816Y-87119000D01*
X88128228Y-87151703D01*
G37*
G36*
X174613512Y-86583927D02*
G01*
X174762812Y-86613624D01*
X174926784Y-86681544D01*
X175074354Y-86780147D01*
X175199853Y-86905646D01*
X175298456Y-87053216D01*
X175366376Y-87217188D01*
X175401000Y-87391259D01*
X175401000Y-87568741D01*
X175366376Y-87742812D01*
X175298456Y-87906784D01*
X175199853Y-88054354D01*
X175074354Y-88179853D01*
X174926784Y-88278456D01*
X174762812Y-88346376D01*
X174613512Y-88376073D01*
X174588742Y-88381000D01*
X174411258Y-88381000D01*
X174386488Y-88376073D01*
X174237188Y-88346376D01*
X174073216Y-88278456D01*
X173925646Y-88179853D01*
X173800147Y-88054354D01*
X173701544Y-87906784D01*
X173633624Y-87742812D01*
X173599000Y-87568741D01*
X173599000Y-87391259D01*
X173633624Y-87217188D01*
X173701544Y-87053216D01*
X173800147Y-86905646D01*
X173925646Y-86780147D01*
X174073216Y-86681544D01*
X174237188Y-86613624D01*
X174386488Y-86583927D01*
X174411258Y-86579000D01*
X174588742Y-86579000D01*
X174613512Y-86583927D01*
G37*
G36*
X77573512Y-86523927D02*
G01*
X77722812Y-86553624D01*
X77886784Y-86621544D01*
X78034354Y-86720147D01*
X78159853Y-86845646D01*
X78258456Y-86993216D01*
X78326376Y-87157188D01*
X78361000Y-87331259D01*
X78361000Y-87508741D01*
X78326376Y-87682812D01*
X78258456Y-87846784D01*
X78159853Y-87994354D01*
X78034354Y-88119853D01*
X77886784Y-88218456D01*
X77722812Y-88286376D01*
X77573512Y-88316073D01*
X77548742Y-88321000D01*
X77371258Y-88321000D01*
X77346488Y-88316073D01*
X77197188Y-88286376D01*
X77033216Y-88218456D01*
X76885646Y-88119853D01*
X76760147Y-87994354D01*
X76661544Y-87846784D01*
X76593624Y-87682812D01*
X76559000Y-87508741D01*
X76559000Y-87331259D01*
X76593624Y-87157188D01*
X76661544Y-86993216D01*
X76760147Y-86845646D01*
X76885646Y-86720147D01*
X77033216Y-86621544D01*
X77197188Y-86553624D01*
X77346488Y-86523927D01*
X77371258Y-86519000D01*
X77548742Y-86519000D01*
X77573512Y-86523927D01*
G37*
G36*
X80113512Y-86523927D02*
G01*
X80262812Y-86553624D01*
X80426784Y-86621544D01*
X80574354Y-86720147D01*
X80699853Y-86845646D01*
X80798456Y-86993216D01*
X80866376Y-87157188D01*
X80901000Y-87331259D01*
X80901000Y-87508741D01*
X80866376Y-87682812D01*
X80798456Y-87846784D01*
X80699853Y-87994354D01*
X80574354Y-88119853D01*
X80426784Y-88218456D01*
X80262812Y-88286376D01*
X80113512Y-88316073D01*
X80088742Y-88321000D01*
X79911258Y-88321000D01*
X79886488Y-88316073D01*
X79737188Y-88286376D01*
X79573216Y-88218456D01*
X79425646Y-88119853D01*
X79300147Y-87994354D01*
X79201544Y-87846784D01*
X79133624Y-87682812D01*
X79099000Y-87508741D01*
X79099000Y-87331259D01*
X79133624Y-87157188D01*
X79201544Y-86993216D01*
X79300147Y-86845646D01*
X79425646Y-86720147D01*
X79573216Y-86621544D01*
X79737188Y-86553624D01*
X79886488Y-86523927D01*
X79911258Y-86519000D01*
X80088742Y-86519000D01*
X80113512Y-86523927D01*
G37*
G36*
X166467142Y-85998242D02*
G01*
X166615101Y-86059529D01*
X166748255Y-86148499D01*
X166861501Y-86261745D01*
X166950471Y-86394899D01*
X167011758Y-86542858D01*
X167043000Y-86699925D01*
X167043000Y-86860075D01*
X167011758Y-87017142D01*
X166950471Y-87165101D01*
X166861501Y-87298255D01*
X166748255Y-87411501D01*
X166615101Y-87500471D01*
X166467142Y-87561758D01*
X166310075Y-87593000D01*
X166149925Y-87593000D01*
X165992858Y-87561758D01*
X165844899Y-87500471D01*
X165711745Y-87411501D01*
X165598499Y-87298255D01*
X165509529Y-87165101D01*
X165448242Y-87017142D01*
X165417000Y-86860075D01*
X165417000Y-86699925D01*
X165448242Y-86542858D01*
X165509529Y-86394899D01*
X165598499Y-86261745D01*
X165711745Y-86148499D01*
X165844899Y-86059529D01*
X165992858Y-85998242D01*
X166149925Y-85967000D01*
X166310075Y-85967000D01*
X166467142Y-85998242D01*
G37*
G36*
X130907142Y-85998242D02*
G01*
X131055101Y-86059529D01*
X131188255Y-86148499D01*
X131301501Y-86261745D01*
X131390471Y-86394899D01*
X131451758Y-86542858D01*
X131483000Y-86699925D01*
X131483000Y-86860075D01*
X131451758Y-87017142D01*
X131390471Y-87165101D01*
X131301501Y-87298255D01*
X131188255Y-87411501D01*
X131055101Y-87500471D01*
X130907142Y-87561758D01*
X130750075Y-87593000D01*
X130589925Y-87593000D01*
X130432858Y-87561758D01*
X130284899Y-87500471D01*
X130151745Y-87411501D01*
X130038499Y-87298255D01*
X129949529Y-87165101D01*
X129888242Y-87017142D01*
X129857000Y-86860075D01*
X129857000Y-86699925D01*
X129888242Y-86542858D01*
X129949529Y-86394899D01*
X130038499Y-86261745D01*
X130151745Y-86148499D01*
X130284899Y-86059529D01*
X130432858Y-85998242D01*
X130589925Y-85967000D01*
X130750075Y-85967000D01*
X130907142Y-85998242D01*
G37*
G36*
X103368228Y-84611703D02*
G01*
X103523100Y-84675853D01*
X103662481Y-84768985D01*
X103781015Y-84887519D01*
X103874147Y-85026900D01*
X103938297Y-85181772D01*
X103971000Y-85346184D01*
X103971000Y-85513816D01*
X103938297Y-85678228D01*
X103874147Y-85833100D01*
X103781015Y-85972481D01*
X103662481Y-86091015D01*
X103523100Y-86184147D01*
X103368228Y-86248297D01*
X103203816Y-86281000D01*
X103036184Y-86281000D01*
X102871772Y-86248297D01*
X102716900Y-86184147D01*
X102577519Y-86091015D01*
X102458985Y-85972481D01*
X102365853Y-85833100D01*
X102301703Y-85678228D01*
X102269000Y-85513816D01*
X102269000Y-85346184D01*
X102301703Y-85181772D01*
X102365853Y-85026900D01*
X102458985Y-84887519D01*
X102577519Y-84768985D01*
X102716900Y-84675853D01*
X102871772Y-84611703D01*
X103036184Y-84579000D01*
X103203816Y-84579000D01*
X103368228Y-84611703D01*
G37*
G36*
X88128228Y-84611703D02*
G01*
X88283100Y-84675853D01*
X88422481Y-84768985D01*
X88541015Y-84887519D01*
X88634147Y-85026900D01*
X88698297Y-85181772D01*
X88731000Y-85346184D01*
X88731000Y-85513816D01*
X88698297Y-85678228D01*
X88634147Y-85833100D01*
X88541015Y-85972481D01*
X88422481Y-86091015D01*
X88283100Y-86184147D01*
X88128228Y-86248297D01*
X87963816Y-86281000D01*
X87796184Y-86281000D01*
X87631772Y-86248297D01*
X87476900Y-86184147D01*
X87337519Y-86091015D01*
X87218985Y-85972481D01*
X87125853Y-85833100D01*
X87061703Y-85678228D01*
X87029000Y-85513816D01*
X87029000Y-85346184D01*
X87061703Y-85181772D01*
X87125853Y-85026900D01*
X87218985Y-84887519D01*
X87337519Y-84768985D01*
X87476900Y-84675853D01*
X87631772Y-84611703D01*
X87796184Y-84579000D01*
X87963816Y-84579000D01*
X88128228Y-84611703D01*
G37*
G36*
X174613512Y-84043927D02*
G01*
X174762812Y-84073624D01*
X174926784Y-84141544D01*
X175074354Y-84240147D01*
X175199853Y-84365646D01*
X175298456Y-84513216D01*
X175366376Y-84677188D01*
X175401000Y-84851259D01*
X175401000Y-85028741D01*
X175366376Y-85202812D01*
X175298456Y-85366784D01*
X175199853Y-85514354D01*
X175074354Y-85639853D01*
X174926784Y-85738456D01*
X174762812Y-85806376D01*
X174613512Y-85836073D01*
X174588742Y-85841000D01*
X174411258Y-85841000D01*
X174386488Y-85836073D01*
X174237188Y-85806376D01*
X174073216Y-85738456D01*
X173925646Y-85639853D01*
X173800147Y-85514354D01*
X173701544Y-85366784D01*
X173633624Y-85202812D01*
X173599000Y-85028741D01*
X173599000Y-84851259D01*
X173633624Y-84677188D01*
X173701544Y-84513216D01*
X173800147Y-84365646D01*
X173925646Y-84240147D01*
X174073216Y-84141544D01*
X174237188Y-84073624D01*
X174386488Y-84043927D01*
X174411258Y-84039000D01*
X174588742Y-84039000D01*
X174613512Y-84043927D01*
G37*
G36*
X77573512Y-83983927D02*
G01*
X77722812Y-84013624D01*
X77886784Y-84081544D01*
X78034354Y-84180147D01*
X78159853Y-84305646D01*
X78258456Y-84453216D01*
X78326376Y-84617188D01*
X78361000Y-84791259D01*
X78361000Y-84968741D01*
X78326376Y-85142812D01*
X78258456Y-85306784D01*
X78159853Y-85454354D01*
X78034354Y-85579853D01*
X77886784Y-85678456D01*
X77722812Y-85746376D01*
X77573512Y-85776073D01*
X77548742Y-85781000D01*
X77371258Y-85781000D01*
X77346488Y-85776073D01*
X77197188Y-85746376D01*
X77033216Y-85678456D01*
X76885646Y-85579853D01*
X76760147Y-85454354D01*
X76661544Y-85306784D01*
X76593624Y-85142812D01*
X76559000Y-84968741D01*
X76559000Y-84791259D01*
X76593624Y-84617188D01*
X76661544Y-84453216D01*
X76760147Y-84305646D01*
X76885646Y-84180147D01*
X77033216Y-84081544D01*
X77197188Y-84013624D01*
X77346488Y-83983927D01*
X77371258Y-83979000D01*
X77548742Y-83979000D01*
X77573512Y-83983927D01*
G37*
G36*
X80113512Y-83983927D02*
G01*
X80262812Y-84013624D01*
X80426784Y-84081544D01*
X80574354Y-84180147D01*
X80699853Y-84305646D01*
X80798456Y-84453216D01*
X80866376Y-84617188D01*
X80901000Y-84791259D01*
X80901000Y-84968741D01*
X80866376Y-85142812D01*
X80798456Y-85306784D01*
X80699853Y-85454354D01*
X80574354Y-85579853D01*
X80426784Y-85678456D01*
X80262812Y-85746376D01*
X80113512Y-85776073D01*
X80088742Y-85781000D01*
X79911258Y-85781000D01*
X79886488Y-85776073D01*
X79737188Y-85746376D01*
X79573216Y-85678456D01*
X79425646Y-85579853D01*
X79300147Y-85454354D01*
X79201544Y-85306784D01*
X79133624Y-85142812D01*
X79099000Y-84968741D01*
X79099000Y-84791259D01*
X79133624Y-84617188D01*
X79201544Y-84453216D01*
X79300147Y-84305646D01*
X79425646Y-84180147D01*
X79573216Y-84081544D01*
X79737188Y-84013624D01*
X79886488Y-83983927D01*
X79911258Y-83979000D01*
X80088742Y-83979000D01*
X80113512Y-83983927D01*
G37*
G36*
X166467142Y-83458242D02*
G01*
X166615101Y-83519529D01*
X166748255Y-83608499D01*
X166861501Y-83721745D01*
X166950471Y-83854899D01*
X167011758Y-84002858D01*
X167043000Y-84159925D01*
X167043000Y-84320075D01*
X167011758Y-84477142D01*
X166950471Y-84625101D01*
X166861501Y-84758255D01*
X166748255Y-84871501D01*
X166615101Y-84960471D01*
X166467142Y-85021758D01*
X166310075Y-85053000D01*
X166149925Y-85053000D01*
X165992858Y-85021758D01*
X165844899Y-84960471D01*
X165711745Y-84871501D01*
X165598499Y-84758255D01*
X165509529Y-84625101D01*
X165448242Y-84477142D01*
X165417000Y-84320075D01*
X165417000Y-84159925D01*
X165448242Y-84002858D01*
X165509529Y-83854899D01*
X165598499Y-83721745D01*
X165711745Y-83608499D01*
X165844899Y-83519529D01*
X165992858Y-83458242D01*
X166149925Y-83427000D01*
X166310075Y-83427000D01*
X166467142Y-83458242D01*
G37*
G36*
X130907142Y-83458242D02*
G01*
X131055101Y-83519529D01*
X131188255Y-83608499D01*
X131301501Y-83721745D01*
X131390471Y-83854899D01*
X131451758Y-84002858D01*
X131483000Y-84159925D01*
X131483000Y-84320075D01*
X131451758Y-84477142D01*
X131390471Y-84625101D01*
X131301501Y-84758255D01*
X131188255Y-84871501D01*
X131055101Y-84960471D01*
X130907142Y-85021758D01*
X130750075Y-85053000D01*
X130589925Y-85053000D01*
X130432858Y-85021758D01*
X130284899Y-84960471D01*
X130151745Y-84871501D01*
X130038499Y-84758255D01*
X129949529Y-84625101D01*
X129888242Y-84477142D01*
X129857000Y-84320075D01*
X129857000Y-84159925D01*
X129888242Y-84002858D01*
X129949529Y-83854899D01*
X130038499Y-83721745D01*
X130151745Y-83608499D01*
X130284899Y-83519529D01*
X130432858Y-83458242D01*
X130589925Y-83427000D01*
X130750075Y-83427000D01*
X130907142Y-83458242D01*
G37*
G36*
X103368228Y-82071703D02*
G01*
X103523100Y-82135853D01*
X103662481Y-82228985D01*
X103781015Y-82347519D01*
X103874147Y-82486900D01*
X103938297Y-82641772D01*
X103971000Y-82806184D01*
X103971000Y-82973816D01*
X103938297Y-83138228D01*
X103874147Y-83293100D01*
X103781015Y-83432481D01*
X103662481Y-83551015D01*
X103523100Y-83644147D01*
X103368228Y-83708297D01*
X103203816Y-83741000D01*
X103036184Y-83741000D01*
X102871772Y-83708297D01*
X102716900Y-83644147D01*
X102577519Y-83551015D01*
X102458985Y-83432481D01*
X102365853Y-83293100D01*
X102301703Y-83138228D01*
X102269000Y-82973816D01*
X102269000Y-82806184D01*
X102301703Y-82641772D01*
X102365853Y-82486900D01*
X102458985Y-82347519D01*
X102577519Y-82228985D01*
X102716900Y-82135853D01*
X102871772Y-82071703D01*
X103036184Y-82039000D01*
X103203816Y-82039000D01*
X103368228Y-82071703D01*
G37*
G36*
X93208228Y-82071703D02*
G01*
X93363100Y-82135853D01*
X93502481Y-82228985D01*
X93621015Y-82347519D01*
X93714147Y-82486900D01*
X93778297Y-82641772D01*
X93811000Y-82806184D01*
X93811000Y-82973816D01*
X93778297Y-83138228D01*
X93714147Y-83293100D01*
X93621015Y-83432481D01*
X93502481Y-83551015D01*
X93363100Y-83644147D01*
X93208228Y-83708297D01*
X93043816Y-83741000D01*
X92876184Y-83741000D01*
X92711772Y-83708297D01*
X92556900Y-83644147D01*
X92417519Y-83551015D01*
X92298985Y-83432481D01*
X92205853Y-83293100D01*
X92141703Y-83138228D01*
X92109000Y-82973816D01*
X92109000Y-82806184D01*
X92141703Y-82641772D01*
X92205853Y-82486900D01*
X92298985Y-82347519D01*
X92417519Y-82228985D01*
X92556900Y-82135853D01*
X92711772Y-82071703D01*
X92876184Y-82039000D01*
X93043816Y-82039000D01*
X93208228Y-82071703D01*
G37*
G36*
X95748228Y-82071703D02*
G01*
X95903100Y-82135853D01*
X96042481Y-82228985D01*
X96161015Y-82347519D01*
X96254147Y-82486900D01*
X96318297Y-82641772D01*
X96351000Y-82806184D01*
X96351000Y-82973816D01*
X96318297Y-83138228D01*
X96254147Y-83293100D01*
X96161015Y-83432481D01*
X96042481Y-83551015D01*
X95903100Y-83644147D01*
X95748228Y-83708297D01*
X95583816Y-83741000D01*
X95416184Y-83741000D01*
X95251772Y-83708297D01*
X95096900Y-83644147D01*
X94957519Y-83551015D01*
X94838985Y-83432481D01*
X94745853Y-83293100D01*
X94681703Y-83138228D01*
X94649000Y-82973816D01*
X94649000Y-82806184D01*
X94681703Y-82641772D01*
X94745853Y-82486900D01*
X94838985Y-82347519D01*
X94957519Y-82228985D01*
X95096900Y-82135853D01*
X95251772Y-82071703D01*
X95416184Y-82039000D01*
X95583816Y-82039000D01*
X95748228Y-82071703D01*
G37*
G36*
X88128228Y-82071703D02*
G01*
X88283100Y-82135853D01*
X88422481Y-82228985D01*
X88541015Y-82347519D01*
X88634147Y-82486900D01*
X88698297Y-82641772D01*
X88731000Y-82806184D01*
X88731000Y-82973816D01*
X88698297Y-83138228D01*
X88634147Y-83293100D01*
X88541015Y-83432481D01*
X88422481Y-83551015D01*
X88283100Y-83644147D01*
X88128228Y-83708297D01*
X87963816Y-83741000D01*
X87796184Y-83741000D01*
X87631772Y-83708297D01*
X87476900Y-83644147D01*
X87337519Y-83551015D01*
X87218985Y-83432481D01*
X87125853Y-83293100D01*
X87061703Y-83138228D01*
X87029000Y-82973816D01*
X87029000Y-82806184D01*
X87061703Y-82641772D01*
X87125853Y-82486900D01*
X87218985Y-82347519D01*
X87337519Y-82228985D01*
X87476900Y-82135853D01*
X87631772Y-82071703D01*
X87796184Y-82039000D01*
X87963816Y-82039000D01*
X88128228Y-82071703D01*
G37*
G36*
X100828228Y-82071703D02*
G01*
X100983100Y-82135853D01*
X101122481Y-82228985D01*
X101241015Y-82347519D01*
X101334147Y-82486900D01*
X101398297Y-82641772D01*
X101431000Y-82806184D01*
X101431000Y-82973816D01*
X101398297Y-83138228D01*
X101334147Y-83293100D01*
X101241015Y-83432481D01*
X101122481Y-83551015D01*
X100983100Y-83644147D01*
X100828228Y-83708297D01*
X100663816Y-83741000D01*
X100496184Y-83741000D01*
X100331772Y-83708297D01*
X100176900Y-83644147D01*
X100037519Y-83551015D01*
X99918985Y-83432481D01*
X99825853Y-83293100D01*
X99761703Y-83138228D01*
X99729000Y-82973816D01*
X99729000Y-82806184D01*
X99761703Y-82641772D01*
X99825853Y-82486900D01*
X99918985Y-82347519D01*
X100037519Y-82228985D01*
X100176900Y-82135853D01*
X100331772Y-82071703D01*
X100496184Y-82039000D01*
X100663816Y-82039000D01*
X100828228Y-82071703D01*
G37*
G36*
X98288228Y-82071703D02*
G01*
X98443100Y-82135853D01*
X98582481Y-82228985D01*
X98701015Y-82347519D01*
X98794147Y-82486900D01*
X98858297Y-82641772D01*
X98891000Y-82806184D01*
X98891000Y-82973816D01*
X98858297Y-83138228D01*
X98794147Y-83293100D01*
X98701015Y-83432481D01*
X98582481Y-83551015D01*
X98443100Y-83644147D01*
X98288228Y-83708297D01*
X98123816Y-83741000D01*
X97956184Y-83741000D01*
X97791772Y-83708297D01*
X97636900Y-83644147D01*
X97497519Y-83551015D01*
X97378985Y-83432481D01*
X97285853Y-83293100D01*
X97221703Y-83138228D01*
X97189000Y-82973816D01*
X97189000Y-82806184D01*
X97221703Y-82641772D01*
X97285853Y-82486900D01*
X97378985Y-82347519D01*
X97497519Y-82228985D01*
X97636900Y-82135853D01*
X97791772Y-82071703D01*
X97956184Y-82039000D01*
X98123816Y-82039000D01*
X98288228Y-82071703D01*
G37*
G36*
X90668228Y-82071703D02*
G01*
X90823100Y-82135853D01*
X90962481Y-82228985D01*
X91081015Y-82347519D01*
X91174147Y-82486900D01*
X91238297Y-82641772D01*
X91271000Y-82806184D01*
X91271000Y-82973816D01*
X91238297Y-83138228D01*
X91174147Y-83293100D01*
X91081015Y-83432481D01*
X90962481Y-83551015D01*
X90823100Y-83644147D01*
X90668228Y-83708297D01*
X90503816Y-83741000D01*
X90336184Y-83741000D01*
X90171772Y-83708297D01*
X90016900Y-83644147D01*
X89877519Y-83551015D01*
X89758985Y-83432481D01*
X89665853Y-83293100D01*
X89601703Y-83138228D01*
X89569000Y-82973816D01*
X89569000Y-82806184D01*
X89601703Y-82641772D01*
X89665853Y-82486900D01*
X89758985Y-82347519D01*
X89877519Y-82228985D01*
X90016900Y-82135853D01*
X90171772Y-82071703D01*
X90336184Y-82039000D01*
X90503816Y-82039000D01*
X90668228Y-82071703D01*
G37*
G36*
X175401000Y-83301000D02*
G01*
X173599000Y-83301000D01*
X173599000Y-81499000D01*
X175401000Y-81499000D01*
X175401000Y-83301000D01*
G37*
G36*
X77573512Y-81443927D02*
G01*
X77722812Y-81473624D01*
X77886784Y-81541544D01*
X78034354Y-81640147D01*
X78159853Y-81765646D01*
X78258456Y-81913216D01*
X78326376Y-82077188D01*
X78361000Y-82251259D01*
X78361000Y-82428741D01*
X78326376Y-82602812D01*
X78258456Y-82766784D01*
X78159853Y-82914354D01*
X78034354Y-83039853D01*
X77886784Y-83138456D01*
X77722812Y-83206376D01*
X77573512Y-83236073D01*
X77548742Y-83241000D01*
X77371258Y-83241000D01*
X77346488Y-83236073D01*
X77197188Y-83206376D01*
X77033216Y-83138456D01*
X76885646Y-83039853D01*
X76760147Y-82914354D01*
X76661544Y-82766784D01*
X76593624Y-82602812D01*
X76559000Y-82428741D01*
X76559000Y-82251259D01*
X76593624Y-82077188D01*
X76661544Y-81913216D01*
X76760147Y-81765646D01*
X76885646Y-81640147D01*
X77033216Y-81541544D01*
X77197188Y-81473624D01*
X77346488Y-81443927D01*
X77371258Y-81439000D01*
X77548742Y-81439000D01*
X77573512Y-81443927D01*
G37*
G36*
X80113512Y-81443927D02*
G01*
X80262812Y-81473624D01*
X80426784Y-81541544D01*
X80574354Y-81640147D01*
X80699853Y-81765646D01*
X80798456Y-81913216D01*
X80866376Y-82077188D01*
X80901000Y-82251259D01*
X80901000Y-82428741D01*
X80866376Y-82602812D01*
X80798456Y-82766784D01*
X80699853Y-82914354D01*
X80574354Y-83039853D01*
X80426784Y-83138456D01*
X80262812Y-83206376D01*
X80113512Y-83236073D01*
X80088742Y-83241000D01*
X79911258Y-83241000D01*
X79886488Y-83236073D01*
X79737188Y-83206376D01*
X79573216Y-83138456D01*
X79425646Y-83039853D01*
X79300147Y-82914354D01*
X79201544Y-82766784D01*
X79133624Y-82602812D01*
X79099000Y-82428741D01*
X79099000Y-82251259D01*
X79133624Y-82077188D01*
X79201544Y-81913216D01*
X79300147Y-81765646D01*
X79425646Y-81640147D01*
X79573216Y-81541544D01*
X79737188Y-81473624D01*
X79886488Y-81443927D01*
X79911258Y-81439000D01*
X80088742Y-81439000D01*
X80113512Y-81443927D01*
G37*
G36*
X134812817Y-80602847D02*
G01*
X135020465Y-80688858D01*
X135207345Y-80813727D01*
X135366273Y-80972655D01*
X135491142Y-81159535D01*
X135577153Y-81367183D01*
X135621000Y-81587620D01*
X135621000Y-81812380D01*
X135577153Y-82032817D01*
X135491142Y-82240465D01*
X135366273Y-82427345D01*
X135207345Y-82586273D01*
X135020465Y-82711142D01*
X134812817Y-82797153D01*
X134592380Y-82841000D01*
X134367620Y-82841000D01*
X134147183Y-82797153D01*
X133939535Y-82711142D01*
X133752655Y-82586273D01*
X133593727Y-82427345D01*
X133468858Y-82240465D01*
X133382847Y-82032817D01*
X133339000Y-81812380D01*
X133339000Y-81587620D01*
X133382847Y-81367183D01*
X133468858Y-81159535D01*
X133593727Y-80972655D01*
X133752655Y-80813727D01*
X133939535Y-80688858D01*
X134147183Y-80602847D01*
X134367620Y-80559000D01*
X134592380Y-80559000D01*
X134812817Y-80602847D01*
G37*
G36*
X166467142Y-80918242D02*
G01*
X166615101Y-80979529D01*
X166748255Y-81068499D01*
X166861501Y-81181745D01*
X166950471Y-81314899D01*
X167011758Y-81462858D01*
X167043000Y-81619925D01*
X167043000Y-81780075D01*
X167011758Y-81937142D01*
X166950471Y-82085101D01*
X166861501Y-82218255D01*
X166748255Y-82331501D01*
X166615101Y-82420471D01*
X166467142Y-82481758D01*
X166310075Y-82513000D01*
X166149925Y-82513000D01*
X165992858Y-82481758D01*
X165844899Y-82420471D01*
X165711745Y-82331501D01*
X165598499Y-82218255D01*
X165509529Y-82085101D01*
X165448242Y-81937142D01*
X165417000Y-81780075D01*
X165417000Y-81619925D01*
X165448242Y-81462858D01*
X165509529Y-81314899D01*
X165598499Y-81181745D01*
X165711745Y-81068499D01*
X165844899Y-80979529D01*
X165992858Y-80918242D01*
X166149925Y-80887000D01*
X166310075Y-80887000D01*
X166467142Y-80918242D01*
G37*
G36*
X130907142Y-80918242D02*
G01*
X131055101Y-80979529D01*
X131188255Y-81068499D01*
X131301501Y-81181745D01*
X131390471Y-81314899D01*
X131451758Y-81462858D01*
X131483000Y-81619925D01*
X131483000Y-81780075D01*
X131451758Y-81937142D01*
X131390471Y-82085101D01*
X131301501Y-82218255D01*
X131188255Y-82331501D01*
X131055101Y-82420471D01*
X130907142Y-82481758D01*
X130750075Y-82513000D01*
X130589925Y-82513000D01*
X130432858Y-82481758D01*
X130284899Y-82420471D01*
X130151745Y-82331501D01*
X130038499Y-82218255D01*
X129949529Y-82085101D01*
X129888242Y-81937142D01*
X129857000Y-81780075D01*
X129857000Y-81619925D01*
X129888242Y-81462858D01*
X129949529Y-81314899D01*
X130038499Y-81181745D01*
X130151745Y-81068499D01*
X130284899Y-80979529D01*
X130432858Y-80918242D01*
X130589925Y-80887000D01*
X130750075Y-80887000D01*
X130907142Y-80918242D01*
G37*
G36*
X77564653Y-78902165D02*
G01*
X77722812Y-78933624D01*
X77886784Y-79001544D01*
X78034354Y-79100147D01*
X78159853Y-79225646D01*
X78258456Y-79373216D01*
X78326376Y-79537188D01*
X78361000Y-79711259D01*
X78361000Y-79888741D01*
X78326376Y-80062812D01*
X78258456Y-80226784D01*
X78159853Y-80374354D01*
X78034354Y-80499853D01*
X77886784Y-80598456D01*
X77722812Y-80666376D01*
X77573512Y-80696073D01*
X77548742Y-80701000D01*
X77371258Y-80701000D01*
X77346488Y-80696073D01*
X77197188Y-80666376D01*
X77033216Y-80598456D01*
X76885646Y-80499853D01*
X76760147Y-80374354D01*
X76661544Y-80226784D01*
X76593624Y-80062812D01*
X76559000Y-79888741D01*
X76559000Y-79711259D01*
X76593624Y-79537188D01*
X76661544Y-79373216D01*
X76760147Y-79225646D01*
X76885646Y-79100147D01*
X77033216Y-79001544D01*
X77197188Y-78933624D01*
X77355347Y-78902165D01*
X77371258Y-78899000D01*
X77548742Y-78899000D01*
X77564653Y-78902165D01*
G37*
G36*
X80104653Y-78902165D02*
G01*
X80262812Y-78933624D01*
X80426784Y-79001544D01*
X80574354Y-79100147D01*
X80699853Y-79225646D01*
X80798456Y-79373216D01*
X80866376Y-79537188D01*
X80901000Y-79711259D01*
X80901000Y-79888741D01*
X80866376Y-80062812D01*
X80798456Y-80226784D01*
X80699853Y-80374354D01*
X80574354Y-80499853D01*
X80426784Y-80598456D01*
X80262812Y-80666376D01*
X80113512Y-80696073D01*
X80088742Y-80701000D01*
X79911258Y-80701000D01*
X79886488Y-80696073D01*
X79737188Y-80666376D01*
X79573216Y-80598456D01*
X79425646Y-80499853D01*
X79300147Y-80374354D01*
X79201544Y-80226784D01*
X79133624Y-80062812D01*
X79099000Y-79888741D01*
X79099000Y-79711259D01*
X79133624Y-79537188D01*
X79201544Y-79373216D01*
X79300147Y-79225646D01*
X79425646Y-79100147D01*
X79573216Y-79001544D01*
X79737188Y-78933624D01*
X79895347Y-78902165D01*
X79911258Y-78899000D01*
X80088742Y-78899000D01*
X80104653Y-78902165D01*
G37*
G36*
X111806564Y-78389389D02*
G01*
X111997833Y-78468615D01*
X111997835Y-78468616D01*
X112169973Y-78583635D01*
X112316365Y-78730027D01*
X112431385Y-78902167D01*
X112510611Y-79093436D01*
X112551000Y-79296484D01*
X112551000Y-79503516D01*
X112510611Y-79706564D01*
X112431385Y-79897833D01*
X112431384Y-79897835D01*
X112316365Y-80069973D01*
X112169973Y-80216365D01*
X111997835Y-80331384D01*
X111997834Y-80331385D01*
X111997833Y-80331385D01*
X111806564Y-80410611D01*
X111603516Y-80451000D01*
X111396484Y-80451000D01*
X111193436Y-80410611D01*
X111002167Y-80331385D01*
X111002166Y-80331385D01*
X111002165Y-80331384D01*
X110830027Y-80216365D01*
X110683635Y-80069973D01*
X110568616Y-79897835D01*
X110568615Y-79897833D01*
X110489389Y-79706564D01*
X110449000Y-79503516D01*
X110449000Y-79296484D01*
X110489389Y-79093436D01*
X110568615Y-78902167D01*
X110683635Y-78730027D01*
X110830027Y-78583635D01*
X111002165Y-78468616D01*
X111002167Y-78468615D01*
X111193436Y-78389389D01*
X111396484Y-78349000D01*
X111603516Y-78349000D01*
X111806564Y-78389389D01*
G37*
G36*
X117551000Y-80451000D02*
G01*
X115449000Y-80451000D01*
X115449000Y-78349000D01*
X117551000Y-78349000D01*
X117551000Y-80451000D01*
G37*
G36*
X77573512Y-76363927D02*
G01*
X77722812Y-76393624D01*
X77886784Y-76461544D01*
X78034354Y-76560147D01*
X78159853Y-76685646D01*
X78258456Y-76833216D01*
X78326376Y-76997188D01*
X78361000Y-77171259D01*
X78361000Y-77348741D01*
X78326376Y-77522812D01*
X78258456Y-77686784D01*
X78159853Y-77834354D01*
X78034354Y-77959853D01*
X77886784Y-78058456D01*
X77722812Y-78126376D01*
X77573512Y-78156073D01*
X77548742Y-78161000D01*
X77371258Y-78161000D01*
X77346488Y-78156073D01*
X77197188Y-78126376D01*
X77033216Y-78058456D01*
X76885646Y-77959853D01*
X76760147Y-77834354D01*
X76661544Y-77686784D01*
X76593624Y-77522812D01*
X76559000Y-77348741D01*
X76559000Y-77171259D01*
X76593624Y-76997188D01*
X76661544Y-76833216D01*
X76760147Y-76685646D01*
X76885646Y-76560147D01*
X77033216Y-76461544D01*
X77197188Y-76393624D01*
X77346488Y-76363927D01*
X77371258Y-76359000D01*
X77548742Y-76359000D01*
X77573512Y-76363927D01*
G37*
G36*
X80113512Y-76363927D02*
G01*
X80262812Y-76393624D01*
X80426784Y-76461544D01*
X80574354Y-76560147D01*
X80699853Y-76685646D01*
X80798456Y-76833216D01*
X80866376Y-76997188D01*
X80901000Y-77171259D01*
X80901000Y-77348741D01*
X80866376Y-77522812D01*
X80798456Y-77686784D01*
X80699853Y-77834354D01*
X80574354Y-77959853D01*
X80426784Y-78058456D01*
X80262812Y-78126376D01*
X80113512Y-78156073D01*
X80088742Y-78161000D01*
X79911258Y-78161000D01*
X79886488Y-78156073D01*
X79737188Y-78126376D01*
X79573216Y-78058456D01*
X79425646Y-77959853D01*
X79300147Y-77834354D01*
X79201544Y-77686784D01*
X79133624Y-77522812D01*
X79099000Y-77348741D01*
X79099000Y-77171259D01*
X79133624Y-76997188D01*
X79201544Y-76833216D01*
X79300147Y-76685646D01*
X79425646Y-76560147D01*
X79573216Y-76461544D01*
X79737188Y-76393624D01*
X79886488Y-76363927D01*
X79911258Y-76359000D01*
X80088742Y-76359000D01*
X80113512Y-76363927D01*
G37*
G36*
X165292817Y-74462847D02*
G01*
X165500465Y-74548858D01*
X165687345Y-74673727D01*
X165846273Y-74832655D01*
X165971142Y-75019535D01*
X166057153Y-75227183D01*
X166101000Y-75447620D01*
X166101000Y-75672380D01*
X166057153Y-75892817D01*
X165971142Y-76100465D01*
X165846273Y-76287345D01*
X165687345Y-76446273D01*
X165500465Y-76571142D01*
X165292817Y-76657153D01*
X165072380Y-76701000D01*
X164847620Y-76701000D01*
X164627183Y-76657153D01*
X164419535Y-76571142D01*
X164232655Y-76446273D01*
X164073727Y-76287345D01*
X163948858Y-76100465D01*
X163862847Y-75892817D01*
X163819000Y-75672380D01*
X163819000Y-75447620D01*
X163862847Y-75227183D01*
X163948858Y-75019535D01*
X164073727Y-74832655D01*
X164232655Y-74673727D01*
X164419535Y-74548858D01*
X164627183Y-74462847D01*
X164847620Y-74419000D01*
X165072380Y-74419000D01*
X165292817Y-74462847D01*
G37*
G36*
X130907142Y-74778242D02*
G01*
X131055101Y-74839529D01*
X131188255Y-74928499D01*
X131301501Y-75041745D01*
X131390471Y-75174899D01*
X131451758Y-75322858D01*
X131483000Y-75479925D01*
X131483000Y-75640075D01*
X131451758Y-75797142D01*
X131390471Y-75945101D01*
X131301501Y-76078255D01*
X131188255Y-76191501D01*
X131055101Y-76280471D01*
X130907142Y-76341758D01*
X130750075Y-76373000D01*
X130589925Y-76373000D01*
X130432858Y-76341758D01*
X130284899Y-76280471D01*
X130151745Y-76191501D01*
X130038499Y-76078255D01*
X129949529Y-75945101D01*
X129888242Y-75797142D01*
X129857000Y-75640075D01*
X129857000Y-75479925D01*
X129888242Y-75322858D01*
X129949529Y-75174899D01*
X130038499Y-75041745D01*
X130151745Y-74928499D01*
X130284899Y-74839529D01*
X130432858Y-74778242D01*
X130589925Y-74747000D01*
X130750075Y-74747000D01*
X130907142Y-74778242D01*
G37*
G36*
X77573512Y-73823927D02*
G01*
X77722812Y-73853624D01*
X77886784Y-73921544D01*
X78034354Y-74020147D01*
X78159853Y-74145646D01*
X78258456Y-74293216D01*
X78326376Y-74457188D01*
X78361000Y-74631259D01*
X78361000Y-74808741D01*
X78326376Y-74982812D01*
X78258456Y-75146784D01*
X78159853Y-75294354D01*
X78034354Y-75419853D01*
X77886784Y-75518456D01*
X77722812Y-75586376D01*
X77573512Y-75616073D01*
X77548742Y-75621000D01*
X77371258Y-75621000D01*
X77346488Y-75616073D01*
X77197188Y-75586376D01*
X77033216Y-75518456D01*
X76885646Y-75419853D01*
X76760147Y-75294354D01*
X76661544Y-75146784D01*
X76593624Y-74982812D01*
X76559000Y-74808741D01*
X76559000Y-74631259D01*
X76593624Y-74457188D01*
X76661544Y-74293216D01*
X76760147Y-74145646D01*
X76885646Y-74020147D01*
X77033216Y-73921544D01*
X77197188Y-73853624D01*
X77346488Y-73823927D01*
X77371258Y-73819000D01*
X77548742Y-73819000D01*
X77573512Y-73823927D01*
G37*
G36*
X80113512Y-73823927D02*
G01*
X80262812Y-73853624D01*
X80426784Y-73921544D01*
X80574354Y-74020147D01*
X80699853Y-74145646D01*
X80798456Y-74293216D01*
X80866376Y-74457188D01*
X80901000Y-74631259D01*
X80901000Y-74808741D01*
X80866376Y-74982812D01*
X80798456Y-75146784D01*
X80699853Y-75294354D01*
X80574354Y-75419853D01*
X80426784Y-75518456D01*
X80262812Y-75586376D01*
X80113512Y-75616073D01*
X80088742Y-75621000D01*
X79911258Y-75621000D01*
X79886488Y-75616073D01*
X79737188Y-75586376D01*
X79573216Y-75518456D01*
X79425646Y-75419853D01*
X79300147Y-75294354D01*
X79201544Y-75146784D01*
X79133624Y-74982812D01*
X79099000Y-74808741D01*
X79099000Y-74631259D01*
X79133624Y-74457188D01*
X79201544Y-74293216D01*
X79300147Y-74145646D01*
X79425646Y-74020147D01*
X79573216Y-73921544D01*
X79737188Y-73853624D01*
X79886488Y-73823927D01*
X79911258Y-73819000D01*
X80088742Y-73819000D01*
X80113512Y-73823927D01*
G37*
G36*
X130907142Y-72238242D02*
G01*
X131055101Y-72299529D01*
X131188255Y-72388499D01*
X131301501Y-72501745D01*
X131390471Y-72634899D01*
X131451758Y-72782858D01*
X131483000Y-72939925D01*
X131483000Y-73100075D01*
X131451758Y-73257142D01*
X131390471Y-73405101D01*
X131301501Y-73538255D01*
X131188255Y-73651501D01*
X131055101Y-73740471D01*
X130907142Y-73801758D01*
X130750075Y-73833000D01*
X130589925Y-73833000D01*
X130432858Y-73801758D01*
X130284899Y-73740471D01*
X130151745Y-73651501D01*
X130038499Y-73538255D01*
X129949529Y-73405101D01*
X129888242Y-73257142D01*
X129857000Y-73100075D01*
X129857000Y-72939925D01*
X129888242Y-72782858D01*
X129949529Y-72634899D01*
X130038499Y-72501745D01*
X130151745Y-72388499D01*
X130284899Y-72299529D01*
X130432858Y-72238242D01*
X130589925Y-72207000D01*
X130750075Y-72207000D01*
X130907142Y-72238242D01*
G37*
G36*
X77573512Y-71283927D02*
G01*
X77722812Y-71313624D01*
X77886784Y-71381544D01*
X78034354Y-71480147D01*
X78159853Y-71605646D01*
X78258456Y-71753216D01*
X78326376Y-71917188D01*
X78361000Y-72091259D01*
X78361000Y-72268741D01*
X78326376Y-72442812D01*
X78258456Y-72606784D01*
X78159853Y-72754354D01*
X78034354Y-72879853D01*
X77886784Y-72978456D01*
X77722812Y-73046376D01*
X77573512Y-73076073D01*
X77548742Y-73081000D01*
X77371258Y-73081000D01*
X77346488Y-73076073D01*
X77197188Y-73046376D01*
X77033216Y-72978456D01*
X76885646Y-72879853D01*
X76760147Y-72754354D01*
X76661544Y-72606784D01*
X76593624Y-72442812D01*
X76559000Y-72268741D01*
X76559000Y-72091259D01*
X76593624Y-71917188D01*
X76661544Y-71753216D01*
X76760147Y-71605646D01*
X76885646Y-71480147D01*
X77033216Y-71381544D01*
X77197188Y-71313624D01*
X77346488Y-71283927D01*
X77371258Y-71279000D01*
X77548742Y-71279000D01*
X77573512Y-71283927D01*
G37*
G36*
X80113512Y-71283927D02*
G01*
X80262812Y-71313624D01*
X80426784Y-71381544D01*
X80574354Y-71480147D01*
X80699853Y-71605646D01*
X80798456Y-71753216D01*
X80866376Y-71917188D01*
X80901000Y-72091259D01*
X80901000Y-72268741D01*
X80866376Y-72442812D01*
X80798456Y-72606784D01*
X80699853Y-72754354D01*
X80574354Y-72879853D01*
X80426784Y-72978456D01*
X80262812Y-73046376D01*
X80113512Y-73076073D01*
X80088742Y-73081000D01*
X79911258Y-73081000D01*
X79886488Y-73076073D01*
X79737188Y-73046376D01*
X79573216Y-72978456D01*
X79425646Y-72879853D01*
X79300147Y-72754354D01*
X79201544Y-72606784D01*
X79133624Y-72442812D01*
X79099000Y-72268741D01*
X79099000Y-72091259D01*
X79133624Y-71917188D01*
X79201544Y-71753216D01*
X79300147Y-71605646D01*
X79425646Y-71480147D01*
X79573216Y-71381544D01*
X79737188Y-71313624D01*
X79886488Y-71283927D01*
X79911258Y-71279000D01*
X80088742Y-71279000D01*
X80113512Y-71283927D01*
G37*
G36*
X130907142Y-69698242D02*
G01*
X131055101Y-69759529D01*
X131188255Y-69848499D01*
X131301501Y-69961745D01*
X131390471Y-70094899D01*
X131451758Y-70242858D01*
X131483000Y-70399925D01*
X131483000Y-70560075D01*
X131451758Y-70717142D01*
X131390471Y-70865101D01*
X131301501Y-70998255D01*
X131188255Y-71111501D01*
X131055101Y-71200471D01*
X130907142Y-71261758D01*
X130750075Y-71293000D01*
X130589925Y-71293000D01*
X130432858Y-71261758D01*
X130284899Y-71200471D01*
X130151745Y-71111501D01*
X130038499Y-70998255D01*
X129949529Y-70865101D01*
X129888242Y-70717142D01*
X129857000Y-70560075D01*
X129857000Y-70399925D01*
X129888242Y-70242858D01*
X129949529Y-70094899D01*
X130038499Y-69961745D01*
X130151745Y-69848499D01*
X130284899Y-69759529D01*
X130432858Y-69698242D01*
X130589925Y-69667000D01*
X130750075Y-69667000D01*
X130907142Y-69698242D01*
G37*
G36*
X166467142Y-69698242D02*
G01*
X166615101Y-69759529D01*
X166748255Y-69848499D01*
X166861501Y-69961745D01*
X166950471Y-70094899D01*
X167011758Y-70242858D01*
X167043000Y-70399925D01*
X167043000Y-70560075D01*
X167011758Y-70717142D01*
X166950471Y-70865101D01*
X166861501Y-70998255D01*
X166748255Y-71111501D01*
X166615101Y-71200471D01*
X166467142Y-71261758D01*
X166310075Y-71293000D01*
X166149925Y-71293000D01*
X165992858Y-71261758D01*
X165844899Y-71200471D01*
X165711745Y-71111501D01*
X165598499Y-70998255D01*
X165509529Y-70865101D01*
X165448242Y-70717142D01*
X165417000Y-70560075D01*
X165417000Y-70399925D01*
X165448242Y-70242858D01*
X165509529Y-70094899D01*
X165598499Y-69961745D01*
X165711745Y-69848499D01*
X165844899Y-69759529D01*
X165992858Y-69698242D01*
X166149925Y-69667000D01*
X166310075Y-69667000D01*
X166467142Y-69698242D01*
G37*
G36*
X80113512Y-68743927D02*
G01*
X80262812Y-68773624D01*
X80426784Y-68841544D01*
X80574354Y-68940147D01*
X80699853Y-69065646D01*
X80798456Y-69213216D01*
X80866376Y-69377188D01*
X80901000Y-69551259D01*
X80901000Y-69728741D01*
X80866376Y-69902812D01*
X80798456Y-70066784D01*
X80699853Y-70214354D01*
X80574354Y-70339853D01*
X80426784Y-70438456D01*
X80262812Y-70506376D01*
X80113512Y-70536073D01*
X80088742Y-70541000D01*
X79911258Y-70541000D01*
X79886488Y-70536073D01*
X79737188Y-70506376D01*
X79573216Y-70438456D01*
X79425646Y-70339853D01*
X79300147Y-70214354D01*
X79201544Y-70066784D01*
X79133624Y-69902812D01*
X79099000Y-69728741D01*
X79099000Y-69551259D01*
X79133624Y-69377188D01*
X79201544Y-69213216D01*
X79300147Y-69065646D01*
X79425646Y-68940147D01*
X79573216Y-68841544D01*
X79737188Y-68773624D01*
X79886488Y-68743927D01*
X79911258Y-68739000D01*
X80088742Y-68739000D01*
X80113512Y-68743927D01*
G37*
G36*
X77573512Y-68743927D02*
G01*
X77722812Y-68773624D01*
X77886784Y-68841544D01*
X78034354Y-68940147D01*
X78159853Y-69065646D01*
X78258456Y-69213216D01*
X78326376Y-69377188D01*
X78361000Y-69551259D01*
X78361000Y-69728741D01*
X78326376Y-69902812D01*
X78258456Y-70066784D01*
X78159853Y-70214354D01*
X78034354Y-70339853D01*
X77886784Y-70438456D01*
X77722812Y-70506376D01*
X77573512Y-70536073D01*
X77548742Y-70541000D01*
X77371258Y-70541000D01*
X77346488Y-70536073D01*
X77197188Y-70506376D01*
X77033216Y-70438456D01*
X76885646Y-70339853D01*
X76760147Y-70214354D01*
X76661544Y-70066784D01*
X76593624Y-69902812D01*
X76559000Y-69728741D01*
X76559000Y-69551259D01*
X76593624Y-69377188D01*
X76661544Y-69213216D01*
X76760147Y-69065646D01*
X76885646Y-68940147D01*
X77033216Y-68841544D01*
X77197188Y-68773624D01*
X77346488Y-68743927D01*
X77371258Y-68739000D01*
X77548742Y-68739000D01*
X77573512Y-68743927D01*
G37*
G36*
X117551000Y-69451000D02*
G01*
X115449000Y-69451000D01*
X115449000Y-67349000D01*
X117551000Y-67349000D01*
X117551000Y-69451000D01*
G37*
G36*
X111806564Y-67389389D02*
G01*
X111997833Y-67468615D01*
X111997835Y-67468616D01*
X112169973Y-67583635D01*
X112316365Y-67730027D01*
X112428906Y-67898456D01*
X112431385Y-67902167D01*
X112510611Y-68093436D01*
X112551000Y-68296484D01*
X112551000Y-68503516D01*
X112510611Y-68706564D01*
X112431385Y-68897833D01*
X112431384Y-68897835D01*
X112316365Y-69069973D01*
X112169973Y-69216365D01*
X111997835Y-69331384D01*
X111997834Y-69331385D01*
X111997833Y-69331385D01*
X111806564Y-69410611D01*
X111603516Y-69451000D01*
X111396484Y-69451000D01*
X111193436Y-69410611D01*
X111002167Y-69331385D01*
X111002166Y-69331385D01*
X111002165Y-69331384D01*
X110830027Y-69216365D01*
X110683635Y-69069973D01*
X110568616Y-68897835D01*
X110568615Y-68897833D01*
X110489389Y-68706564D01*
X110449000Y-68503516D01*
X110449000Y-68296484D01*
X110489389Y-68093436D01*
X110568615Y-67902167D01*
X110571095Y-67898456D01*
X110683635Y-67730027D01*
X110830027Y-67583635D01*
X111002165Y-67468616D01*
X111002167Y-67468615D01*
X111193436Y-67389389D01*
X111396484Y-67349000D01*
X111603516Y-67349000D01*
X111806564Y-67389389D01*
G37*
G36*
X93551000Y-69451000D02*
G01*
X91449000Y-69451000D01*
X91449000Y-67349000D01*
X93551000Y-67349000D01*
X93551000Y-69451000D01*
G37*
G36*
X87806564Y-67389389D02*
G01*
X87997833Y-67468615D01*
X87997835Y-67468616D01*
X88169973Y-67583635D01*
X88316365Y-67730027D01*
X88428906Y-67898456D01*
X88431385Y-67902167D01*
X88510611Y-68093436D01*
X88551000Y-68296484D01*
X88551000Y-68503516D01*
X88510611Y-68706564D01*
X88431385Y-68897833D01*
X88431384Y-68897835D01*
X88316365Y-69069973D01*
X88169973Y-69216365D01*
X87997835Y-69331384D01*
X87997834Y-69331385D01*
X87997833Y-69331385D01*
X87806564Y-69410611D01*
X87603516Y-69451000D01*
X87396484Y-69451000D01*
X87193436Y-69410611D01*
X87002167Y-69331385D01*
X87002166Y-69331385D01*
X87002165Y-69331384D01*
X86830027Y-69216365D01*
X86683635Y-69069973D01*
X86568616Y-68897835D01*
X86568615Y-68897833D01*
X86489389Y-68706564D01*
X86449000Y-68503516D01*
X86449000Y-68296484D01*
X86489389Y-68093436D01*
X86568615Y-67902167D01*
X86571095Y-67898456D01*
X86683635Y-67730027D01*
X86830027Y-67583635D01*
X87002165Y-67468616D01*
X87002167Y-67468615D01*
X87193436Y-67389389D01*
X87396484Y-67349000D01*
X87603516Y-67349000D01*
X87806564Y-67389389D01*
G37*
G36*
X104806564Y-67389389D02*
G01*
X104997833Y-67468615D01*
X104997835Y-67468616D01*
X105169973Y-67583635D01*
X105316365Y-67730027D01*
X105428906Y-67898456D01*
X105431385Y-67902167D01*
X105510611Y-68093436D01*
X105551000Y-68296484D01*
X105551000Y-68503516D01*
X105510611Y-68706564D01*
X105431385Y-68897833D01*
X105431384Y-68897835D01*
X105316365Y-69069973D01*
X105169973Y-69216365D01*
X104997835Y-69331384D01*
X104997834Y-69331385D01*
X104997833Y-69331385D01*
X104806564Y-69410611D01*
X104603516Y-69451000D01*
X104396484Y-69451000D01*
X104193436Y-69410611D01*
X104002167Y-69331385D01*
X104002166Y-69331385D01*
X104002165Y-69331384D01*
X103830027Y-69216365D01*
X103683635Y-69069973D01*
X103568616Y-68897835D01*
X103568615Y-68897833D01*
X103489389Y-68706564D01*
X103449000Y-68503516D01*
X103449000Y-68296484D01*
X103489389Y-68093436D01*
X103568615Y-67902167D01*
X103571095Y-67898456D01*
X103683635Y-67730027D01*
X103830027Y-67583635D01*
X104002165Y-67468616D01*
X104002167Y-67468615D01*
X104193436Y-67389389D01*
X104396484Y-67349000D01*
X104603516Y-67349000D01*
X104806564Y-67389389D01*
G37*
G36*
X100551000Y-69451000D02*
G01*
X98449000Y-69451000D01*
X98449000Y-67349000D01*
X100551000Y-67349000D01*
X100551000Y-69451000D01*
G37*
G36*
X130907142Y-67158242D02*
G01*
X131055101Y-67219529D01*
X131188255Y-67308499D01*
X131301501Y-67421745D01*
X131390471Y-67554899D01*
X131451758Y-67702858D01*
X131483000Y-67859925D01*
X131483000Y-68020075D01*
X131451758Y-68177142D01*
X131390471Y-68325101D01*
X131301501Y-68458255D01*
X131188255Y-68571501D01*
X131055101Y-68660471D01*
X130907142Y-68721758D01*
X130750075Y-68753000D01*
X130589925Y-68753000D01*
X130432858Y-68721758D01*
X130284899Y-68660471D01*
X130151745Y-68571501D01*
X130038499Y-68458255D01*
X129949529Y-68325101D01*
X129888242Y-68177142D01*
X129857000Y-68020075D01*
X129857000Y-67859925D01*
X129888242Y-67702858D01*
X129949529Y-67554899D01*
X130038499Y-67421745D01*
X130151745Y-67308499D01*
X130284899Y-67219529D01*
X130432858Y-67158242D01*
X130589925Y-67127000D01*
X130750075Y-67127000D01*
X130907142Y-67158242D01*
G37*
G36*
X166467142Y-67158242D02*
G01*
X166615101Y-67219529D01*
X166748255Y-67308499D01*
X166861501Y-67421745D01*
X166950471Y-67554899D01*
X167011758Y-67702858D01*
X167043000Y-67859925D01*
X167043000Y-68020075D01*
X167011758Y-68177142D01*
X166950471Y-68325101D01*
X166861501Y-68458255D01*
X166748255Y-68571501D01*
X166615101Y-68660471D01*
X166467142Y-68721758D01*
X166310075Y-68753000D01*
X166149925Y-68753000D01*
X165992858Y-68721758D01*
X165844899Y-68660471D01*
X165711745Y-68571501D01*
X165598499Y-68458255D01*
X165509529Y-68325101D01*
X165448242Y-68177142D01*
X165417000Y-68020075D01*
X165417000Y-67859925D01*
X165448242Y-67702858D01*
X165509529Y-67554899D01*
X165598499Y-67421745D01*
X165711745Y-67308499D01*
X165844899Y-67219529D01*
X165992858Y-67158242D01*
X166149925Y-67127000D01*
X166310075Y-67127000D01*
X166467142Y-67158242D01*
G37*
G36*
X77573512Y-66203927D02*
G01*
X77722812Y-66233624D01*
X77886784Y-66301544D01*
X78034354Y-66400147D01*
X78159853Y-66525646D01*
X78258456Y-66673216D01*
X78326376Y-66837188D01*
X78352072Y-66966375D01*
X78358960Y-67001000D01*
X78361000Y-67011259D01*
X78361000Y-67188741D01*
X78326376Y-67362812D01*
X78258456Y-67526784D01*
X78159853Y-67674354D01*
X78034354Y-67799853D01*
X77886784Y-67898456D01*
X77722812Y-67966376D01*
X77573512Y-67996073D01*
X77548742Y-68001000D01*
X77371258Y-68001000D01*
X77346488Y-67996073D01*
X77197188Y-67966376D01*
X77033216Y-67898456D01*
X76885646Y-67799853D01*
X76760147Y-67674354D01*
X76661544Y-67526784D01*
X76593624Y-67362812D01*
X76559000Y-67188741D01*
X76559000Y-67011259D01*
X76561041Y-67001000D01*
X76567928Y-66966375D01*
X76593624Y-66837188D01*
X76661544Y-66673216D01*
X76760147Y-66525646D01*
X76885646Y-66400147D01*
X77033216Y-66301544D01*
X77197188Y-66233624D01*
X77346488Y-66203927D01*
X77371258Y-66199000D01*
X77548742Y-66199000D01*
X77573512Y-66203927D01*
G37*
G36*
X80113512Y-66203927D02*
G01*
X80262812Y-66233624D01*
X80426784Y-66301544D01*
X80574354Y-66400147D01*
X80699853Y-66525646D01*
X80798456Y-66673216D01*
X80866376Y-66837188D01*
X80892072Y-66966375D01*
X80898960Y-67001000D01*
X80901000Y-67011259D01*
X80901000Y-67188741D01*
X80866376Y-67362812D01*
X80798456Y-67526784D01*
X80699853Y-67674354D01*
X80574354Y-67799853D01*
X80426784Y-67898456D01*
X80262812Y-67966376D01*
X80113512Y-67996073D01*
X80088742Y-68001000D01*
X79911258Y-68001000D01*
X79886488Y-67996073D01*
X79737188Y-67966376D01*
X79573216Y-67898456D01*
X79425646Y-67799853D01*
X79300147Y-67674354D01*
X79201544Y-67526784D01*
X79133624Y-67362812D01*
X79099000Y-67188741D01*
X79099000Y-67011259D01*
X79101041Y-67001000D01*
X79107928Y-66966375D01*
X79133624Y-66837188D01*
X79201544Y-66673216D01*
X79300147Y-66525646D01*
X79425646Y-66400147D01*
X79573216Y-66301544D01*
X79737188Y-66233624D01*
X79886488Y-66203927D01*
X79911258Y-66199000D01*
X80088742Y-66199000D01*
X80113512Y-66203927D01*
G37*
G36*
X174613512Y-65203927D02*
G01*
X174762812Y-65233624D01*
X174926784Y-65301544D01*
X175074354Y-65400147D01*
X175199853Y-65525646D01*
X175298456Y-65673216D01*
X175366376Y-65837188D01*
X175382501Y-65918257D01*
X175401000Y-66011258D01*
X175401000Y-66188742D01*
X175396175Y-66213000D01*
X175366376Y-66362812D01*
X175298456Y-66526784D01*
X175199853Y-66674354D01*
X175074354Y-66799853D01*
X174926784Y-66898456D01*
X174762812Y-66966376D01*
X174613512Y-66996073D01*
X174588742Y-67001000D01*
X174411258Y-67001000D01*
X174386488Y-66996073D01*
X174237188Y-66966376D01*
X174073216Y-66898456D01*
X173925646Y-66799853D01*
X173800147Y-66674354D01*
X173701544Y-66526784D01*
X173633624Y-66362812D01*
X173603825Y-66213000D01*
X173599000Y-66188742D01*
X173599000Y-66011258D01*
X173617499Y-65918257D01*
X173633624Y-65837188D01*
X173701544Y-65673216D01*
X173800147Y-65525646D01*
X173925646Y-65400147D01*
X174073216Y-65301544D01*
X174237188Y-65233624D01*
X174386488Y-65203927D01*
X174411258Y-65199000D01*
X174588742Y-65199000D01*
X174613512Y-65203927D01*
G37*
G36*
X166467142Y-64618242D02*
G01*
X166615101Y-64679529D01*
X166748255Y-64768499D01*
X166861501Y-64881745D01*
X166950471Y-65014899D01*
X167011758Y-65162858D01*
X167043000Y-65319925D01*
X167043000Y-65480075D01*
X167011758Y-65637142D01*
X166950471Y-65785101D01*
X166861501Y-65918255D01*
X166748255Y-66031501D01*
X166615101Y-66120471D01*
X166467142Y-66181758D01*
X166310075Y-66213000D01*
X166149925Y-66213000D01*
X165992858Y-66181758D01*
X165844899Y-66120471D01*
X165711745Y-66031501D01*
X165598499Y-65918255D01*
X165509529Y-65785101D01*
X165448242Y-65637142D01*
X165417000Y-65480075D01*
X165417000Y-65319925D01*
X165448242Y-65162858D01*
X165509529Y-65014899D01*
X165598499Y-64881745D01*
X165711745Y-64768499D01*
X165844899Y-64679529D01*
X165992858Y-64618242D01*
X166149925Y-64587000D01*
X166310075Y-64587000D01*
X166467142Y-64618242D01*
G37*
G36*
X130907142Y-64618242D02*
G01*
X131055101Y-64679529D01*
X131188255Y-64768499D01*
X131301501Y-64881745D01*
X131390471Y-65014899D01*
X131451758Y-65162858D01*
X131483000Y-65319925D01*
X131483000Y-65480075D01*
X131451758Y-65637142D01*
X131390471Y-65785101D01*
X131301501Y-65918255D01*
X131188255Y-66031501D01*
X131055101Y-66120471D01*
X130907142Y-66181758D01*
X130750075Y-66213000D01*
X130589925Y-66213000D01*
X130432858Y-66181758D01*
X130284899Y-66120471D01*
X130151745Y-66031501D01*
X130038499Y-65918255D01*
X129949529Y-65785101D01*
X129888242Y-65637142D01*
X129857000Y-65480075D01*
X129857000Y-65319925D01*
X129888242Y-65162858D01*
X129949529Y-65014899D01*
X130038499Y-64881745D01*
X130151745Y-64768499D01*
X130284899Y-64679529D01*
X130432858Y-64618242D01*
X130589925Y-64587000D01*
X130750075Y-64587000D01*
X130907142Y-64618242D01*
G37*
G36*
X80113512Y-63663927D02*
G01*
X80262812Y-63693624D01*
X80426784Y-63761544D01*
X80574354Y-63860147D01*
X80699853Y-63985646D01*
X80798456Y-64133216D01*
X80866376Y-64297188D01*
X80892072Y-64426375D01*
X80898960Y-64461000D01*
X80901000Y-64471259D01*
X80901000Y-64648741D01*
X80866376Y-64822812D01*
X80798456Y-64986784D01*
X80699853Y-65134354D01*
X80574354Y-65259853D01*
X80426784Y-65358456D01*
X80262812Y-65426376D01*
X80113512Y-65456073D01*
X80088742Y-65461000D01*
X79911258Y-65461000D01*
X79886488Y-65456073D01*
X79737188Y-65426376D01*
X79573216Y-65358456D01*
X79425646Y-65259853D01*
X79300147Y-65134354D01*
X79201544Y-64986784D01*
X79133624Y-64822812D01*
X79099000Y-64648741D01*
X79099000Y-64471259D01*
X79101041Y-64461000D01*
X79107928Y-64426375D01*
X79133624Y-64297188D01*
X79201544Y-64133216D01*
X79300147Y-63985646D01*
X79425646Y-63860147D01*
X79573216Y-63761544D01*
X79737188Y-63693624D01*
X79886488Y-63663927D01*
X79911258Y-63659000D01*
X80088742Y-63659000D01*
X80113512Y-63663927D01*
G37*
G36*
X77573512Y-63663927D02*
G01*
X77722812Y-63693624D01*
X77886784Y-63761544D01*
X78034354Y-63860147D01*
X78159853Y-63985646D01*
X78258456Y-64133216D01*
X78326376Y-64297188D01*
X78352072Y-64426375D01*
X78358960Y-64461000D01*
X78361000Y-64471259D01*
X78361000Y-64648741D01*
X78326376Y-64822812D01*
X78258456Y-64986784D01*
X78159853Y-65134354D01*
X78034354Y-65259853D01*
X77886784Y-65358456D01*
X77722812Y-65426376D01*
X77573512Y-65456073D01*
X77548742Y-65461000D01*
X77371258Y-65461000D01*
X77346488Y-65456073D01*
X77197188Y-65426376D01*
X77033216Y-65358456D01*
X76885646Y-65259853D01*
X76760147Y-65134354D01*
X76661544Y-64986784D01*
X76593624Y-64822812D01*
X76559000Y-64648741D01*
X76559000Y-64471259D01*
X76561041Y-64461000D01*
X76567928Y-64426375D01*
X76593624Y-64297188D01*
X76661544Y-64133216D01*
X76760147Y-63985646D01*
X76885646Y-63860147D01*
X77033216Y-63761544D01*
X77197188Y-63693624D01*
X77346488Y-63663927D01*
X77371258Y-63659000D01*
X77548742Y-63659000D01*
X77573512Y-63663927D01*
G37*
G36*
X174613512Y-62663927D02*
G01*
X174762812Y-62693624D01*
X174926784Y-62761544D01*
X175074354Y-62860147D01*
X175199853Y-62985646D01*
X175298456Y-63133216D01*
X175366376Y-63297188D01*
X175382501Y-63378257D01*
X175401000Y-63471258D01*
X175401000Y-63648742D01*
X175396175Y-63673000D01*
X175366376Y-63822812D01*
X175298456Y-63986784D01*
X175199853Y-64134354D01*
X175074354Y-64259853D01*
X174926784Y-64358456D01*
X174762812Y-64426376D01*
X174613512Y-64456073D01*
X174588742Y-64461000D01*
X174411258Y-64461000D01*
X174386488Y-64456073D01*
X174237188Y-64426376D01*
X174073216Y-64358456D01*
X173925646Y-64259853D01*
X173800147Y-64134354D01*
X173701544Y-63986784D01*
X173633624Y-63822812D01*
X173603825Y-63673000D01*
X173599000Y-63648742D01*
X173599000Y-63471258D01*
X173617499Y-63378257D01*
X173633624Y-63297188D01*
X173701544Y-63133216D01*
X173800147Y-62985646D01*
X173925646Y-62860147D01*
X174073216Y-62761544D01*
X174237188Y-62693624D01*
X174386488Y-62663927D01*
X174411258Y-62659000D01*
X174588742Y-62659000D01*
X174613512Y-62663927D01*
G37*
G36*
X166467142Y-62078242D02*
G01*
X166615101Y-62139529D01*
X166748255Y-62228499D01*
X166861501Y-62341745D01*
X166950471Y-62474899D01*
X167011758Y-62622858D01*
X167043000Y-62779925D01*
X167043000Y-62940075D01*
X167011758Y-63097142D01*
X166950471Y-63245101D01*
X166861501Y-63378255D01*
X166748255Y-63491501D01*
X166615101Y-63580471D01*
X166467142Y-63641758D01*
X166310075Y-63673000D01*
X166149925Y-63673000D01*
X165992858Y-63641758D01*
X165844899Y-63580471D01*
X165711745Y-63491501D01*
X165598499Y-63378255D01*
X165509529Y-63245101D01*
X165448242Y-63097142D01*
X165417000Y-62940075D01*
X165417000Y-62779925D01*
X165448242Y-62622858D01*
X165509529Y-62474899D01*
X165598499Y-62341745D01*
X165711745Y-62228499D01*
X165844899Y-62139529D01*
X165992858Y-62078242D01*
X166149925Y-62047000D01*
X166310075Y-62047000D01*
X166467142Y-62078242D01*
G37*
G36*
X130907142Y-62078242D02*
G01*
X131055101Y-62139529D01*
X131188255Y-62228499D01*
X131301501Y-62341745D01*
X131390471Y-62474899D01*
X131451758Y-62622858D01*
X131483000Y-62779925D01*
X131483000Y-62940075D01*
X131451758Y-63097142D01*
X131390471Y-63245101D01*
X131301501Y-63378255D01*
X131188255Y-63491501D01*
X131055101Y-63580471D01*
X130907142Y-63641758D01*
X130750075Y-63673000D01*
X130589925Y-63673000D01*
X130432858Y-63641758D01*
X130284899Y-63580471D01*
X130151745Y-63491501D01*
X130038499Y-63378255D01*
X129949529Y-63245101D01*
X129888242Y-63097142D01*
X129857000Y-62940075D01*
X129857000Y-62779925D01*
X129888242Y-62622858D01*
X129949529Y-62474899D01*
X130038499Y-62341745D01*
X130151745Y-62228499D01*
X130284899Y-62139529D01*
X130432858Y-62078242D01*
X130589925Y-62047000D01*
X130750075Y-62047000D01*
X130907142Y-62078242D01*
G37*
G36*
X77573512Y-61123927D02*
G01*
X77722812Y-61153624D01*
X77886784Y-61221544D01*
X78034354Y-61320147D01*
X78159853Y-61445646D01*
X78258456Y-61593216D01*
X78326376Y-61757188D01*
X78352072Y-61886375D01*
X78358960Y-61921000D01*
X78361000Y-61931259D01*
X78361000Y-62108741D01*
X78326376Y-62282812D01*
X78258456Y-62446784D01*
X78159853Y-62594354D01*
X78034354Y-62719853D01*
X77886784Y-62818456D01*
X77722812Y-62886376D01*
X77573512Y-62916073D01*
X77548742Y-62921000D01*
X77371258Y-62921000D01*
X77346488Y-62916073D01*
X77197188Y-62886376D01*
X77033216Y-62818456D01*
X76885646Y-62719853D01*
X76760147Y-62594354D01*
X76661544Y-62446784D01*
X76593624Y-62282812D01*
X76559000Y-62108741D01*
X76559000Y-61931259D01*
X76561041Y-61921000D01*
X76567928Y-61886375D01*
X76593624Y-61757188D01*
X76661544Y-61593216D01*
X76760147Y-61445646D01*
X76885646Y-61320147D01*
X77033216Y-61221544D01*
X77197188Y-61153624D01*
X77346488Y-61123927D01*
X77371258Y-61119000D01*
X77548742Y-61119000D01*
X77573512Y-61123927D01*
G37*
G36*
X80113512Y-61123927D02*
G01*
X80262812Y-61153624D01*
X80426784Y-61221544D01*
X80574354Y-61320147D01*
X80699853Y-61445646D01*
X80798456Y-61593216D01*
X80866376Y-61757188D01*
X80892072Y-61886375D01*
X80898960Y-61921000D01*
X80901000Y-61931259D01*
X80901000Y-62108741D01*
X80866376Y-62282812D01*
X80798456Y-62446784D01*
X80699853Y-62594354D01*
X80574354Y-62719853D01*
X80426784Y-62818456D01*
X80262812Y-62886376D01*
X80113512Y-62916073D01*
X80088742Y-62921000D01*
X79911258Y-62921000D01*
X79886488Y-62916073D01*
X79737188Y-62886376D01*
X79573216Y-62818456D01*
X79425646Y-62719853D01*
X79300147Y-62594354D01*
X79201544Y-62446784D01*
X79133624Y-62282812D01*
X79099000Y-62108741D01*
X79099000Y-61931259D01*
X79101041Y-61921000D01*
X79107928Y-61886375D01*
X79133624Y-61757188D01*
X79201544Y-61593216D01*
X79300147Y-61445646D01*
X79425646Y-61320147D01*
X79573216Y-61221544D01*
X79737188Y-61153624D01*
X79886488Y-61123927D01*
X79911258Y-61119000D01*
X80088742Y-61119000D01*
X80113512Y-61123927D01*
G37*
G36*
X174613512Y-60123927D02*
G01*
X174762812Y-60153624D01*
X174926784Y-60221544D01*
X175074354Y-60320147D01*
X175199853Y-60445646D01*
X175298456Y-60593216D01*
X175366376Y-60757188D01*
X175382501Y-60838257D01*
X175401000Y-60931258D01*
X175401000Y-61108742D01*
X175396175Y-61133000D01*
X175366376Y-61282812D01*
X175298456Y-61446784D01*
X175199853Y-61594354D01*
X175074354Y-61719853D01*
X174926784Y-61818456D01*
X174762812Y-61886376D01*
X174613512Y-61916073D01*
X174588742Y-61921000D01*
X174411258Y-61921000D01*
X174386488Y-61916073D01*
X174237188Y-61886376D01*
X174073216Y-61818456D01*
X173925646Y-61719853D01*
X173800147Y-61594354D01*
X173701544Y-61446784D01*
X173633624Y-61282812D01*
X173603825Y-61133000D01*
X173599000Y-61108742D01*
X173599000Y-60931258D01*
X173617499Y-60838257D01*
X173633624Y-60757188D01*
X173701544Y-60593216D01*
X173800147Y-60445646D01*
X173925646Y-60320147D01*
X174073216Y-60221544D01*
X174237188Y-60153624D01*
X174386488Y-60123927D01*
X174411258Y-60119000D01*
X174588742Y-60119000D01*
X174613512Y-60123927D01*
G37*
G36*
X166467142Y-59538242D02*
G01*
X166615101Y-59599529D01*
X166748255Y-59688499D01*
X166861501Y-59801745D01*
X166950471Y-59934899D01*
X167011758Y-60082858D01*
X167043000Y-60239925D01*
X167043000Y-60400075D01*
X167011758Y-60557142D01*
X166950471Y-60705101D01*
X166861501Y-60838255D01*
X166748255Y-60951501D01*
X166615101Y-61040471D01*
X166467142Y-61101758D01*
X166310075Y-61133000D01*
X166149925Y-61133000D01*
X165992858Y-61101758D01*
X165844899Y-61040471D01*
X165711745Y-60951501D01*
X165598499Y-60838255D01*
X165509529Y-60705101D01*
X165448242Y-60557142D01*
X165417000Y-60400075D01*
X165417000Y-60239925D01*
X165448242Y-60082858D01*
X165509529Y-59934899D01*
X165598499Y-59801745D01*
X165711745Y-59688499D01*
X165844899Y-59599529D01*
X165992858Y-59538242D01*
X166149925Y-59507000D01*
X166310075Y-59507000D01*
X166467142Y-59538242D01*
G37*
G36*
X130907142Y-59538242D02*
G01*
X131055101Y-59599529D01*
X131188255Y-59688499D01*
X131301501Y-59801745D01*
X131390471Y-59934899D01*
X131451758Y-60082858D01*
X131483000Y-60239925D01*
X131483000Y-60400075D01*
X131451758Y-60557142D01*
X131390471Y-60705101D01*
X131301501Y-60838255D01*
X131188255Y-60951501D01*
X131055101Y-61040471D01*
X130907142Y-61101758D01*
X130750075Y-61133000D01*
X130589925Y-61133000D01*
X130432858Y-61101758D01*
X130284899Y-61040471D01*
X130151745Y-60951501D01*
X130038499Y-60838255D01*
X129949529Y-60705101D01*
X129888242Y-60557142D01*
X129857000Y-60400075D01*
X129857000Y-60239925D01*
X129888242Y-60082858D01*
X129949529Y-59934899D01*
X130038499Y-59801745D01*
X130151745Y-59688499D01*
X130284899Y-59599529D01*
X130432858Y-59538242D01*
X130589925Y-59507000D01*
X130750075Y-59507000D01*
X130907142Y-59538242D01*
G37*
G36*
X80113512Y-58583927D02*
G01*
X80262812Y-58613624D01*
X80426784Y-58681544D01*
X80574354Y-58780147D01*
X80699853Y-58905646D01*
X80798456Y-59053216D01*
X80866376Y-59217188D01*
X80892072Y-59346375D01*
X80898960Y-59381000D01*
X80901000Y-59391259D01*
X80901000Y-59568741D01*
X80866376Y-59742812D01*
X80798456Y-59906784D01*
X80699853Y-60054354D01*
X80574354Y-60179853D01*
X80426784Y-60278456D01*
X80262812Y-60346376D01*
X80113512Y-60376073D01*
X80088742Y-60381000D01*
X79911258Y-60381000D01*
X79886488Y-60376073D01*
X79737188Y-60346376D01*
X79573216Y-60278456D01*
X79425646Y-60179853D01*
X79300147Y-60054354D01*
X79201544Y-59906784D01*
X79133624Y-59742812D01*
X79099000Y-59568741D01*
X79099000Y-59391259D01*
X79101041Y-59381000D01*
X79107928Y-59346375D01*
X79133624Y-59217188D01*
X79201544Y-59053216D01*
X79300147Y-58905646D01*
X79425646Y-58780147D01*
X79573216Y-58681544D01*
X79737188Y-58613624D01*
X79886488Y-58583927D01*
X79911258Y-58579000D01*
X80088742Y-58579000D01*
X80113512Y-58583927D01*
G37*
G36*
X77573512Y-58583927D02*
G01*
X77722812Y-58613624D01*
X77886784Y-58681544D01*
X78034354Y-58780147D01*
X78159853Y-58905646D01*
X78258456Y-59053216D01*
X78326376Y-59217188D01*
X78352072Y-59346375D01*
X78358960Y-59381000D01*
X78361000Y-59391259D01*
X78361000Y-59568741D01*
X78326376Y-59742812D01*
X78258456Y-59906784D01*
X78159853Y-60054354D01*
X78034354Y-60179853D01*
X77886784Y-60278456D01*
X77722812Y-60346376D01*
X77573512Y-60376073D01*
X77548742Y-60381000D01*
X77371258Y-60381000D01*
X77346488Y-60376073D01*
X77197188Y-60346376D01*
X77033216Y-60278456D01*
X76885646Y-60179853D01*
X76760147Y-60054354D01*
X76661544Y-59906784D01*
X76593624Y-59742812D01*
X76559000Y-59568741D01*
X76559000Y-59391259D01*
X76561041Y-59381000D01*
X76567928Y-59346375D01*
X76593624Y-59217188D01*
X76661544Y-59053216D01*
X76760147Y-58905646D01*
X76885646Y-58780147D01*
X77033216Y-58681544D01*
X77197188Y-58613624D01*
X77346488Y-58583927D01*
X77371258Y-58579000D01*
X77548742Y-58579000D01*
X77573512Y-58583927D01*
G37*
G36*
X174613512Y-57583927D02*
G01*
X174762812Y-57613624D01*
X174926784Y-57681544D01*
X175074354Y-57780147D01*
X175199853Y-57905646D01*
X175298456Y-58053216D01*
X175366376Y-58217188D01*
X175382501Y-58298257D01*
X175401000Y-58391258D01*
X175401000Y-58568742D01*
X175396175Y-58593000D01*
X175366376Y-58742812D01*
X175298456Y-58906784D01*
X175199853Y-59054354D01*
X175074354Y-59179853D01*
X174926784Y-59278456D01*
X174762812Y-59346376D01*
X174613512Y-59376073D01*
X174588742Y-59381000D01*
X174411258Y-59381000D01*
X174386488Y-59376073D01*
X174237188Y-59346376D01*
X174073216Y-59278456D01*
X173925646Y-59179853D01*
X173800147Y-59054354D01*
X173701544Y-58906784D01*
X173633624Y-58742812D01*
X173603825Y-58593000D01*
X173599000Y-58568742D01*
X173599000Y-58391258D01*
X173617499Y-58298257D01*
X173633624Y-58217188D01*
X173701544Y-58053216D01*
X173800147Y-57905646D01*
X173925646Y-57780147D01*
X174073216Y-57681544D01*
X174237188Y-57613624D01*
X174386488Y-57583927D01*
X174411258Y-57579000D01*
X174588742Y-57579000D01*
X174613512Y-57583927D01*
G37*
G36*
X125839487Y-56268996D02*
G01*
X126075567Y-56366784D01*
X126076255Y-56367069D01*
X126289339Y-56509447D01*
X126470553Y-56690661D01*
X126547871Y-56806375D01*
X126612932Y-56903747D01*
X126711004Y-57140513D01*
X126761000Y-57391861D01*
X126761000Y-57648139D01*
X126711004Y-57899487D01*
X126662269Y-58017143D01*
X126612931Y-58136255D01*
X126470553Y-58349339D01*
X126289339Y-58530553D01*
X126076255Y-58672931D01*
X126076254Y-58672932D01*
X126076253Y-58672932D01*
X125839487Y-58771004D01*
X125588139Y-58821000D01*
X125331861Y-58821000D01*
X125080513Y-58771004D01*
X124843747Y-58672932D01*
X124843746Y-58672932D01*
X124843745Y-58672931D01*
X124630661Y-58530553D01*
X124449447Y-58349339D01*
X124307069Y-58136255D01*
X124257731Y-58017143D01*
X124208996Y-57899487D01*
X124159000Y-57648139D01*
X124159000Y-57391861D01*
X124208996Y-57140513D01*
X124307068Y-56903747D01*
X124372130Y-56806375D01*
X124449447Y-56690661D01*
X124630661Y-56509447D01*
X124843745Y-56367069D01*
X124844433Y-56366784D01*
X125080513Y-56268996D01*
X125331861Y-56219000D01*
X125588139Y-56219000D01*
X125839487Y-56268996D01*
G37*
G36*
X90279487Y-56268996D02*
G01*
X90515567Y-56366784D01*
X90516255Y-56367069D01*
X90729339Y-56509447D01*
X90910553Y-56690661D01*
X90987871Y-56806375D01*
X91052932Y-56903747D01*
X91151004Y-57140513D01*
X91201000Y-57391861D01*
X91201000Y-57648139D01*
X91151004Y-57899487D01*
X91102269Y-58017143D01*
X91052931Y-58136255D01*
X90910553Y-58349339D01*
X90729339Y-58530553D01*
X90516255Y-58672931D01*
X90516254Y-58672932D01*
X90516253Y-58672932D01*
X90279487Y-58771004D01*
X90028139Y-58821000D01*
X89771861Y-58821000D01*
X89520513Y-58771004D01*
X89283747Y-58672932D01*
X89283746Y-58672932D01*
X89283745Y-58672931D01*
X89070661Y-58530553D01*
X88889447Y-58349339D01*
X88747069Y-58136255D01*
X88697731Y-58017143D01*
X88648996Y-57899487D01*
X88599000Y-57648139D01*
X88599000Y-57391861D01*
X88648996Y-57140513D01*
X88747068Y-56903747D01*
X88812130Y-56806375D01*
X88889447Y-56690661D01*
X89070661Y-56509447D01*
X89283745Y-56367069D01*
X89284433Y-56366784D01*
X89520513Y-56268996D01*
X89771861Y-56219000D01*
X90028139Y-56219000D01*
X90279487Y-56268996D01*
G37*
G36*
X166467142Y-56998242D02*
G01*
X166615101Y-57059529D01*
X166748255Y-57148499D01*
X166861501Y-57261745D01*
X166950471Y-57394899D01*
X167011758Y-57542858D01*
X167043000Y-57699925D01*
X167043000Y-57860075D01*
X167011758Y-58017142D01*
X166950471Y-58165101D01*
X166861501Y-58298255D01*
X166748255Y-58411501D01*
X166615101Y-58500471D01*
X166467142Y-58561758D01*
X166310075Y-58593000D01*
X166149925Y-58593000D01*
X165992858Y-58561758D01*
X165844899Y-58500471D01*
X165711745Y-58411501D01*
X165598499Y-58298255D01*
X165509529Y-58165101D01*
X165448242Y-58017142D01*
X165417000Y-57860075D01*
X165417000Y-57699925D01*
X165448242Y-57542858D01*
X165509529Y-57394899D01*
X165598499Y-57261745D01*
X165711745Y-57148499D01*
X165844899Y-57059529D01*
X165992858Y-56998242D01*
X166149925Y-56967000D01*
X166310075Y-56967000D01*
X166467142Y-56998242D01*
G37*
G36*
X130907142Y-56998242D02*
G01*
X131055101Y-57059529D01*
X131188255Y-57148499D01*
X131301501Y-57261745D01*
X131390471Y-57394899D01*
X131451758Y-57542858D01*
X131483000Y-57699925D01*
X131483000Y-57860075D01*
X131451758Y-58017142D01*
X131390471Y-58165101D01*
X131301501Y-58298255D01*
X131188255Y-58411501D01*
X131055101Y-58500471D01*
X130907142Y-58561758D01*
X130750075Y-58593000D01*
X130589925Y-58593000D01*
X130432858Y-58561758D01*
X130284899Y-58500471D01*
X130151745Y-58411501D01*
X130038499Y-58298255D01*
X129949529Y-58165101D01*
X129888242Y-58017142D01*
X129857000Y-57860075D01*
X129857000Y-57699925D01*
X129888242Y-57542858D01*
X129949529Y-57394899D01*
X130038499Y-57261745D01*
X130151745Y-57148499D01*
X130284899Y-57059529D01*
X130432858Y-56998242D01*
X130589925Y-56967000D01*
X130750075Y-56967000D01*
X130907142Y-56998242D01*
G37*
G36*
X77573512Y-56043927D02*
G01*
X77722812Y-56073624D01*
X77886784Y-56141544D01*
X78034354Y-56240147D01*
X78159853Y-56365646D01*
X78258456Y-56513216D01*
X78326376Y-56677188D01*
X78352072Y-56806375D01*
X78358960Y-56841000D01*
X78361000Y-56851259D01*
X78361000Y-57028741D01*
X78326376Y-57202812D01*
X78258456Y-57366784D01*
X78159853Y-57514354D01*
X78034354Y-57639853D01*
X77886784Y-57738456D01*
X77722812Y-57806376D01*
X77573512Y-57836073D01*
X77548742Y-57841000D01*
X77371258Y-57841000D01*
X77346488Y-57836073D01*
X77197188Y-57806376D01*
X77033216Y-57738456D01*
X76885646Y-57639853D01*
X76760147Y-57514354D01*
X76661544Y-57366784D01*
X76593624Y-57202812D01*
X76559000Y-57028741D01*
X76559000Y-56851259D01*
X76561041Y-56841000D01*
X76567928Y-56806375D01*
X76593624Y-56677188D01*
X76661544Y-56513216D01*
X76760147Y-56365646D01*
X76885646Y-56240147D01*
X77033216Y-56141544D01*
X77197188Y-56073624D01*
X77346488Y-56043927D01*
X77371258Y-56039000D01*
X77548742Y-56039000D01*
X77573512Y-56043927D01*
G37*
G36*
X80113512Y-56043927D02*
G01*
X80262812Y-56073624D01*
X80426784Y-56141544D01*
X80574354Y-56240147D01*
X80699853Y-56365646D01*
X80798456Y-56513216D01*
X80866376Y-56677188D01*
X80892072Y-56806375D01*
X80898960Y-56841000D01*
X80901000Y-56851259D01*
X80901000Y-57028741D01*
X80866376Y-57202812D01*
X80798456Y-57366784D01*
X80699853Y-57514354D01*
X80574354Y-57639853D01*
X80426784Y-57738456D01*
X80262812Y-57806376D01*
X80113512Y-57836073D01*
X80088742Y-57841000D01*
X79911258Y-57841000D01*
X79886488Y-57836073D01*
X79737188Y-57806376D01*
X79573216Y-57738456D01*
X79425646Y-57639853D01*
X79300147Y-57514354D01*
X79201544Y-57366784D01*
X79133624Y-57202812D01*
X79099000Y-57028741D01*
X79099000Y-56851259D01*
X79101041Y-56841000D01*
X79107928Y-56806375D01*
X79133624Y-56677188D01*
X79201544Y-56513216D01*
X79300147Y-56365646D01*
X79425646Y-56240147D01*
X79573216Y-56141544D01*
X79737188Y-56073624D01*
X79886488Y-56043927D01*
X79911258Y-56039000D01*
X80088742Y-56039000D01*
X80113512Y-56043927D01*
G37*
G36*
X174613512Y-55043927D02*
G01*
X174762812Y-55073624D01*
X174926784Y-55141544D01*
X175074354Y-55240147D01*
X175199853Y-55365646D01*
X175298456Y-55513216D01*
X175366376Y-55677188D01*
X175382501Y-55758257D01*
X175401000Y-55851258D01*
X175401000Y-56028742D01*
X175396175Y-56053000D01*
X175366376Y-56202812D01*
X175298456Y-56366784D01*
X175199853Y-56514354D01*
X175074354Y-56639853D01*
X174926784Y-56738456D01*
X174762812Y-56806376D01*
X174613512Y-56836073D01*
X174588742Y-56841000D01*
X174411258Y-56841000D01*
X174386488Y-56836073D01*
X174237188Y-56806376D01*
X174073216Y-56738456D01*
X173925646Y-56639853D01*
X173800147Y-56514354D01*
X173701544Y-56366784D01*
X173633624Y-56202812D01*
X173603825Y-56053000D01*
X173599000Y-56028742D01*
X173599000Y-55851258D01*
X173617499Y-55758257D01*
X173633624Y-55677188D01*
X173701544Y-55513216D01*
X173800147Y-55365646D01*
X173925646Y-55240147D01*
X174073216Y-55141544D01*
X174237188Y-55073624D01*
X174386488Y-55043927D01*
X174411258Y-55039000D01*
X174588742Y-55039000D01*
X174613512Y-55043927D01*
G37*
G36*
X130907142Y-54458242D02*
G01*
X131055101Y-54519529D01*
X131188255Y-54608499D01*
X131301501Y-54721745D01*
X131390471Y-54854899D01*
X131451758Y-55002858D01*
X131483000Y-55159925D01*
X131483000Y-55320075D01*
X131451758Y-55477142D01*
X131390471Y-55625101D01*
X131301501Y-55758255D01*
X131188255Y-55871501D01*
X131055101Y-55960471D01*
X130907142Y-56021758D01*
X130750075Y-56053000D01*
X130589925Y-56053000D01*
X130432858Y-56021758D01*
X130284899Y-55960471D01*
X130151745Y-55871501D01*
X130038499Y-55758255D01*
X129949529Y-55625101D01*
X129888242Y-55477142D01*
X129857000Y-55320075D01*
X129857000Y-55159925D01*
X129888242Y-55002858D01*
X129949529Y-54854899D01*
X130038499Y-54721745D01*
X130151745Y-54608499D01*
X130284899Y-54519529D01*
X130432858Y-54458242D01*
X130589925Y-54427000D01*
X130750075Y-54427000D01*
X130907142Y-54458242D01*
G37*
G36*
X166467142Y-54458242D02*
G01*
X166615101Y-54519529D01*
X166748255Y-54608499D01*
X166861501Y-54721745D01*
X166950471Y-54854899D01*
X167011758Y-55002858D01*
X167043000Y-55159925D01*
X167043000Y-55320075D01*
X167011758Y-55477142D01*
X166950471Y-55625101D01*
X166861501Y-55758255D01*
X166748255Y-55871501D01*
X166615101Y-55960471D01*
X166467142Y-56021758D01*
X166310075Y-56053000D01*
X166149925Y-56053000D01*
X165992858Y-56021758D01*
X165844899Y-55960471D01*
X165711745Y-55871501D01*
X165598499Y-55758255D01*
X165509529Y-55625101D01*
X165448242Y-55477142D01*
X165417000Y-55320075D01*
X165417000Y-55159925D01*
X165448242Y-55002858D01*
X165509529Y-54854899D01*
X165598499Y-54721745D01*
X165711745Y-54608499D01*
X165844899Y-54519529D01*
X165992858Y-54458242D01*
X166149925Y-54427000D01*
X166310075Y-54427000D01*
X166467142Y-54458242D01*
G37*
G36*
X78361000Y-55301000D02*
G01*
X76559000Y-55301000D01*
X76559000Y-53499000D01*
X78361000Y-53499000D01*
X78361000Y-55301000D01*
G37*
G36*
X80113512Y-53503927D02*
G01*
X80262812Y-53533624D01*
X80426784Y-53601544D01*
X80574354Y-53700147D01*
X80699853Y-53825646D01*
X80798456Y-53973216D01*
X80866376Y-54137188D01*
X80896073Y-54286488D01*
X80898960Y-54301000D01*
X80901000Y-54311259D01*
X80901000Y-54488741D01*
X80866376Y-54662812D01*
X80798456Y-54826784D01*
X80699853Y-54974354D01*
X80574354Y-55099853D01*
X80426784Y-55198456D01*
X80262812Y-55266376D01*
X80113512Y-55296073D01*
X80088742Y-55301000D01*
X79911258Y-55301000D01*
X79886488Y-55296073D01*
X79737188Y-55266376D01*
X79573216Y-55198456D01*
X79425646Y-55099853D01*
X79300147Y-54974354D01*
X79201544Y-54826784D01*
X79133624Y-54662812D01*
X79099000Y-54488741D01*
X79099000Y-54311259D01*
X79101041Y-54301000D01*
X79103927Y-54286488D01*
X79133624Y-54137188D01*
X79201544Y-53973216D01*
X79300147Y-53825646D01*
X79425646Y-53700147D01*
X79573216Y-53601544D01*
X79737188Y-53533624D01*
X79886488Y-53503927D01*
X79911258Y-53499000D01*
X80088742Y-53499000D01*
X80113512Y-53503927D01*
G37*
G36*
X92673642Y-52939781D02*
G01*
X92819414Y-53000162D01*
X92819416Y-53000163D01*
X92950608Y-53087822D01*
X93062178Y-53199392D01*
X93149837Y-53330584D01*
X93149838Y-53330586D01*
X93210219Y-53476358D01*
X93241000Y-53631107D01*
X93241000Y-53788893D01*
X93210219Y-53943642D01*
X93197968Y-53973218D01*
X93149837Y-54089416D01*
X93062178Y-54220608D01*
X92950608Y-54332178D01*
X92819416Y-54419837D01*
X92819415Y-54419838D01*
X92819414Y-54419838D01*
X92673642Y-54480219D01*
X92518893Y-54511000D01*
X92361107Y-54511000D01*
X92206358Y-54480219D01*
X92060586Y-54419838D01*
X92060585Y-54419838D01*
X92060584Y-54419837D01*
X91929392Y-54332178D01*
X91817822Y-54220608D01*
X91730163Y-54089416D01*
X91682032Y-53973218D01*
X91669781Y-53943642D01*
X91639000Y-53788893D01*
X91639000Y-53631107D01*
X91669781Y-53476358D01*
X91730162Y-53330586D01*
X91730163Y-53330584D01*
X91817822Y-53199392D01*
X91929392Y-53087822D01*
X92060584Y-53000163D01*
X92060586Y-53000162D01*
X92206358Y-52939781D01*
X92361107Y-52909000D01*
X92518893Y-52909000D01*
X92673642Y-52939781D01*
G37*
G36*
X123153642Y-52939781D02*
G01*
X123299414Y-53000162D01*
X123299416Y-53000163D01*
X123430608Y-53087822D01*
X123542178Y-53199392D01*
X123629837Y-53330584D01*
X123629838Y-53330586D01*
X123690219Y-53476358D01*
X123721000Y-53631107D01*
X123721000Y-53788893D01*
X123690219Y-53943642D01*
X123677968Y-53973218D01*
X123629837Y-54089416D01*
X123542178Y-54220608D01*
X123430608Y-54332178D01*
X123299416Y-54419837D01*
X123299415Y-54419838D01*
X123299414Y-54419838D01*
X123153642Y-54480219D01*
X122998893Y-54511000D01*
X122841107Y-54511000D01*
X122686358Y-54480219D01*
X122540586Y-54419838D01*
X122540585Y-54419838D01*
X122540584Y-54419837D01*
X122409392Y-54332178D01*
X122297822Y-54220608D01*
X122210163Y-54089416D01*
X122162032Y-53973218D01*
X122149781Y-53943642D01*
X122119000Y-53788893D01*
X122119000Y-53631107D01*
X122149781Y-53476358D01*
X122210162Y-53330586D01*
X122210163Y-53330584D01*
X122297822Y-53199392D01*
X122409392Y-53087822D01*
X122540584Y-53000163D01*
X122540586Y-53000162D01*
X122686358Y-52939781D01*
X122841107Y-52909000D01*
X122998893Y-52909000D01*
X123153642Y-52939781D01*
G37*
G36*
X175401000Y-54301000D02*
G01*
X173599000Y-54301000D01*
X173599000Y-52499000D01*
X175401000Y-52499000D01*
X175401000Y-54301000D01*
G37*
G36*
X134812817Y-51602847D02*
G01*
X135020465Y-51688858D01*
X135207345Y-51813727D01*
X135366273Y-51972655D01*
X135491142Y-52159535D01*
X135577153Y-52367183D01*
X135621000Y-52587620D01*
X135621000Y-52812380D01*
X135577153Y-53032817D01*
X135491142Y-53240465D01*
X135366273Y-53427345D01*
X135207345Y-53586273D01*
X135020465Y-53711142D01*
X134812817Y-53797153D01*
X134592380Y-53841000D01*
X134367620Y-53841000D01*
X134147183Y-53797153D01*
X133939535Y-53711142D01*
X133752655Y-53586273D01*
X133593727Y-53427345D01*
X133468858Y-53240465D01*
X133382847Y-53032817D01*
X133339000Y-52812380D01*
X133339000Y-52587620D01*
X133382847Y-52367183D01*
X133468858Y-52159535D01*
X133593727Y-51972655D01*
X133752655Y-51813727D01*
X133939535Y-51688858D01*
X134147183Y-51602847D01*
X134367620Y-51559000D01*
X134592380Y-51559000D01*
X134812817Y-51602847D01*
G37*
G36*
X130907142Y-51918242D02*
G01*
X131055101Y-51979529D01*
X131188255Y-52068499D01*
X131301501Y-52181745D01*
X131390471Y-52314899D01*
X131451758Y-52462858D01*
X131483000Y-52619925D01*
X131483000Y-52780075D01*
X131451758Y-52937142D01*
X131390471Y-53085101D01*
X131301501Y-53218255D01*
X131188255Y-53331501D01*
X131055101Y-53420471D01*
X130907142Y-53481758D01*
X130750075Y-53513000D01*
X130589925Y-53513000D01*
X130432858Y-53481758D01*
X130284899Y-53420471D01*
X130151745Y-53331501D01*
X130038499Y-53218255D01*
X129949529Y-53085101D01*
X129888242Y-52937142D01*
X129857000Y-52780075D01*
X129857000Y-52619925D01*
X129888242Y-52462858D01*
X129949529Y-52314899D01*
X130038499Y-52181745D01*
X130151745Y-52068499D01*
X130284899Y-51979529D01*
X130432858Y-51918242D01*
X130589925Y-51887000D01*
X130750075Y-51887000D01*
X130907142Y-51918242D01*
G37*
G36*
X166467142Y-51918242D02*
G01*
X166615101Y-51979529D01*
X166748255Y-52068499D01*
X166861501Y-52181745D01*
X166950471Y-52314899D01*
X167011758Y-52462858D01*
X167043000Y-52619925D01*
X167043000Y-52780075D01*
X167011758Y-52937142D01*
X166950471Y-53085101D01*
X166861501Y-53218255D01*
X166748255Y-53331501D01*
X166615101Y-53420471D01*
X166467142Y-53481758D01*
X166310075Y-53513000D01*
X166149925Y-53513000D01*
X165992858Y-53481758D01*
X165844899Y-53420471D01*
X165711745Y-53331501D01*
X165598499Y-53218255D01*
X165509529Y-53085101D01*
X165448242Y-52937142D01*
X165417000Y-52780075D01*
X165417000Y-52619925D01*
X165448242Y-52462858D01*
X165509529Y-52314899D01*
X165598499Y-52181745D01*
X165711745Y-52068499D01*
X165844899Y-51979529D01*
X165992858Y-51918242D01*
X166149925Y-51887000D01*
X166310075Y-51887000D01*
X166467142Y-51918242D01*
G37*
G36*
X123153642Y-50399781D02*
G01*
X123299414Y-50460162D01*
X123299416Y-50460163D01*
X123430608Y-50547822D01*
X123542178Y-50659392D01*
X123629837Y-50790584D01*
X123629838Y-50790586D01*
X123690219Y-50936358D01*
X123721000Y-51091107D01*
X123721000Y-51248893D01*
X123690219Y-51403642D01*
X123629838Y-51549414D01*
X123629837Y-51549416D01*
X123542178Y-51680608D01*
X123430608Y-51792178D01*
X123299416Y-51879837D01*
X123299415Y-51879838D01*
X123299414Y-51879838D01*
X123153642Y-51940219D01*
X122998893Y-51971000D01*
X122841107Y-51971000D01*
X122686358Y-51940219D01*
X122540586Y-51879838D01*
X122540585Y-51879838D01*
X122540584Y-51879837D01*
X122409392Y-51792178D01*
X122297822Y-51680608D01*
X122210163Y-51549416D01*
X122210162Y-51549414D01*
X122149781Y-51403642D01*
X122119000Y-51248893D01*
X122119000Y-51091107D01*
X122149781Y-50936358D01*
X122210162Y-50790586D01*
X122210163Y-50790584D01*
X122297822Y-50659392D01*
X122409392Y-50547822D01*
X122540584Y-50460163D01*
X122540586Y-50460162D01*
X122686358Y-50399781D01*
X122841107Y-50369000D01*
X122998893Y-50369000D01*
X123153642Y-50399781D01*
G37*
G36*
X92673642Y-50399781D02*
G01*
X92819414Y-50460162D01*
X92819416Y-50460163D01*
X92950608Y-50547822D01*
X93062178Y-50659392D01*
X93149837Y-50790584D01*
X93149838Y-50790586D01*
X93210219Y-50936358D01*
X93241000Y-51091107D01*
X93241000Y-51248893D01*
X93210219Y-51403642D01*
X93149838Y-51549414D01*
X93149837Y-51549416D01*
X93062178Y-51680608D01*
X92950608Y-51792178D01*
X92819416Y-51879837D01*
X92819415Y-51879838D01*
X92819414Y-51879838D01*
X92673642Y-51940219D01*
X92518893Y-51971000D01*
X92361107Y-51971000D01*
X92206358Y-51940219D01*
X92060586Y-51879838D01*
X92060585Y-51879838D01*
X92060584Y-51879837D01*
X91929392Y-51792178D01*
X91817822Y-51680608D01*
X91730163Y-51549416D01*
X91730162Y-51549414D01*
X91669781Y-51403642D01*
X91639000Y-51248893D01*
X91639000Y-51091107D01*
X91669781Y-50936358D01*
X91730162Y-50790586D01*
X91730163Y-50790584D01*
X91817822Y-50659392D01*
X91929392Y-50547822D01*
X92060584Y-50460163D01*
X92060586Y-50460162D01*
X92206358Y-50399781D01*
X92361107Y-50369000D01*
X92518893Y-50369000D01*
X92673642Y-50399781D01*
G37*
G36*
X123153642Y-47859781D02*
G01*
X123299414Y-47920162D01*
X123299416Y-47920163D01*
X123430608Y-48007822D01*
X123542178Y-48119392D01*
X123629837Y-48250584D01*
X123629838Y-48250586D01*
X123690219Y-48396358D01*
X123721000Y-48551107D01*
X123721000Y-48708893D01*
X123690219Y-48863642D01*
X123629838Y-49009414D01*
X123629837Y-49009416D01*
X123542178Y-49140608D01*
X123430608Y-49252178D01*
X123299416Y-49339837D01*
X123299415Y-49339838D01*
X123299414Y-49339838D01*
X123153642Y-49400219D01*
X122998893Y-49431000D01*
X122841107Y-49431000D01*
X122686358Y-49400219D01*
X122540586Y-49339838D01*
X122540585Y-49339838D01*
X122540584Y-49339837D01*
X122409392Y-49252178D01*
X122297822Y-49140608D01*
X122210163Y-49009416D01*
X122210162Y-49009414D01*
X122149781Y-48863642D01*
X122119000Y-48708893D01*
X122119000Y-48551107D01*
X122149781Y-48396358D01*
X122210162Y-48250586D01*
X122210163Y-48250584D01*
X122297822Y-48119392D01*
X122409392Y-48007822D01*
X122540584Y-47920163D01*
X122540586Y-47920162D01*
X122686358Y-47859781D01*
X122841107Y-47829000D01*
X122998893Y-47829000D01*
X123153642Y-47859781D01*
G37*
G36*
X92673642Y-47859781D02*
G01*
X92819414Y-47920162D01*
X92819416Y-47920163D01*
X92950608Y-48007822D01*
X93062178Y-48119392D01*
X93149837Y-48250584D01*
X93149838Y-48250586D01*
X93210219Y-48396358D01*
X93241000Y-48551107D01*
X93241000Y-48708893D01*
X93210219Y-48863642D01*
X93149838Y-49009414D01*
X93149837Y-49009416D01*
X93062178Y-49140608D01*
X92950608Y-49252178D01*
X92819416Y-49339837D01*
X92819415Y-49339838D01*
X92819414Y-49339838D01*
X92673642Y-49400219D01*
X92518893Y-49431000D01*
X92361107Y-49431000D01*
X92206358Y-49400219D01*
X92060586Y-49339838D01*
X92060585Y-49339838D01*
X92060584Y-49339837D01*
X91929392Y-49252178D01*
X91817822Y-49140608D01*
X91730163Y-49009416D01*
X91730162Y-49009414D01*
X91669781Y-48863642D01*
X91639000Y-48708893D01*
X91639000Y-48551107D01*
X91669781Y-48396358D01*
X91730162Y-48250586D01*
X91730163Y-48250584D01*
X91817822Y-48119392D01*
X91929392Y-48007822D01*
X92060584Y-47920163D01*
X92060586Y-47920162D01*
X92206358Y-47859781D01*
X92361107Y-47829000D01*
X92518893Y-47829000D01*
X92673642Y-47859781D01*
G37*
G36*
X175608710Y-41745070D02*
G01*
X176300447Y-42031597D01*
X176300448Y-42031598D01*
X176922996Y-42447571D01*
X177452429Y-42977004D01*
X177730374Y-43392978D01*
X177868403Y-43599553D01*
X178154930Y-44291290D01*
X178301000Y-45025633D01*
X178301000Y-45774367D01*
X178154930Y-46508710D01*
X177868403Y-47200447D01*
X177868402Y-47200448D01*
X177452429Y-47822996D01*
X176922996Y-48352429D01*
X176507022Y-48630374D01*
X176300447Y-48768403D01*
X175608710Y-49054930D01*
X174874367Y-49201000D01*
X174125633Y-49201000D01*
X173391290Y-49054930D01*
X172699553Y-48768403D01*
X172492978Y-48630374D01*
X172077004Y-48352429D01*
X171547571Y-47822996D01*
X171131598Y-47200448D01*
X171131597Y-47200447D01*
X170845070Y-46508710D01*
X170699000Y-45774367D01*
X170699000Y-45025633D01*
X170845070Y-44291290D01*
X171131597Y-43599553D01*
X171269626Y-43392978D01*
X171547571Y-42977004D01*
X172077004Y-42447571D01*
X172699552Y-42031598D01*
X172699553Y-42031597D01*
X173391290Y-41745070D01*
X174125633Y-41599000D01*
X174874367Y-41599000D01*
X175608710Y-41745070D01*
G37*
G36*
X79608710Y-41745070D02*
G01*
X80300447Y-42031597D01*
X80300448Y-42031598D01*
X80922996Y-42447571D01*
X81452429Y-42977004D01*
X81730374Y-43392978D01*
X81868403Y-43599553D01*
X82154930Y-44291290D01*
X82301000Y-45025633D01*
X82301000Y-45774367D01*
X82154930Y-46508710D01*
X81868403Y-47200447D01*
X81868402Y-47200448D01*
X81452429Y-47822996D01*
X80922996Y-48352429D01*
X80507022Y-48630374D01*
X80300447Y-48768403D01*
X79608710Y-49054930D01*
X78874367Y-49201000D01*
X78125633Y-49201000D01*
X77391290Y-49054930D01*
X76699553Y-48768403D01*
X76492978Y-48630374D01*
X76077004Y-48352429D01*
X75547571Y-47822996D01*
X75131598Y-47200448D01*
X75131597Y-47200447D01*
X74845070Y-46508710D01*
X74699000Y-45774367D01*
X74699000Y-45025633D01*
X74845070Y-44291290D01*
X75131597Y-43599553D01*
X75269626Y-43392978D01*
X75547571Y-42977004D01*
X76077004Y-42447571D01*
X76699552Y-42031598D01*
X76699553Y-42031597D01*
X77391290Y-41745070D01*
X78125633Y-41599000D01*
X78874367Y-41599000D01*
X79608710Y-41745070D01*
G37*
G36*
X163889943Y-41466248D02*
G01*
X164445189Y-41696238D01*
X164570875Y-41780219D01*
X164944899Y-42030134D01*
X165369866Y-42455101D01*
X165369867Y-42455103D01*
X165703762Y-42954811D01*
X165933752Y-43510057D01*
X166051000Y-44099501D01*
X166051000Y-44700499D01*
X165933752Y-45289943D01*
X165703762Y-45845189D01*
X165696299Y-45856358D01*
X165369866Y-46344899D01*
X164944899Y-46769866D01*
X164809676Y-46860219D01*
X164445189Y-47103762D01*
X163889943Y-47333752D01*
X163300499Y-47451000D01*
X162699501Y-47451000D01*
X162110057Y-47333752D01*
X161554811Y-47103762D01*
X161190324Y-46860219D01*
X161055101Y-46769866D01*
X160630134Y-46344899D01*
X160303701Y-45856358D01*
X160296238Y-45845189D01*
X160066248Y-45289943D01*
X159949000Y-44700499D01*
X159949000Y-44099501D01*
X160066248Y-43510057D01*
X160296238Y-42954811D01*
X160630133Y-42455103D01*
X160630134Y-42455101D01*
X161055101Y-42030134D01*
X161429125Y-41780219D01*
X161554811Y-41696238D01*
X162110057Y-41466248D01*
X162699501Y-41349000D01*
X163300499Y-41349000D01*
X163889943Y-41466248D01*
G37*
G36*
X157673297Y-41377704D02*
G01*
X157947637Y-41460924D01*
X158200462Y-41596062D01*
X158422070Y-41777930D01*
X158603938Y-41999538D01*
X158739076Y-42252363D01*
X158822296Y-42526703D01*
X158851000Y-42818140D01*
X158851000Y-45981860D01*
X158822296Y-46273297D01*
X158739076Y-46547637D01*
X158603938Y-46800462D01*
X158422070Y-47022070D01*
X158200462Y-47203938D01*
X157947637Y-47339076D01*
X157673297Y-47422296D01*
X157381860Y-47451000D01*
X154218140Y-47451000D01*
X153926703Y-47422296D01*
X153652363Y-47339076D01*
X153399538Y-47203938D01*
X153177930Y-47022070D01*
X152996062Y-46800462D01*
X152860924Y-46547637D01*
X152777704Y-46273297D01*
X152749000Y-45981860D01*
X152749000Y-42818140D01*
X152777704Y-42526703D01*
X152860924Y-42252363D01*
X152996062Y-41999538D01*
X153177930Y-41777930D01*
X153399538Y-41596062D01*
X153652363Y-41460924D01*
X153926703Y-41377704D01*
X154218140Y-41349000D01*
X157381860Y-41349000D01*
X157673297Y-41377704D01*
G37*
G36*
X123153642Y-45319781D02*
G01*
X123299414Y-45380162D01*
X123299416Y-45380163D01*
X123430608Y-45467822D01*
X123542178Y-45579392D01*
X123629837Y-45710584D01*
X123629838Y-45710586D01*
X123690219Y-45856358D01*
X123721000Y-46011107D01*
X123721000Y-46168893D01*
X123690219Y-46323642D01*
X123629838Y-46469414D01*
X123629837Y-46469416D01*
X123542178Y-46600608D01*
X123430608Y-46712178D01*
X123299416Y-46799837D01*
X123299415Y-46799838D01*
X123299414Y-46799838D01*
X123153642Y-46860219D01*
X122998893Y-46891000D01*
X122841107Y-46891000D01*
X122686358Y-46860219D01*
X122540586Y-46799838D01*
X122540585Y-46799838D01*
X122540584Y-46799837D01*
X122409392Y-46712178D01*
X122297822Y-46600608D01*
X122210163Y-46469416D01*
X122210162Y-46469414D01*
X122149781Y-46323642D01*
X122119000Y-46168893D01*
X122119000Y-46011107D01*
X122149781Y-45856358D01*
X122210162Y-45710586D01*
X122210163Y-45710584D01*
X122297822Y-45579392D01*
X122409392Y-45467822D01*
X122540584Y-45380163D01*
X122540586Y-45380162D01*
X122686358Y-45319781D01*
X122841107Y-45289000D01*
X122998893Y-45289000D01*
X123153642Y-45319781D01*
G37*
G36*
X92673642Y-45319781D02*
G01*
X92819414Y-45380162D01*
X92819416Y-45380163D01*
X92950608Y-45467822D01*
X93062178Y-45579392D01*
X93149837Y-45710584D01*
X93149838Y-45710586D01*
X93210219Y-45856358D01*
X93241000Y-46011107D01*
X93241000Y-46168893D01*
X93210219Y-46323642D01*
X93149838Y-46469414D01*
X93149837Y-46469416D01*
X93062178Y-46600608D01*
X92950608Y-46712178D01*
X92819416Y-46799837D01*
X92819415Y-46799838D01*
X92819414Y-46799838D01*
X92673642Y-46860219D01*
X92518893Y-46891000D01*
X92361107Y-46891000D01*
X92206358Y-46860219D01*
X92060586Y-46799838D01*
X92060585Y-46799838D01*
X92060584Y-46799837D01*
X91929392Y-46712178D01*
X91817822Y-46600608D01*
X91730163Y-46469416D01*
X91730162Y-46469414D01*
X91669781Y-46323642D01*
X91639000Y-46168893D01*
X91639000Y-46011107D01*
X91669781Y-45856358D01*
X91730162Y-45710586D01*
X91730163Y-45710584D01*
X91817822Y-45579392D01*
X91929392Y-45467822D01*
X92060584Y-45380163D01*
X92060586Y-45380162D01*
X92206358Y-45319781D01*
X92361107Y-45289000D01*
X92518893Y-45289000D01*
X92673642Y-45319781D01*
G37*
G36*
X125839487Y-41028996D02*
G01*
X126076253Y-41127068D01*
X126076255Y-41127069D01*
X126289339Y-41269447D01*
X126470553Y-41450661D01*
X126591839Y-41632178D01*
X126612932Y-41663747D01*
X126711004Y-41900513D01*
X126761000Y-42151861D01*
X126761000Y-42408139D01*
X126711004Y-42659487D01*
X126621942Y-42874500D01*
X126612931Y-42896255D01*
X126470553Y-43109339D01*
X126289339Y-43290553D01*
X126076255Y-43432931D01*
X126076254Y-43432932D01*
X126076253Y-43432932D01*
X125839487Y-43531004D01*
X125588139Y-43581000D01*
X125331861Y-43581000D01*
X125080513Y-43531004D01*
X124843747Y-43432932D01*
X124843746Y-43432932D01*
X124843745Y-43432931D01*
X124630661Y-43290553D01*
X124449447Y-43109339D01*
X124307069Y-42896255D01*
X124298058Y-42874500D01*
X124208996Y-42659487D01*
X124159000Y-42408139D01*
X124159000Y-42151861D01*
X124208996Y-41900513D01*
X124307068Y-41663747D01*
X124328162Y-41632178D01*
X124449447Y-41450661D01*
X124630661Y-41269447D01*
X124843745Y-41127069D01*
X124843747Y-41127068D01*
X125080513Y-41028996D01*
X125331861Y-40979000D01*
X125588139Y-40979000D01*
X125839487Y-41028996D01*
G37*
G36*
X90279487Y-41028996D02*
G01*
X90516253Y-41127068D01*
X90516255Y-41127069D01*
X90729339Y-41269447D01*
X90910553Y-41450661D01*
X91031839Y-41632178D01*
X91052932Y-41663747D01*
X91151004Y-41900513D01*
X91201000Y-42151861D01*
X91201000Y-42408139D01*
X91151004Y-42659487D01*
X91061942Y-42874500D01*
X91052931Y-42896255D01*
X90910553Y-43109339D01*
X90729339Y-43290553D01*
X90516255Y-43432931D01*
X90516254Y-43432932D01*
X90516253Y-43432932D01*
X90279487Y-43531004D01*
X90028139Y-43581000D01*
X89771861Y-43581000D01*
X89520513Y-43531004D01*
X89283747Y-43432932D01*
X89283746Y-43432932D01*
X89283745Y-43432931D01*
X89070661Y-43290553D01*
X88889447Y-43109339D01*
X88747069Y-42896255D01*
X88738058Y-42874500D01*
X88648996Y-42659487D01*
X88599000Y-42408139D01*
X88599000Y-42151861D01*
X88648996Y-41900513D01*
X88747068Y-41663747D01*
X88768162Y-41632178D01*
X88889447Y-41450661D01*
X89070661Y-41269447D01*
X89283745Y-41127069D01*
X89283747Y-41127068D01*
X89520513Y-41028996D01*
X89771861Y-40979000D01*
X90028139Y-40979000D01*
X90279487Y-41028996D01*
G37*
G36*
X100293642Y-40239781D02*
G01*
X100439414Y-40300162D01*
X100439416Y-40300163D01*
X100570608Y-40387822D01*
X100682178Y-40499392D01*
X100769837Y-40630584D01*
X100769838Y-40630586D01*
X100830219Y-40776358D01*
X100861000Y-40931107D01*
X100861000Y-41088893D01*
X100830219Y-41243642D01*
X100769838Y-41389414D01*
X100769837Y-41389416D01*
X100682178Y-41520608D01*
X100570608Y-41632178D01*
X100439416Y-41719837D01*
X100439415Y-41719838D01*
X100439414Y-41719838D01*
X100293642Y-41780219D01*
X100138893Y-41811000D01*
X99981107Y-41811000D01*
X99826358Y-41780219D01*
X99680586Y-41719838D01*
X99680585Y-41719838D01*
X99680584Y-41719837D01*
X99549392Y-41632178D01*
X99437822Y-41520608D01*
X99350163Y-41389416D01*
X99350162Y-41389414D01*
X99289781Y-41243642D01*
X99259000Y-41088893D01*
X99259000Y-40931107D01*
X99289781Y-40776358D01*
X99350162Y-40630586D01*
X99350163Y-40630584D01*
X99437822Y-40499392D01*
X99549392Y-40387822D01*
X99680584Y-40300163D01*
X99680586Y-40300162D01*
X99826358Y-40239781D01*
X99981107Y-40209000D01*
X100138893Y-40209000D01*
X100293642Y-40239781D01*
G37*
G36*
X102833642Y-40239781D02*
G01*
X102979414Y-40300162D01*
X102979416Y-40300163D01*
X103110608Y-40387822D01*
X103222178Y-40499392D01*
X103309837Y-40630584D01*
X103309838Y-40630586D01*
X103370219Y-40776358D01*
X103401000Y-40931107D01*
X103401000Y-41088893D01*
X103370219Y-41243642D01*
X103309838Y-41389414D01*
X103309837Y-41389416D01*
X103222178Y-41520608D01*
X103110608Y-41632178D01*
X102979416Y-41719837D01*
X102979415Y-41719838D01*
X102979414Y-41719838D01*
X102833642Y-41780219D01*
X102678893Y-41811000D01*
X102521107Y-41811000D01*
X102366358Y-41780219D01*
X102220586Y-41719838D01*
X102220585Y-41719838D01*
X102220584Y-41719837D01*
X102089392Y-41632178D01*
X101977822Y-41520608D01*
X101890163Y-41389416D01*
X101890162Y-41389414D01*
X101829781Y-41243642D01*
X101799000Y-41088893D01*
X101799000Y-40931107D01*
X101829781Y-40776358D01*
X101890162Y-40630586D01*
X101890163Y-40630584D01*
X101977822Y-40499392D01*
X102089392Y-40387822D01*
X102220584Y-40300163D01*
X102220586Y-40300162D01*
X102366358Y-40239781D01*
X102521107Y-40209000D01*
X102678893Y-40209000D01*
X102833642Y-40239781D01*
G37*
G36*
X105373642Y-40239781D02*
G01*
X105519414Y-40300162D01*
X105519416Y-40300163D01*
X105650608Y-40387822D01*
X105762178Y-40499392D01*
X105849837Y-40630584D01*
X105849838Y-40630586D01*
X105910219Y-40776358D01*
X105941000Y-40931107D01*
X105941000Y-41088893D01*
X105910219Y-41243642D01*
X105849838Y-41389414D01*
X105849837Y-41389416D01*
X105762178Y-41520608D01*
X105650608Y-41632178D01*
X105519416Y-41719837D01*
X105519415Y-41719838D01*
X105519414Y-41719838D01*
X105373642Y-41780219D01*
X105218893Y-41811000D01*
X105061107Y-41811000D01*
X104906358Y-41780219D01*
X104760586Y-41719838D01*
X104760585Y-41719838D01*
X104760584Y-41719837D01*
X104629392Y-41632178D01*
X104517822Y-41520608D01*
X104430163Y-41389416D01*
X104430162Y-41389414D01*
X104369781Y-41243642D01*
X104339000Y-41088893D01*
X104339000Y-40931107D01*
X104369781Y-40776358D01*
X104430162Y-40630586D01*
X104430163Y-40630584D01*
X104517822Y-40499392D01*
X104629392Y-40387822D01*
X104760584Y-40300163D01*
X104760586Y-40300162D01*
X104906358Y-40239781D01*
X105061107Y-40209000D01*
X105218893Y-40209000D01*
X105373642Y-40239781D01*
G37*
G36*
X107913642Y-40239781D02*
G01*
X108059414Y-40300162D01*
X108059416Y-40300163D01*
X108190608Y-40387822D01*
X108302178Y-40499392D01*
X108389837Y-40630584D01*
X108389838Y-40630586D01*
X108450219Y-40776358D01*
X108481000Y-40931107D01*
X108481000Y-41088893D01*
X108450219Y-41243642D01*
X108389838Y-41389414D01*
X108389837Y-41389416D01*
X108302178Y-41520608D01*
X108190608Y-41632178D01*
X108059416Y-41719837D01*
X108059415Y-41719838D01*
X108059414Y-41719838D01*
X107913642Y-41780219D01*
X107758893Y-41811000D01*
X107601107Y-41811000D01*
X107446358Y-41780219D01*
X107300586Y-41719838D01*
X107300585Y-41719838D01*
X107300584Y-41719837D01*
X107169392Y-41632178D01*
X107057822Y-41520608D01*
X106970163Y-41389416D01*
X106970162Y-41389414D01*
X106909781Y-41243642D01*
X106879000Y-41088893D01*
X106879000Y-40931107D01*
X106909781Y-40776358D01*
X106970162Y-40630586D01*
X106970163Y-40630584D01*
X107057822Y-40499392D01*
X107169392Y-40387822D01*
X107300584Y-40300163D01*
X107300586Y-40300162D01*
X107446358Y-40239781D01*
X107601107Y-40209000D01*
X107758893Y-40209000D01*
X107913642Y-40239781D01*
G37*
M02*
