M48
; DRILL file {KiCad 5.1.5} date Wed 18 Dec 2019 01:25:24 AM CST
; FORMAT={-:-/ absolute / inch / decimal}
; #@! TF.CreationDate,2019-12-18T01:25:24-06:00
; #@! TF.GenerationSoftware,Kicad,Pcbnew,5.1.5
FMAT,2
INCH
T1C0.0157
T2C0.0394
T3C0.0402
T4C0.0433
T5C0.0858
T6C0.0984
T7C0.1693
T8C0.1772
%
G90
G05
T1
X2.8455Y-3.7795
X2.874Y-3.8976
X2.9173Y-2.5354
X2.9173Y-2.5709
X2.9567Y-2.6693
X2.9587Y-3.8011
X2.9587Y-3.8976
X2.9724Y-4.0748
X2.9764Y-4.1417
X2.9764Y-4.1811
X2.9803Y-2.6417
X3.1535Y-4.1969
X3.189Y-4.1969
X3.2024Y-3.2165
X3.2195Y-3.7205
X3.2205Y-4.1063
X3.2244Y-4.1969
X3.2283Y-3.248
X3.2283Y-3.3268
X3.248Y-3.7594
X3.2559Y-4.0709
X3.2559Y-4.1063
X3.2677Y-3.248
X3.3071Y-3.248
X3.3071Y-3.3268
X3.3268Y-3.9803
X3.3957Y-2.9035
X3.435Y-2.8937
X3.4936Y-2.9227
X3.5039Y-3.0709
X3.5635Y-2.9926
X3.5669Y-2.4173
X3.5827Y-3.6348
X3.6024Y-3.3366
X3.6122Y-3.5531
X3.6319Y-3.7697
X3.6319Y-3.9567
X3.6327Y-3.0709
X3.7205Y-3.4941
X3.7398Y-3.3854
X3.748Y-2.4173
X3.7697Y-3.4449
X3.78Y-3.5241
X3.9567Y-3.1624
X3.9862Y-3.9469
X4.1339Y-3.7791
X4.2126Y-3.4055
X4.2618Y-3.9469
X4.2618Y-4.5866
X4.2717Y-3.5919
X4.2913Y-3.248
X4.2913Y-3.8484
X4.3115Y-3.5428
X4.3144Y-3.638
X4.3199Y-4.5079
X4.3307Y-3.9764
X4.3504Y-3.622
X4.3583Y-4.1417
X4.3583Y-4.1772
X4.3583Y-4.2126
X4.3898Y-3.9085
X4.3937Y-4.1417
X4.3937Y-4.1772
X4.3937Y-4.2126
X4.4284Y-3.5814
X4.4286Y-3.6215
X4.4291Y-3.4449
X4.4291Y-3.7795
X4.4292Y-3.5421
X4.4379Y-3.493
X4.5276Y-2.6181
X4.5276Y-2.7756
X4.5276Y-2.815
X4.5276Y-2.8543
X4.5276Y-2.8937
X4.6457Y-2.5984
X4.6457Y-2.7756
X4.6457Y-2.815
X4.6457Y-2.8543
X4.6457Y-2.8937
X4.6457Y-3.7106
X4.7441Y-3.377
X4.8701Y-3.9528
X4.8701Y-3.9882
X4.8701Y-4.0236
X4.8917Y-3.6909
X4.9016Y-2.5591
X4.9218Y-3.4454
X5.2362Y-1.9961
X5.2362Y-3.2677
X5.2362Y-3.3071
X5.2756Y-3.0315
X5.3071Y-1.9921
X5.3346Y-3.0315
X5.3346Y-3.8386
X5.3346Y-3.937
X5.3346Y-3.9764
X5.3583Y-4.6063
X5.3661Y-1.7283
X5.374Y-3.189
X5.4055Y-1.7283
X5.4134Y-3.189
X5.4134Y-3.8583
X5.4528Y-3.0364
X5.4528Y-3.937
X5.4528Y-3.9764
X5.4724Y-4.4085
X5.4724Y-4.5866
X5.494Y-4.6276
X5.7185Y-4.4094
X5.7879Y-3.032
X5.8563Y-4.0551
X5.9646Y-4.0354
X5.9843Y-3.8386
X5.997Y-3.8976
X5.997Y-3.9567
X6.0038Y-2.7758
X6.0039Y-4.252
X6.0333Y-2.8053
X6.0827Y-2.6969
X6.0827Y-3.248
X6.1122Y-2.7264
X6.122Y-3.878
X6.1266Y-4.252
X6.2205Y-3.1496
X6.2205Y-3.7992
X6.28Y-3.8194
X6.4862Y-3.8583
X6.6043Y-3.8583
X6.624Y-2.5689
X6.9567Y-2.7402
X6.9587Y-2.7756
X6.9921Y-2.7402
X6.9921Y-2.7756
X7.0276Y-2.7402
X7.0276Y-2.7756
T2
X4.3898Y-2.6929
X4.5866Y-2.6929
X6.8701Y-3.2441
X6.8701Y-3.3441
X6.8701Y-3.4441
X6.8701Y-3.5441
X6.8701Y-3.6441
X6.8701Y-3.7441
X6.8701Y-2.1024
X6.8701Y-2.2024
X6.8701Y-2.3024
X6.8701Y-2.4024
X6.8701Y-2.5024
X6.8701Y-2.6024
X3.9173Y-2.6929
X4.1142Y-2.6929
X3.0496Y-2.1417
X3.0496Y-2.2417
X3.0496Y-2.3417
X3.0496Y-2.4417
X3.0496Y-2.5417
X3.0496Y-2.6417
X3.0496Y-2.7417
X3.0496Y-2.8417
X3.0496Y-2.9417
X3.0496Y-3.0417
X3.0496Y-3.1417
X3.0496Y-3.2417
X3.0496Y-3.3417
X3.0496Y-3.4417
X3.0496Y-3.5417
X3.0496Y-3.6417
X3.0496Y-3.7417
X3.0496Y-3.8417
X3.0496Y-3.9417
X3.0496Y-4.0417
X3.1496Y-2.1417
X3.1496Y-2.2417
X3.1496Y-2.3417
X3.1496Y-2.4417
X3.1496Y-2.5417
X3.1496Y-2.6417
X3.1496Y-2.7417
X3.1496Y-2.8417
X3.1496Y-2.9417
X3.1496Y-3.0417
X3.1496Y-3.1417
X3.1496Y-3.2417
X3.1496Y-3.3417
X3.1496Y-3.4417
X3.1496Y-3.5417
X3.1496Y-3.6417
X3.1496Y-3.7417
X3.1496Y-3.8417
X3.1496Y-3.9417
X3.1496Y-4.0417
X4.3898Y-3.126
X4.5866Y-3.126
X3.4449Y-2.6929
X3.6417Y-2.6929
T3
X5.1445Y-2.0748
X5.1445Y-2.1748
X5.1445Y-2.2748
X5.1445Y-2.3748
X5.1445Y-2.4748
X5.1445Y-2.5748
X5.1445Y-2.6748
X5.1445Y-2.7748
X5.1445Y-2.8748
X5.1445Y-2.9748
X6.5445Y-2.0748
X6.5445Y-2.1748
X6.5445Y-2.2748
X6.5445Y-2.3748
X6.5445Y-2.4748
X6.5445Y-2.5748
X6.5445Y-2.6748
X6.5445Y-2.7748
X4.3835Y-3.8346
X4.4835Y-3.8346
X4.5835Y-3.8346
X4.6835Y-3.8346
X4.7835Y-3.8346
X5.1445Y-3.2165
X5.1445Y-3.3165
X5.1445Y-3.4165
X5.1445Y-3.5165
X5.1445Y-3.6165
X5.1445Y-3.7165
X5.1445Y-3.8165
X5.1445Y-3.9165
X5.1445Y-4.0165
X5.1445Y-4.1165
X6.5445Y-3.2165
X6.5445Y-3.3165
X6.5445Y-3.4165
X6.5445Y-3.5165
X6.5445Y-3.6165
X6.5445Y-3.7165
X6.5445Y-3.8165
X6.5445Y-3.9165
X3.6394Y-1.8146
X3.6394Y-1.9146
X3.6394Y-2.0146
X3.6394Y-2.1146
X3.9394Y-1.6146
X4.0394Y-1.6146
X4.1394Y-1.6146
X4.2394Y-1.6146
X4.8394Y-1.8146
X4.8394Y-1.9146
X4.8394Y-2.0146
X4.8394Y-2.1146
T4
X3.4598Y-3.2634
X3.4598Y-3.3634
X3.4598Y-3.4634
X3.4598Y-3.5634
X3.4598Y-3.6634
X3.4598Y-3.7634
X3.4598Y-3.8634
X3.4598Y-3.9634
X3.4598Y-4.0634
X3.4598Y-4.1634
X3.4598Y-4.2634
X3.4598Y-4.3634
X3.4598Y-4.4634
X3.4598Y-4.5634
X3.5598Y-3.2634
X3.5598Y-4.4634
X3.6598Y-3.2634
X3.7598Y-3.2634
X3.8598Y-3.2634
X3.9598Y-3.2634
X4.0598Y-3.2634
X4.0598Y-3.3634
X4.0598Y-3.4634
X4.0598Y-3.5634
X4.0598Y-3.6634
X4.0598Y-3.7634
X4.0598Y-3.8634
X4.0598Y-3.9634
X4.0598Y-4.0634
X4.0598Y-4.1634
X4.0598Y-4.2634
X4.0598Y-4.3634
X4.0598Y-4.4634
X4.0598Y-4.5634
X6.5197Y-4.5039
X6.6197Y-4.5039
X6.2465Y-4.5039
X6.3465Y-4.5039
X4.3866Y-3.9913
X4.3866Y-4.5913
X4.4866Y-3.9913
X4.4866Y-4.5913
X4.5866Y-3.9913
X4.5866Y-4.5913
X4.6866Y-3.9913
X4.6866Y-4.5913
X4.7866Y-3.9913
X4.7866Y-4.5913
X5.9685Y-4.5039
X6.0685Y-4.5039
T5
X5.2945Y-3.2165
X6.4945Y-4.1165
X5.2945Y-2.0748
X6.4945Y-2.9748
T6
X4.7335Y-4.4846
X3.5394Y-1.6646
X3.5394Y-2.2646
X4.9394Y-1.6646
X4.9394Y-2.2646
T7
X6.8701Y-1.7874
X3.0906Y-4.3858
X6.8701Y-4.3858
X3.0906Y-1.7874
T8
X6.1339Y-1.748
X6.4173Y-1.748
T0
M30
